<svg width="67" height="66" viewBox="0 0 67 66" fill="none" xmlns="http://www.w3.org/2000/svg">
<g clip-path="url(#clip0_2_17391)">
<path d="M0.499268 61.0686H1.91602V65.8348H0.499268V61.0686Z" fill="#010101"/>
<path d="M7.94203 61.0686V65.8348H6.82558L4.18139 62.7335L4.1683 62.7923L4.31848 63.7846V65.8348H3.10413V61.0686H4.40991L6.90393 64.0785L6.93005 63.987L6.73421 62.9294V61.0686H7.94203Z" fill="#010101"/>
<path d="M14.1833 61.0686L12.1462 65.8348H10.7621L8.7251 61.0686H10.2463L11.3693 64.1307H11.5391L12.6686 61.0686H14.1833Z" fill="#010101"/>
<path d="M16.4487 62.0741V62.9358H18.3028V63.8369H16.4487V64.8227H19.1254V65.8348H15.0319V61.0686H19.1254V62.0741H16.4487Z" fill="#010101"/>
<path d="M19.8364 65.3844L20.1956 64.3463C20.2609 64.3854 21.188 64.8947 22.2196 64.8947C22.644 64.8947 23.1532 64.8359 23.1532 64.5487C23.1532 64.2091 22.4938 64.0916 21.8344 63.9089C20.9791 63.6672 19.967 63.3081 19.967 62.3093C19.967 61.1081 21.3838 60.997 22.0824 60.997C22.8081 60.9892 23.5299 61.1039 24.2173 61.3364L24.002 62.3289C23.8844 62.3028 23.0487 61.9502 22.2848 61.9502C21.7756 61.9502 21.3185 62.0154 21.3185 62.342C21.3185 62.6618 21.9585 62.7794 22.5068 62.923C23.4209 63.1581 24.5047 63.393 24.5047 64.5161C24.5047 65.6 23.4861 65.9067 22.1673 65.9067C21.3612 65.9087 20.5648 65.7302 19.8364 65.3844Z" fill="#010101"/>
<path d="M29.7665 62.0741H28.1474V65.8348H26.7307V62.0741H25.1049V61.0686H29.7665V62.0741Z" fill="#010101"/>
<path d="M34.2909 64.8229V65.8348H30.3539V64.8229H30.3605C31.5029 64.0198 32.7762 63.269 32.7762 62.5509C32.7762 62.146 32.4627 62.0547 32.058 62.0547C31.4377 62.0547 30.7587 62.479 30.7587 62.479L30.3605 61.6303C30.9495 61.2178 31.6523 60.9988 32.3713 61.0035C33.5989 61.0035 34.1994 61.5258 34.1994 62.3876C34.1994 63.3604 33.1287 64.1505 32.1168 64.8229H34.2909Z" fill="#D90F15"/>
<path d="M34.9696 63.4644C34.9696 61.5972 36.3015 60.9966 37.8815 60.9966C38.9326 60.9966 39.5267 61.3556 39.5267 61.3556L39.2917 62.3612C38.85 62.154 38.3694 62.0427 37.8815 62.0346C36.8892 62.0346 36.3994 62.4591 36.3994 63.4644C36.3994 64.4765 36.8955 64.8617 37.8815 64.8617C38.7172 64.8617 39.1741 64.6136 39.3831 64.4895L39.566 65.5342C39.0394 65.7827 38.4637 65.9099 37.8815 65.9063C36.2884 65.9063 34.9696 65.384 34.9696 63.4644Z" fill="#010101"/>
<path d="M44.0898 65.8348L42.5295 64.3527H41.9091V65.8348H40.4924V61.0686H42.5424C43.6393 61.0686 45.1541 61.0686 45.1541 62.6617C45.1541 63.5496 44.6122 63.974 43.9397 64.1764L45.7416 65.8348H44.0898ZM42.5165 62.0741H41.9091V63.4125H42.3924C43.0452 63.4125 43.7242 63.3733 43.7242 62.7335C43.7242 62.159 43.2607 62.0741 42.5165 62.0741Z" fill="#010101"/>
<path d="M47.739 62.0741V62.9358H49.5932V63.8369H47.739V64.8227H50.4159V65.8348H46.3223V61.0686H50.4159V62.0741H47.739Z" fill="#010101"/>
<path d="M54.7116 64.8293H52.6877L52.2959 65.8348H50.9313L52.8966 61.0686H54.5026L56.4678 65.8348H55.1033L54.7116 64.8293ZM54.359 63.9283L53.6995 62.2307L53.0401 63.9283H54.359ZM53.4906 61.6954L53.4776 61.7541L53.5102 61.7476L53.4906 61.6954Z" fill="#010101"/>
<path d="M61.2205 62.0741H59.6013V65.8348H58.1846V62.0741H56.5588V61.0686H61.2205V62.0741Z" fill="#010101"/>
<path d="M63.5247 62.0741V62.9358H65.379V63.8369H63.5247V64.8227H66.2017V65.8348H62.108V61.0686H66.2017V62.0741H63.5247Z" fill="#010101"/>
<path d="M65.8709 0H0.627734C0.315429 0 0.0622559 0.253173 0.0622559 0.565478V56.1057C0.0622559 56.418 0.315429 56.6711 0.627734 56.6711H65.8709C66.1832 56.6711 66.4363 56.418 66.4363 56.1057V0.565478C66.4363 0.253173 66.1832 0 65.8709 0Z" fill="#D90F15"/>
<path fill-rule="evenodd" clip-rule="evenodd" d="M20.3854 29.9127L20.753 29.9437L20.5153 29.6365L20.3854 29.9127ZM10.0767 18.1499L9.75317 20.6886C10.4775 21.7147 12.0521 23.9023 12.8514 25.0272C13.7714 26.3222 14.7427 27.7049 15.7633 29.1573C16.204 27.9537 16.6559 26.6789 17.1332 25.3564L16.6266 24.707C15.5072 23.2951 14.4419 22.4557 13.4433 21.1919L10.0767 18.1499Z" fill="white"/>
<path fill-rule="evenodd" clip-rule="evenodd" d="M56.7451 20.6887L51.1416 18.5257C50.1274 19.6733 49.2324 20.6946 47.923 22.1208C44.7057 25.644 41.9146 28.7385 39.3855 31.486H39.0243L38.8483 31.2758L38.6512 31.486H28.0758L33.5364 23.3169C35.3571 20.5789 37.5319 17.5138 39.8307 14.1465L38.6382 13.6849L34.1197 11.9752L52.118 3.53809L56.7451 20.6887Z" fill="white"/>
<path fill-rule="evenodd" clip-rule="evenodd" d="M16.0291 29.5352C17.4448 29.6541 19.0159 29.795 20.7535 29.9432C21.5145 28.2713 22.3223 26.4801 23.1771 24.5693L22.8862 24.1431C21.7358 22.5482 20.642 21.0263 19.5958 19.5631C18.961 21.3446 18.3648 23.0273 17.7941 24.6187C17.1685 26.3508 16.5802 27.9897 16.0291 29.5352ZM26.323 17.6444L26.6523 16.9055L25.8621 17.114L26.323 17.6444Z" fill="white"/>
<path fill-rule="evenodd" clip-rule="evenodd" d="M32.1834 23.4243C30.2081 21.0971 28.3721 18.9389 26.6519 16.9057V16.9045C24.1158 17.574 21.8819 18.1596 19.9078 18.6791L27.7712 30.5792L32.0641 24.1114L32.377 23.6439L32.1834 23.4243ZM39.0242 31.4859L38.8483 31.2758L38.6511 31.4859L38.6417 31.4954L39.0585 31.5273L39.0242 31.4859Z" fill="white"/>
<path fill-rule="evenodd" clip-rule="evenodd" d="M39.0246 31.4858H38.6515L38.8487 31.2756L39.0246 31.4858Z" fill="white"/>
<path d="M19.0219 33.9169V50.7692H15.459V33.9169H19.0219ZM21.8546 50.7692V48.2018L27.8533 42.6475C28.3635 42.1538 28.7913 41.7095 29.137 41.3144C29.4881 40.9195 29.7542 40.5328 29.9352 40.1543C30.1162 39.7702 30.2067 39.356 30.2067 38.9117C30.2067 38.418 30.0942 37.9928 29.8693 37.6363C29.6444 37.2743 29.3372 36.9971 28.9478 36.8052C28.5583 36.6076 28.1167 36.5089 27.6229 36.5089C27.1072 36.5089 26.6574 36.6132 26.2734 36.8216C25.8895 37.0301 25.5932 37.329 25.3847 37.7185C25.1762 38.1081 25.0721 38.5716 25.0721 39.1092H21.69C21.69 38.0065 21.9396 37.0493 22.4389 36.2374C22.9381 35.4255 23.6376 34.7974 24.5372 34.353C25.4368 33.9087 26.4737 33.6865 27.6476 33.6865C28.8545 33.6865 29.905 33.9005 30.7992 34.3283C31.6989 34.7508 32.3983 35.3377 32.8975 36.0893C33.3967 36.8408 33.6463 37.7021 33.6463 38.6731C33.6463 39.3094 33.5201 39.9375 33.2678 40.5575C33.0209 41.1773 32.5793 41.8658 31.9429 42.6229C31.3067 43.3744 30.4097 44.2767 29.2522 45.33L26.7919 47.7411V47.8562H33.8685V50.7692H21.8546ZM51.4181 39.8168H47.814C47.7481 39.3506 47.6137 38.9364 47.4108 38.5743C47.2078 38.2068 46.9472 37.8941 46.629 37.6363C46.3109 37.3784 45.9433 37.181 45.5264 37.0438C45.1149 36.9067 44.6678 36.8381 44.1852 36.8381C43.3129 36.8381 42.5531 37.0548 41.9057 37.4882C41.2585 37.9161 40.7565 38.5415 40.3999 39.3643C40.0433 40.1817 39.8651 41.1746 39.8651 42.343C39.8651 43.5445 40.0433 44.5539 40.3999 45.3712C40.762 46.1886 41.2668 46.8058 41.914 47.2227C42.5614 47.6396 43.3102 47.8481 44.1605 47.8481C44.6377 47.8481 45.0793 47.7849 45.4852 47.6588C45.8967 47.5326 46.2615 47.3488 46.5797 47.1074C46.8979 46.8605 47.1612 46.5616 47.3696 46.2105C47.5835 45.8595 47.7317 45.459 47.814 45.0091L51.4181 45.0257C51.3248 45.7991 51.0917 46.5452 50.7187 47.2637C50.3511 47.9769 49.8547 48.616 49.2293 49.1811C48.6094 49.7406 47.8688 50.185 47.0076 50.514C46.1518 50.8378 45.1835 50.9995 44.1029 50.9995C42.5997 50.9995 41.2558 50.6595 40.0708 49.9792C38.8913 49.299 37.9587 48.3143 37.2731 47.0251C36.5928 45.736 36.2528 44.1753 36.2528 42.343C36.2528 40.5053 36.5983 38.9418 37.2895 37.6528C37.9807 36.3636 38.9187 35.3816 40.1037 34.7069C41.2886 34.0267 42.6217 33.6865 44.1029 33.6865C45.0793 33.6865 45.9844 33.8237 46.8183 34.098C47.6577 34.3723 48.4009 34.7727 49.0483 35.2993C49.6956 35.8205 50.2222 36.4596 50.6281 37.2166C51.0396 37.9737 51.3029 38.8404 51.4181 39.8168Z" fill="white"/>
</g>
<defs>
<clipPath id="clip0_2_17391">
<rect width="66.4723" height="66" fill="white" transform="translate(0.0622559)"/>
</clipPath>
</defs>
</svg>
