<svg width="42" height="42" viewBox="0 0 42 42" fill="none" xmlns="http://www.w3.org/2000/svg">
<path d="M20.5347 41C31.5804 41 40.5347 32.0457 40.5347 21C40.5347 9.9543 31.5804 1 20.5347 1C9.48897 1 0.534668 9.9543 0.534668 21C0.534668 32.0457 9.48897 41 20.5347 41Z" stroke="#B48C1E" stroke-miterlimit="10"/>
<path d="M22.4319 31.9487V22.3616H25.6238L26.2265 18.3996H22.4207V15.8215C22.4207 14.7389 22.9564 13.6786 24.6528 13.6786H26.3827V10.2969C26.3827 10.2969 24.8091 10.0291 23.3135 10.0291C20.1774 10.0291 18.135 11.9264 18.135 15.3639V18.3884H14.6528V22.3505H18.135V31.9375H22.4207L22.4319 31.9487Z" fill="#B48C1E"/>
</svg>
