<svg width="131" height="65" viewBox="0 0 131 65" fill="none" xmlns="http://www.w3.org/2000/svg">
<g clip-path="url(#clip0_2_17336)">
<mask id="mask0_2_17336" style="mask-type:luminance" maskUnits="userSpaceOnUse" x="0" y="0" width="131" height="65">
<path d="M130.412 0.649902H0.907898V64.9999H130.412V0.649902Z" fill="white"/>
</mask>
<g mask="url(#mask0_2_17336)">
<path d="M50.7073 24.4423C52.561 24.4423 54.2207 24.1123 55.6841 23.4548C56.5011 23.0866 57.241 22.63 57.9067 22.092L55.7248 17.401C55.0758 18.1637 54.3645 18.7447 53.591 19.144C52.8172 19.5456 51.9502 19.7441 50.9945 19.7441C50.1729 19.7441 49.4162 19.6102 48.7287 19.3424C48.0391 19.0746 47.4522 18.6897 46.9634 18.1828C46.475 17.6759 46.094 17.071 45.8164 16.3633C45.5385 15.658 45.3994 14.8737 45.3994 14.0154C45.3994 13.157 45.5385 12.3728 45.8164 11.6675C46.094 10.9621 46.4772 10.3549 46.9634 9.84795C47.4522 9.34109 48.0391 8.95613 48.7287 8.68837C49.4162 8.42056 50.1729 8.28668 50.9945 8.28668C51.3177 8.28668 51.6292 8.31775 51.931 8.36558L49.7155 3.62671C48.5036 3.71039 47.3659 3.94949 46.3024 4.34878C44.9542 4.85564 43.7875 5.57533 42.8032 6.51019C41.8189 7.44505 41.0476 8.54969 40.4943 9.81689C39.9388 11.0865 39.663 12.4852 39.663 14.013C39.663 15.5408 39.9409 16.9395 40.4943 18.2091C41.0501 19.4787 41.8189 20.5809 42.8032 21.5158C43.7875 22.4507 44.9542 23.1727 46.3024 23.6772C47.6509 24.1817 49.119 24.4351 50.7048 24.4351L50.7073 24.4423Z" fill="#434141"/>
<path d="M69.3487 12.8843C71.6455 12.8843 73.3701 13.3697 74.5196 14.338C75.6695 15.3064 76.2442 16.6572 76.2442 18.3907C76.2442 19.1056 76.1293 19.8826 75.8992 20.7219C75.6695 21.5635 75.2096 22.4936 74.5196 23.5121C73.8946 24.4374 72.9606 25.4894 71.7269 26.6634H88.7897C89.7861 25.0686 90.4833 23.5456 90.8711 22.0967C91.3309 20.3895 91.561 18.668 91.561 16.9346C91.561 13.6207 90.6795 10.742 88.9192 8.2937C87.159 5.84776 84.718 3.96132 81.6045 2.63434C78.4886 1.30975 74.8646 0.647461 70.7283 0.647461C65.8446 0.647461 61.6027 1.52733 57.9958 3.28468L63.373 14.7875C65.1404 13.5347 67.5235 12.8819 69.3487 12.8819V12.8843Z" fill="#489844"/>
<path d="M16.8283 24.4424C15.2211 24.4424 13.7385 24.1842 12.3805 23.6702C11.0225 23.1537 9.84166 22.4245 8.83813 21.4801C7.83456 20.5356 7.05375 19.4334 6.50048 18.1734C5.94722 16.9134 5.66937 15.529 5.66937 14.0203C5.66937 12.5116 5.94722 11.1272 6.50048 9.8672C7.05614 8.6072 7.83456 7.50495 8.83813 6.56054C9.84166 5.6161 11.0225 4.88448 12.3805 4.37043C13.7385 3.85397 15.2211 3.59814 16.8283 3.59814C18.4354 3.59814 19.9419 3.85637 21.2904 4.37043C22.6388 4.88448 23.81 5.6161 24.804 6.56054C25.798 7.50495 26.5788 8.6072 27.1417 9.8672C27.7045 11.1272 27.9871 12.5116 27.9871 14.0203C27.9871 15.529 27.7045 16.9181 27.1417 18.1877C26.5764 19.4573 25.798 20.5595 24.804 21.4944C23.81 22.4293 22.6388 23.1561 21.2904 23.6702C19.9419 24.1866 18.4546 24.4424 16.8283 24.4424ZM16.8283 19.7466C17.5923 19.7466 18.306 19.6127 18.9647 19.3449C19.6258 19.0772 20.1982 18.6922 20.6868 18.1853C21.1754 17.6784 21.5562 17.0735 21.834 16.3658C22.1119 15.6605 22.2508 14.8762 22.2508 14.0179C22.2508 13.1596 22.1119 12.3514 21.834 11.6556C21.5562 10.9599 21.1754 10.3574 20.6868 9.85287C20.1982 9.34597 19.6258 8.96105 18.9647 8.69325C18.306 8.42548 17.5923 8.29156 16.8283 8.29156C16.0642 8.29156 15.3504 8.42548 14.6918 8.69325C14.0331 8.96105 13.4583 9.34836 12.9697 9.85287C12.4811 10.3597 12.1003 10.9599 11.8224 11.6556C11.5446 12.3538 11.4057 13.1404 11.4057 14.0179C11.4057 14.8954 11.5446 15.6605 11.8224 16.3658C12.1003 17.0711 12.4835 17.6784 12.9697 18.1853C13.4583 18.6922 14.0308 19.0772 14.6918 19.3449C15.3529 19.6127 16.0642 19.7466 16.8283 19.7466Z" fill="#434141"/>
<path d="M30.9714 24.0406V3.99487H36.6528V24.0406H30.9714Z" fill="#434141"/>
<path d="M6.74472 40.665C5.90405 40.665 5.12802 40.5238 4.41668 40.2443C3.70533 39.9622 3.08738 39.5675 2.56764 39.0584C2.04551 38.549 1.64073 37.9488 1.34853 37.2577C1.05632 36.5692 0.910217 35.8137 0.910217 34.9961C0.910217 34.1783 1.05632 33.4252 1.34853 32.7342C1.64073 32.0432 2.0503 31.4455 2.57722 30.9338C3.10415 30.4222 3.72209 30.03 4.43584 29.7479C5.14718 29.4658 5.9256 29.3247 6.76392 29.3247C7.6022 29.3247 8.3327 29.461 9.04405 29.7312C9.7554 30.0013 10.3566 30.4078 10.8476 30.9482L10.0979 31.6965C9.64045 31.2303 9.13506 30.8932 8.58179 30.6852C8.02853 30.4771 7.43213 30.3743 6.79503 30.3743C6.12439 30.3743 5.50405 30.4891 4.92924 30.7162C4.35441 30.9458 3.85383 31.2685 3.42989 31.687C3.00356 32.1054 2.67303 32.5955 2.43352 33.1526C2.194 33.7097 2.07425 34.3242 2.07425 34.9913C2.07425 35.6583 2.194 36.2728 2.43352 36.8298C2.67303 37.3871 3.00595 37.8747 3.42989 38.2955C3.85383 38.7138 4.35441 39.0391 4.92924 39.2661C5.50405 39.4957 6.12439 39.6083 6.79503 39.6083C7.46567 39.6083 8.02853 39.5028 8.58179 39.2901C9.13506 39.0774 9.64045 38.7378 10.0979 38.2716L10.8476 39.0202C10.359 39.5604 9.75782 39.9693 9.04405 40.2464C8.3327 40.5217 7.56627 40.66 6.74715 40.66L6.74472 40.665Z" fill="#434141"/>
<path d="M17.863 40.665C16.4379 40.665 15.317 40.256 14.4979 39.4384C13.6787 38.6208 13.2692 37.411 13.2692 35.8089V29.425H14.45V35.7611C14.45 37.0785 14.7469 38.0491 15.3433 38.6755C15.9397 39.3022 16.778 39.6153 17.863 39.6153C18.948 39.6153 19.8031 39.3022 20.3994 38.6755C20.9958 38.0491 21.2928 37.0785 21.2928 35.7611V29.425H22.4425V35.8089C22.4425 37.411 22.0353 38.6229 21.2234 39.4384C20.409 40.256 19.2905 40.665 17.8654 40.665H17.863Z" fill="#434141"/>
<path d="M25.9965 40.5693V29.4229H27.1773V39.5487H33.4286V40.5672H25.9965V40.5693Z" fill="#434141"/>
<path d="M36.5234 40.5691V30.4436H32.6002V29.425H41.6275V30.4436H37.7042V40.5691H36.5234Z" fill="#434141"/>
<path d="M47.7826 40.665C46.3577 40.665 45.2368 40.256 44.4177 39.4384C43.5985 38.6208 43.189 37.411 43.189 35.8089V29.425H44.3698V35.7611C44.3698 37.0785 44.6667 38.0491 45.2632 38.6755C45.8593 39.3022 46.6977 39.6153 47.7826 39.6153C48.8675 39.6153 49.7227 39.3022 50.3192 38.6755C50.9157 38.0491 51.2125 37.0785 51.2125 35.7611V29.425H52.3624V35.8089C52.3624 37.411 51.955 38.6229 51.143 39.4384C50.3288 40.256 49.2104 40.665 47.7851 40.665H47.7826Z" fill="#434141"/>
<path d="M55.9189 40.5693V29.4229H60.0983C61.0445 29.4229 61.859 29.5735 62.5389 29.8771C63.2193 30.1808 63.7437 30.6159 64.1101 31.1826C64.4769 31.7492 64.661 32.4379 64.661 33.2436C64.661 34.0493 64.479 34.7068 64.1101 35.2735C63.7412 35.8402 63.2193 36.2777 62.5389 36.5789C61.859 36.8824 61.0445 37.0333 60.0983 37.0333H56.5728L57.0998 36.4928V40.5693H55.9189ZM57.0973 36.5886L56.5703 36.0315H60.0623C61.1786 36.0315 62.0266 35.7876 62.606 35.2998C63.1858 34.8121 63.4754 34.1259 63.4754 33.246C63.4754 32.3661 63.1858 31.6632 62.606 31.1754C62.0266 30.6877 61.1786 30.4438 60.0623 30.4438H56.5703L57.0973 29.8867V36.5911V36.5886ZM63.5425 40.5693L60.6709 36.5264H61.9474L64.8336 40.5693H63.5425Z" fill="#434141"/>
<path d="M65.6626 40.5693L70.7664 29.4229H71.9305L77.0347 40.5693H75.7914L71.1018 30.1091H71.5809L66.8913 40.5693H65.6626ZM67.6719 37.5928L68.024 36.6365H74.5149L74.867 37.5928H67.6744H67.6719Z" fill="#434141"/>
<path d="M78.8859 40.5693V29.4229H80.0667V39.5487H86.3204V40.5672H78.8884L78.8859 40.5693Z" fill="#434141"/>
<path d="M9.3196 57.0977H8.13879V45.9512H15.7936V46.9697H9.31721V57.0955L9.3196 57.0977ZM9.19028 51.3498H15.0919V52.3683H9.19028V51.3498Z" fill="#434141"/>
<path d="M19.4149 56.0791H26.1309V57.0977H18.2365V45.9512H25.8913V46.9697H19.4149V56.0766V56.0791ZM19.288 50.9361H25.1896V51.9404H19.288V50.9361Z" fill="#434141"/>
<path d="M31.9821 57.1938C31.1534 57.1938 30.3582 57.0576 29.599 56.7873C28.8398 56.5171 28.2505 56.1682 27.8362 55.7449L28.2984 54.8361C28.6912 55.219 29.2206 55.5393 29.8864 55.7999C30.5498 56.0606 31.2492 56.1896 31.9845 56.1896C32.7199 56.1896 33.2587 56.1009 33.6994 55.9265C34.1402 55.752 34.4659 55.5154 34.6719 55.219C34.8803 54.9223 34.9832 54.5923 34.9832 54.2312C34.9832 53.7961 34.8587 53.4447 34.6072 53.1795C34.3581 52.9138 34.03 52.7036 33.6252 52.5506C33.2204 52.3976 32.7749 52.261 32.2863 52.1441C31.7977 52.0269 31.3091 51.9025 30.8181 51.7709C30.3295 51.6372 29.8792 51.4602 29.4696 51.2379C29.0601 51.0155 28.7295 50.7213 28.4805 50.3556C28.2314 49.9898 28.1044 49.5094 28.1044 48.9138C28.1044 48.3614 28.2505 47.8549 28.5427 47.3933C28.8349 46.9318 29.2852 46.5589 29.8912 46.279C30.4972 45.9994 31.2732 45.8557 32.2192 45.8557C32.8468 45.8557 33.4695 45.9444 34.0851 46.1188C34.7006 46.2933 35.2323 46.535 35.6802 46.8435L35.2826 47.783C34.8036 47.4648 34.2958 47.2307 33.7593 47.0823C33.2228 46.9343 32.7031 46.8599 32.2049 46.8599C31.5343 46.8599 30.981 46.9511 30.5451 47.1302C30.1091 47.3118 29.7882 47.551 29.5798 47.8549C29.3715 48.1584 29.2685 48.5001 29.2685 48.8827C29.2685 49.3181 29.393 49.6695 29.6421 49.9348C29.8912 50.2001 30.2217 50.4081 30.6313 50.5565C31.0409 50.7048 31.4911 50.8385 31.9797 50.9533C32.4683 51.0681 32.9546 51.1971 33.4384 51.3358C33.9222 51.4745 34.3677 51.6515 34.7773 51.8692C35.1868 52.0866 35.5149 52.3762 35.7665 52.7369C36.0155 53.098 36.1401 53.5713 36.1401 54.1547C36.1401 54.6953 35.9916 55.1972 35.6946 55.6587C35.3976 56.1203 34.9425 56.4931 34.3318 56.773C33.721 57.0551 32.9354 57.1938 31.9797 57.1938H31.9821Z" fill="#434141"/>
<path d="M40.7244 57.0981V46.9726H36.8011V45.9541H45.8282V46.9726H41.9049V57.0981H40.7244Z" fill="#434141"/>
<path d="M85.3531 54.126L83.5996 51.4697L91.5636 45.478L94.5576 43.2544H51.2992L51.2728 43.2758L57.7301 57.1601H87.8512C86.2846 55.5152 85.4487 54.2718 85.3531 54.1285V54.126Z" fill="#489844"/>
<path d="M94.1594 9.33858L124.772 6.66309L124.431 19.4356L107.802 19.5025L106.954 28.6503C106.954 28.6503 125.586 27.2611 129.557 40.5068C133.765 54.4654 121.922 64.8325 105.766 62.8338C94.229 61.4109 88.1862 52.2632 88.1862 52.2632L99.0792 44.0647C99.0792 44.0647 102.066 51.6201 108.616 51.4503C114.894 51.2804 115.948 45.8936 114.997 43.0819C112.077 34.5798 93.2086 37.6282 93.2086 37.6282L94.1594 9.34098V9.33858Z" fill="#59BDA5"/>
<path d="M10.4357 65.0002H8.13879V60.658H10.4357C11.0656 60.658 11.583 61.1745 11.583 61.8059V62.0257C11.583 62.3293 11.4632 62.6163 11.2501 62.8316C11.4632 63.0443 11.583 63.3335 11.583 63.6324V63.8526C11.583 64.4836 11.0656 65.0002 10.4357 65.0002ZM10.4357 62.4894C10.6896 62.4894 10.898 62.2817 10.898 62.0257V61.8059C10.898 61.5524 10.6896 61.3444 10.4357 61.3444H8.82142V62.4894H10.4357ZM10.4357 64.3163C10.6896 64.3163 10.898 64.1082 10.898 63.8526V63.6324C10.898 63.3814 10.6896 63.1687 10.4357 63.1687H8.82142V64.3138H10.4357V64.3163Z" fill="#489844"/>
<path d="M16.9721 65H16.2679L15.9182 63.441H13.8752L13.5255 65H12.8237L13.8033 60.6582H15.9901L16.9697 65H16.9721ZM15.7649 62.7621L15.444 61.3468H14.3494L14.0309 62.7621H15.7649Z" fill="#489844"/>
<path d="M21.7741 65H20.9215L19.4317 63.0013L19.0149 63.4149V65H18.3323V60.6582H19.0149V62.4489L20.8089 60.6582H21.7741L19.9203 62.5133L21.7741 65Z" fill="#489844"/>
<path d="M25.4219 65H24.2746C23.6423 65 23.1249 64.4835 23.1249 63.8525V60.6582H23.8075V63.8525C23.8075 64.1059 24.0159 64.3161 24.2746 64.3161H25.4219C25.6757 64.3161 25.8841 64.1081 25.8841 63.8525V60.6582H26.5667V63.8525C26.5667 64.4835 26.0542 65 25.4194 65H25.4219Z" fill="#489844"/>
<path d="M32.8612 64.9999H31.7139C31.0816 64.9999 30.5643 64.4833 30.5643 63.8523V61.8081C30.5643 61.1767 31.0816 60.6602 31.7139 60.6602H32.8612C33.4935 60.6602 34.0109 61.1767 34.0109 61.8081V61.8821H33.3235V61.8081C33.3235 61.5546 33.1151 61.3466 32.8612 61.3466H31.7139C31.4601 61.3466 31.2493 61.5546 31.2493 61.8081V63.8523C31.2493 64.1057 31.4577 64.316 31.7139 64.316H32.8612C33.1151 64.316 33.3235 64.1079 33.3235 63.8523V63.7804H34.0109V63.8523C34.0109 64.4833 33.4935 64.9999 32.8612 64.9999Z" fill="#489844"/>
<path d="M38.8657 65.0001H38.1832V63.6323C38.1832 63.3813 37.9745 63.1686 37.7208 63.1686H36.1065V64.9976H35.4238V60.6558H37.7208C38.3505 60.6558 38.8682 61.1723 38.8682 61.8033V62.0232C38.8682 62.3271 38.7483 62.6138 38.535 62.829C38.7483 63.0421 38.8682 63.3313 38.8682 63.6302V64.9976L38.8657 65.0001ZM37.7208 62.4897C37.9745 62.4897 38.1832 62.2817 38.1832 62.0257V61.8058C38.1832 61.5524 37.9745 61.3443 37.7208 61.3443H36.1065V62.4897H37.7208Z" fill="#489844"/>
<path d="M43.7233 65H40.2791V60.6582H43.7233V61.3442H40.9641V62.4897H43.491V63.1711H40.9641V64.3161H43.7233V65.0025V65Z" fill="#489844"/>
<path d="M49.2293 65H48.525L48.1754 63.441H46.1326L45.783 65H45.0809L46.0605 60.6582H48.2475L49.2271 65H49.2293ZM48.0245 62.7621L47.7038 61.3468H46.6092L46.2906 62.7621H48.0245Z" fill="#489844"/>
<path d="M51.9362 65H51.2533V61.3442H49.8737V60.6582H53.3179V61.3442H51.9383V65H51.9362Z" fill="#489844"/>
<path d="M55.4114 65H54.7285V60.6582H55.4114V65Z" fill="#489844"/>
<path d="M57.8063 65L56.827 60.6582H57.5288L58.3525 64.314H59.095L59.9191 60.6582H60.623L59.6437 65H57.8063Z" fill="#489844"/>
<path d="M65.4277 65H61.9835V60.6582H65.4277V61.3442H62.6685V62.4897H65.1954V63.1711H62.6685V64.3161H65.4277V65.0025V65Z" fill="#489844"/>
<path d="M72.5245 65V64.9929L71.315 63.0967L70.1078 64.9929V65H69.4203V60.6582H70.1078V63.7209L71.315 61.8201L72.5245 63.7209V60.6582H73.207V65H72.5245Z" fill="#489844"/>
<path d="M78.0643 65H74.6201V60.6582H78.0643V61.3442H75.3051V62.4897H77.832V63.1711H75.3051V64.3161H78.0643V65.0025V65Z" fill="#489844"/>
<path d="M82.9215 65H79.4774V60.6582H82.9215V61.3442H80.1623V62.4897H82.6893V63.1711H80.1623V64.3161H82.9215V65.0025V65Z" fill="#489844"/>
<path d="M87.7767 65H86.924L85.4342 63.0013L85.0175 63.4149V65H84.3347V60.6582H85.0175V62.4489L86.8113 60.6582H87.7767L85.9226 62.5133L87.7767 65Z" fill="#489844"/>
</g>
</g>
<defs>
<clipPath id="clip0_2_17336">
<rect width="129.504" height="64.35" fill="white" transform="translate(0.907898 0.649902)"/>
</clipPath>
</defs>
</svg>
