<svg width="91" height="54" viewBox="0 0 91 54" fill="none" xmlns="http://www.w3.org/2000/svg">
<g clip-path="url(#clip0_2_17110)">
<path d="M42.1895 35.0334L42.3373 34.7622C42.4358 34.5731 42.4604 34.3512 42.4276 34.1457L42.4029 33.8908L42.5589 34.0224C42.7312 34.1621 42.8954 34.2936 43.0677 34.4169L43.1826 34.4991L42.1895 35.0334ZM61.4518 21.1992C61.4518 21.191 61.4518 21.191 61.4518 21.1828C61.4518 21.1746 61.4518 21.1746 61.4518 21.1664C61.4518 21.1581 61.4436 21.1581 61.4436 21.1581C61.4436 21.1581 61.4354 21.1499 61.4272 21.1499C61.419 21.1499 61.419 21.1499 61.4108 21.1499C61.4026 21.1499 61.4026 21.1499 61.3944 21.1499C61.3862 21.1499 61.3862 21.1581 61.3862 21.1581C61.3862 21.1581 61.378 21.1664 61.378 21.1746C61.2056 21.6678 61.0086 22.1856 60.8035 22.6213C60.6804 22.7693 60.4506 23.0405 60.2782 23.0981C60.4506 22.8761 60.5655 22.6131 60.6065 22.3336C60.902 21.7911 61.1318 21.2157 61.2959 20.6238C61.2959 20.6156 61.2959 20.6156 61.2959 20.6074C61.2959 20.5992 61.2959 20.5992 61.2877 20.591C61.2877 20.5827 61.2795 20.5827 61.2795 20.5827C61.2795 20.5827 61.2713 20.5745 61.2631 20.5745C61.2549 20.5745 61.2549 20.5745 61.2467 20.5745C61.2384 20.5745 61.2384 20.5745 61.2302 20.5827C61.222 20.5827 61.222 20.591 61.222 20.591C61.222 20.5992 61.2138 20.5992 61.2138 20.6074C61.0743 21.1335 60.8773 21.6431 60.6311 22.1281C60.6557 21.9062 60.6639 21.6924 60.6557 21.4705C60.902 20.9609 61.0825 20.4266 61.1974 19.8676C61.1974 19.8594 61.1974 19.8594 61.1974 19.8512C61.1974 19.843 61.1974 19.843 61.1892 19.8347C61.1892 19.8265 61.181 19.8265 61.181 19.8265C61.181 19.8265 61.1728 19.8183 61.1646 19.8183C61.1564 19.8183 61.1482 19.8183 61.14 19.8265C61.1318 19.8347 61.1236 19.843 61.1236 19.8512C61.0169 20.3526 60.8609 20.8376 60.6557 21.3061C60.6557 21.1581 60.6475 21.0266 60.6475 20.9198C60.6475 20.854 60.6475 20.7882 60.6475 20.7307C60.8445 20.0813 61.0004 19.4237 61.1153 18.7579C61.1153 18.7497 61.1153 18.7497 61.1153 18.7415C61.1153 18.7333 61.1153 18.7333 61.1071 18.725L61.0989 18.7168C61.0907 18.7168 61.0907 18.7086 61.0825 18.7086C61.0743 18.7086 61.0661 18.7086 61.0579 18.7168C61.0497 18.725 61.0415 18.7333 61.0415 18.7415C60.9102 19.4648 60.7378 20.18 60.5162 20.8869C60.4588 20.9691 60.4013 21.0513 60.3439 21.1253C60.311 21.1581 60.2864 21.191 60.27 21.2157C60.1961 21.3225 60.1059 21.4541 60.0156 21.602C60.2125 20.9691 60.4177 20.2622 60.5408 19.7114C60.5408 19.7032 60.5408 19.695 60.5326 19.6868C60.5244 19.6786 60.5162 19.6703 60.508 19.6703C60.4998 19.6703 60.4916 19.6703 60.4834 19.6786C60.4752 19.6868 60.467 19.695 60.467 19.7032C60.3357 20.3362 60.0812 21.1828 59.8514 21.8733C59.6955 22.1199 59.5724 22.3911 59.4903 22.6706C59.4493 22.3994 59.4575 22.1199 59.5314 21.8486C59.7776 21.191 59.991 20.5252 60.1715 19.8512C60.1715 19.843 60.1715 19.843 60.1715 19.8347C60.1715 19.8265 60.1715 19.8265 60.1633 19.8183C60.1633 19.8101 60.1551 19.8101 60.1551 19.8101C60.1551 19.8101 60.1469 19.8019 60.1387 19.8019C60.1305 19.8019 60.1305 19.8019 60.1223 19.8019C60.1141 19.8019 60.1141 19.8019 60.1059 19.8101C60.0977 19.8101 60.0976 19.8183 60.0976 19.8183C60.0976 19.8265 60.0894 19.8265 60.0894 19.8347C59.8761 20.6403 59.6134 21.4376 59.3015 22.2021C59.2933 22.2103 59.2933 22.2185 59.2933 22.2185C59.0471 22.5555 58.8584 22.9337 58.7517 23.3447C58.6368 22.8597 59.0143 21.9226 59.1292 21.5856C57.9556 24.1666 56.0761 26.1723 53.696 27.7752C51.3159 29.3781 48.5337 30.2741 45.6612 30.3645C45.5053 30.3727 45.3411 30.3727 45.1852 30.3727C41.8695 30.3727 38.6522 29.2959 36.0013 27.2984C33.3504 25.301 31.4217 22.7364 30.5025 19.547C30.3137 19.2676 30.0429 19.0045 29.7721 19.0045C29.6982 19.0127 29.6325 19.0292 29.5669 19.0621C29.5012 19.0949 29.452 19.1443 29.4109 19.2018C28.8939 19.7772 29.5505 20.4266 29.6325 20.4923C29.6736 20.5334 29.7064 20.5827 29.7228 20.6321C29.7392 20.6896 29.7474 20.7471 29.7392 20.7965C29.7228 20.8869 29.6489 20.9526 29.5258 21.002C29.4274 21.0348 29.3453 21.0924 29.2714 21.1746C29.2058 21.2568 29.1565 21.3472 29.1401 21.4458C29.1237 21.5691 29.1401 21.6924 29.1811 21.8075L29.255 21.9719L29.0744 21.9473C29.0416 21.9473 28.9924 21.9473 28.9513 21.9473C28.8118 21.939 28.6723 21.9801 28.5574 22.0706C28.5328 22.0952 28.5164 22.1199 28.5081 22.1445C28.4999 22.1692 28.4999 22.2021 28.4999 22.2267C28.5492 22.6542 29.1237 23.0734 29.1237 23.0734C29.1155 23.1063 29.1155 23.1474 29.1237 23.1803C29.1319 23.2131 29.1483 23.2542 29.1647 23.2789C29.1893 23.3118 29.214 23.3364 29.2468 23.3529C29.2796 23.3693 29.3125 23.3858 29.3535 23.394C29.4274 23.4186 29.5094 23.4269 29.5915 23.4269C29.6243 23.4269 29.6572 23.4269 29.69 23.4186C29.69 23.4186 29.7885 23.4104 29.8459 23.4022C29.5587 23.6652 29.7474 24.9064 30.9703 25.0297C31.0278 25.038 31.0852 25.038 31.1427 25.0297C30.5764 25.8024 31.5448 26.197 31.5448 26.5093C31.5448 26.6408 31.3889 26.7641 31.2494 26.8463C31.0606 26.9532 30.8308 27.0354 30.8308 27.3313C30.8308 27.6683 31.0278 27.9971 31.7992 27.9971C32.0701 27.9971 32.3655 28.0218 32.3655 28.2191C32.3655 28.3013 32.2588 28.3917 32.1439 28.4657C32.0044 28.5643 31.8403 28.663 31.8403 28.8356C31.8403 28.8767 31.8321 29.2466 32.4066 29.4439L32.6446 29.5178L32.423 29.6247C32.3573 29.6493 32.3081 29.6904 32.267 29.7398C32.226 29.7973 32.2014 29.8548 32.2014 29.9206C32.1932 30.0932 32.3409 30.2576 32.6528 30.3809C32.8826 30.4631 33.1206 30.5207 33.3668 30.5371L33.3832 30.5782L33.4078 30.6111C33.4325 30.6357 33.4571 30.6604 33.4899 30.6768C33.5227 30.6933 33.5556 30.7015 33.5884 30.7097L33.6869 30.7179V30.8166C33.6869 30.8823 33.7033 30.9399 33.7279 30.9974C33.7525 31.055 33.7936 31.1043 33.8428 31.1454C33.9659 31.2769 34.1055 31.392 34.2532 31.4988L34.4994 31.6715L34.2039 31.6879C33.7361 31.7126 33.3422 31.992 33.2765 32.3373C33.2601 32.4195 33.2601 32.5017 33.2765 32.5839C33.2929 32.6661 33.3258 32.7401 33.375 32.814C33.5145 32.9702 33.7115 33.0771 33.9167 33.0935C33.9331 33.0935 33.9577 33.0935 33.9741 33.0935C34.1055 33.0853 34.2368 33.0688 34.3681 33.0277C34.6143 32.9702 34.6964 32.9702 34.8031 33.2908C34.8933 33.5538 34.959 33.7347 35.2052 33.7347H35.3612C35.3612 33.7347 35.0493 34.6471 35.4268 34.9841C35.4761 35.017 35.5335 35.0334 35.591 35.0252C35.7961 35.0252 36.0752 34.7622 36.2886 34.4991C36.584 34.1457 36.8302 34.1128 36.8631 34.1128H36.8959L36.9205 34.1292C37.019 34.1868 37.1257 34.2279 37.2406 34.2443C37.2981 34.2607 37.3555 34.2854 37.4047 34.3265C37.454 34.3676 37.4868 34.4251 37.5032 34.4827C37.5196 34.5484 37.5196 34.6142 37.495 34.6717C37.4786 34.7375 37.4376 34.7868 37.3883 34.8279C37.2324 34.9923 37.1503 35.2143 37.1503 35.4362C37.1421 35.5348 37.1585 35.6335 37.1914 35.7321C37.2242 35.8225 37.2734 35.9129 37.3391 35.9869C37.4047 36.0527 37.4868 36.1102 37.5771 36.1431C37.6674 36.176 37.7659 36.1924 37.8561 36.1924C37.971 36.2006 38.0942 36.1842 38.2008 36.1349C38.3075 36.0856 38.406 36.0198 38.4799 35.9294C38.6276 35.7568 38.7097 35.5348 38.6933 35.3047C38.6851 35.2636 38.6851 35.2143 38.6933 35.1732C38.7015 35.1321 38.7261 35.091 38.7507 35.0499C38.7671 35.0252 38.7918 35.0088 38.8246 35.0005C38.8492 34.9923 38.882 34.9841 38.9067 34.9841C38.9723 34.9841 39.0298 35.0088 39.079 35.0416C39.2021 35.1485 39.3581 35.2143 39.514 35.2225C39.6289 35.2225 39.7438 35.1732 39.8341 35.1074C39.9079 35.0581 39.9654 34.9841 39.9982 34.8937L40.0475 34.7457L40.1624 34.8608C40.2116 34.9101 40.2691 34.9594 40.3347 34.9841C40.4004 35.017 40.4742 35.0252 40.5481 35.0252C40.6876 35.0252 40.8189 34.9841 40.9338 34.9101L41.0816 34.795L41.0898 34.9841V35.0088C41.0898 35.0581 41.1062 35.1074 41.1308 35.1567C41.1554 35.1978 41.1883 35.2389 41.2375 35.2718C41.4427 35.4033 41.8038 35.2389 41.8038 35.2389C41.8038 35.2389 41.2539 35.5595 41.1883 35.617C41.1719 35.6335 41.1554 35.6499 41.1472 35.6746C41.139 35.6992 41.139 35.7239 41.139 35.7485C41.1636 35.9294 41.4837 35.9951 41.6971 35.9951C41.771 35.9951 41.8448 35.9869 41.9105 35.9705C42.0172 35.9458 42.1157 35.9047 42.206 35.8554C42.206 35.8554 43.1416 35.1649 43.8392 34.9183C43.3386 35.206 42.8625 35.5266 42.3947 35.8718C42.3537 35.9047 42.3209 35.9376 42.3044 35.9869C42.288 36.0362 42.2798 36.0856 42.288 36.1349C42.3373 36.3486 42.7723 36.3897 42.8954 36.3897C43.117 36.3897 43.5766 36.2828 43.7243 36.1431C43.7325 36.1349 43.7407 36.1267 43.7489 36.1102L43.7571 36.102C44.0115 35.8225 44.2988 35.5759 44.6189 35.3704L44.6681 35.3376L44.7256 35.3704C45.0456 35.5513 45.7104 35.9458 46.0633 36.1513L46.17 36.2171V36.2089L46.2849 36.2828C46.3342 36.3157 46.3998 36.3322 46.4573 36.3404C46.5558 36.3568 46.6543 36.3568 46.761 36.3568C47.3765 36.3568 47.8115 36.1102 47.8197 35.8965C47.8197 35.8554 47.8115 35.8143 47.7869 35.7814C47.7622 35.7485 47.7294 35.7239 47.6966 35.7074L47.6884 35.6992C47.4011 35.5759 46.3752 35.091 45.653 34.7375L46.2439 34.795L46.2931 34.8115C46.6543 34.8526 47.5324 35.354 48.0167 35.6499L48.0331 35.6581C48.1398 35.7074 48.2547 35.7321 48.3696 35.7321C48.6076 35.7321 48.9933 35.6335 49.0343 35.4362C49.0426 35.3787 49.0343 35.3293 49.0097 35.28C48.9851 35.2307 48.9441 35.1978 48.8866 35.1732L46.5968 34.2607L46.6461 34.0799V34.0717C47.9182 34.6142 49.2149 35.0827 50.5281 35.4773L50.4132 35.5759C50.2572 35.6992 49.7976 36.0034 48.8128 36.1513C49.1164 36.2171 49.4365 36.2417 49.7484 36.2335C50.4788 36.2171 51.1928 36.0445 51.8494 35.7321C51.8905 35.3869 51.9561 35.0416 52.0464 34.7046L52.0628 34.6306L52.6866 34.6142L52.5552 34.7786C52.4485 34.9266 52.3665 35.091 52.309 35.2554C52.7932 35.0499 53.2611 34.7868 53.696 34.4909C53.9012 34.2361 54.0489 33.9484 54.1228 33.6278C54.1064 33.6031 54.09 33.5703 54.0654 33.5456C53.4416 33.6196 51.8002 33.7264 51.2667 33.6525C51.2913 33.6278 51.4062 33.5703 51.4637 33.5374C52.4157 33.5209 53.3595 33.3483 54.2623 33.0277C54.4019 32.9702 54.5496 32.9291 54.6973 32.8962C55.3211 32.7154 55.9202 32.4524 56.4783 32.1071C56.4865 32.1071 56.4865 32.0989 56.4865 32.0989C56.4865 32.0989 56.4947 32.0907 56.4947 32.0825C56.4947 32.0742 56.4947 32.0742 56.4947 32.066C56.4947 32.0578 56.4947 32.0578 56.4865 32.0496C56.4865 32.0414 56.4783 32.0414 56.4783 32.0414C56.4783 32.0414 56.4701 32.0331 56.4619 32.0331C56.4537 32.0331 56.4537 32.0331 56.4454 32.0331C56.4372 32.0331 56.4372 32.0331 56.429 32.0414C55.4278 32.6167 54.7958 32.8222 54.0736 32.9538C53.4744 33.0195 52.7194 32.6743 52.7194 32.6743C53.6058 32.7894 54.9353 32.2797 55.953 31.7126C56.5357 31.4742 57.0856 31.1454 57.578 30.7426L57.5862 30.7344C57.5862 30.7262 57.5862 30.7262 57.5862 30.7179C57.5862 30.7097 57.5862 30.7097 57.5862 30.7015C57.5862 30.6933 57.5862 30.6933 57.578 30.6851L57.5698 30.6768C57.5616 30.6768 57.5616 30.6768 57.5534 30.6768C57.5452 30.6768 57.5452 30.6768 57.537 30.6768C57.5288 30.6768 57.5288 30.6768 57.5206 30.6851C57.1349 31.0056 56.7163 31.2769 56.2567 31.4906C55.6986 31.655 55.1159 31.6961 54.5414 31.6057C55.1569 31.5564 55.9612 31.1454 56.6014 30.7426C57.3318 30.3727 58.0212 29.937 58.6696 29.4356C58.6778 29.4274 58.686 29.4192 58.686 29.411C58.686 29.4028 58.686 29.3945 58.6778 29.3863C58.6696 29.3781 58.6614 29.3699 58.6532 29.3699C58.645 29.3699 58.6368 29.3699 58.6286 29.3781C58.1033 29.7809 57.5534 30.1425 56.9707 30.4631C56.5275 30.5535 56.0679 30.5535 55.6247 30.4631C56.5439 30.4056 57.2826 29.937 57.972 29.3617C58.5055 29.0164 59.0143 28.6219 59.4821 28.178L59.4903 28.1698C59.4903 28.1615 59.4903 28.1615 59.4903 28.1533C59.4903 28.1451 59.4903 28.1451 59.4903 28.1369C59.4903 28.1287 59.4821 28.1287 59.4821 28.1204L59.4739 28.1122C59.4657 28.1122 59.4657 28.1122 59.4575 28.1122C59.4493 28.1122 59.4493 28.1122 59.4411 28.1122C59.4329 28.1122 59.4329 28.1204 59.4247 28.1204C59.0143 28.5068 58.5711 28.8602 58.1115 29.1726C57.6355 29.337 57.1348 29.3863 56.6342 29.337C57.496 29.2548 58.1443 28.7287 58.6286 28.2437C59.0718 27.8903 59.4903 27.4957 59.8761 27.0765C59.8843 27.0683 59.8843 27.0601 59.8843 27.0518C59.8843 27.0436 59.8761 27.0354 59.8761 27.0272C59.8678 27.019 59.8596 27.019 59.8514 27.019C59.8432 27.019 59.835 27.019 59.8268 27.0272C59.5396 27.3395 59.2277 27.6437 58.9076 27.9232C58.645 28.0711 58.3495 28.1451 58.0459 28.1369C58.4562 28.0054 59.0882 27.4217 59.4985 26.8792C60.0648 26.2874 60.5737 25.6462 61.0086 24.9475C61.0086 24.9393 61.0169 24.9393 61.0169 24.9311C61.0169 24.9229 61.0169 24.9229 61.0169 24.9147C61.0169 24.9064 61.0169 24.9064 61.0086 24.8982C61.0086 24.89 61.0004 24.89 61.0004 24.89C60.9922 24.89 60.9922 24.8818 60.984 24.8818C60.9758 24.8818 60.9758 24.8818 60.9676 24.8818C60.9594 24.8818 60.9594 24.8818 60.9512 24.89C60.943 24.89 60.943 24.8982 60.943 24.8982C60.5326 25.5476 60.0566 26.1559 59.5396 26.7148C59.3262 26.7641 59.1046 26.797 58.883 26.8052C59.2769 26.6326 59.5067 26.1477 59.9663 25.4983C60.4095 25.0051 60.7953 24.4626 61.1153 23.8872C61.1235 23.8789 61.1235 23.8707 61.1153 23.8625C61.1153 23.8543 61.1071 23.8461 61.0989 23.8378C61.0907 23.8296 61.0825 23.8296 61.0743 23.8378C61.0661 23.8378 61.0579 23.8461 61.0497 23.8543C60.7953 24.3146 60.4998 24.7503 60.1633 25.153C60.0238 25.301 59.835 25.3914 59.638 25.4243C59.9663 25.0544 60.2372 24.6434 60.4506 24.1995C60.7706 23.7639 61.0415 23.2871 61.2467 22.7857C61.2467 22.7775 61.2467 22.7775 61.2467 22.7693C61.2467 22.761 61.2467 22.761 61.2467 22.7528C61.2467 22.7446 61.2384 22.7446 61.2384 22.7364C61.2384 22.7364 61.2302 22.7282 61.222 22.7282C61.2138 22.7282 61.2138 22.7282 61.2056 22.7282C61.1974 22.7282 61.1974 22.7282 61.1892 22.7282C61.181 22.7282 61.181 22.7364 61.1728 22.7364L61.1646 22.7446C60.9594 23.2625 60.6886 23.7392 60.3521 24.1831C60.229 24.2982 60.0894 24.3804 59.9335 24.4379C60.4013 23.9858 60.5655 23.3611 60.7214 22.8104C61.0333 22.3089 61.2631 21.7582 61.4518 21.1992Z" fill="black"/>
<path d="M32.2753 24.3474C32.6282 24.6187 32.6446 24.7749 32.5708 24.9146C32.4969 25.0544 32.3492 25.4078 32.6693 25.564C32.9319 25.6955 33.1863 25.1859 33.2602 24.8653C32.9565 24.479 32.6693 24.0844 32.3984 23.6734C32.3328 23.6981 32.2753 23.7309 32.2261 23.7885C32.1768 23.846 32.1522 23.9036 32.1358 23.9693C32.1194 24.0351 32.1276 24.1091 32.1522 24.1748C32.185 24.2488 32.2261 24.3063 32.2753 24.3474Z" fill="#005844"/>
<path d="M35.1148 27.3975C35.1476 27.4879 35.1887 27.5373 35.2051 27.5373C35.2461 27.3975 35.2461 27.2496 35.2051 27.1098C35.164 26.9701 35.082 26.8468 34.9753 26.7482C34.9178 26.6988 34.844 26.6742 34.7619 26.6577C34.688 26.6495 34.606 26.6577 34.5403 26.6906C34.8932 26.8304 35.0574 27.2414 35.1148 27.3975Z" fill="#005844"/>
<path d="M43.2564 33.7349C43.1989 33.0608 42.4931 33.7184 42.4931 33.7184C42.7639 33.9733 43.043 34.2034 43.3466 34.4254C43.4123 34.3925 43.4041 34.3925 43.4697 34.3596L43.4205 34.2692C43.3302 34.1048 43.2728 33.9239 43.2564 33.7349Z" fill="#005844"/>
<path d="M40.7863 34.1788C40.5155 34.1788 40.261 33.9815 40.0805 33.8253C40.0805 33.8253 39.9245 33.6691 39.8014 33.7678C39.7112 33.8417 39.7686 34.0472 39.8343 34.1623C39.9163 34.2774 39.9738 34.4007 40.023 34.524C40.1215 34.672 40.3595 34.8857 40.5319 34.8528C40.8355 34.8035 41.0325 34.6473 40.9504 34.1212C40.9012 34.1623 40.8438 34.1788 40.7863 34.1788Z" fill="#005844"/>
<path d="M31.6349 23.2626C31.3395 22.4406 30.9291 22.079 30.4695 21.668L30.4039 21.6104C30.3956 21.6022 30.3956 21.594 30.3874 21.5858C30.3874 21.5776 30.3874 21.5693 30.3956 21.5611C30.4039 21.5529 30.4121 21.5529 30.4203 21.5447C30.4285 21.5447 30.4367 21.5447 30.4449 21.5529L30.5105 21.6104C30.8963 21.9146 31.2164 22.2845 31.4626 22.7037C31.1261 21.7913 30.6747 20.92 30.1248 20.1226C30.1166 20.1144 30.1166 20.1062 30.1166 20.098C30.1166 20.0897 30.1248 20.0815 30.133 20.0733C30.1412 20.0651 30.1494 20.0651 30.1576 20.0651C30.1658 20.0651 30.1741 20.0733 30.1823 20.0815C30.8224 21.0679 31.3395 21.931 31.717 23.2873C32.0289 23.7394 31.7662 22.6379 31.7662 22.6379V22.6297C31.3149 21.8077 30.9455 20.9446 30.6501 20.0486L30.6419 20.0404C30.4777 19.5801 29.8622 18.7499 29.4846 19.2595C29.2302 19.5965 29.222 19.8596 29.7883 20.509C29.8294 20.5501 29.854 20.6076 29.8704 20.6569C29.8868 20.7145 29.8868 20.772 29.8786 20.8295C29.8704 20.8871 29.8458 20.9364 29.8129 20.9857C29.7801 21.035 29.7309 21.0679 29.6816 21.0926C29.0907 21.3556 29.2302 21.7091 29.4846 21.8899C29.657 22.0132 30.3546 22.49 30.3218 22.8763C30.289 23.2709 29.8376 23.3202 29.854 23.8134C29.8622 24.1257 30.1741 24.8738 30.9291 24.882C31.52 24.882 31.914 24.1257 31.6349 23.2626Z" fill="#005844"/>
<path d="M33.7444 25.4493C33.5802 25.4246 33.2519 25.4575 33.1453 25.5726C32.9811 25.7452 32.5707 25.9754 32.3656 25.5151C32.1276 24.989 31.9142 24.7095 31.3971 25.0054C30.8801 25.3013 31.1427 25.8521 31.3971 26.0822C31.6515 26.3288 31.988 26.6001 31.5448 26.8549C31.1837 27.0604 30.9457 27.0851 30.9457 27.3646C30.9457 27.57 31.036 27.866 31.8731 27.866C32.2014 27.866 32.5954 27.9153 32.579 28.2359C32.5543 28.6469 31.9798 28.5893 31.9798 28.8441C31.9716 29.1154 32.2589 29.3784 32.9565 29.4278C33.2109 29.4442 33.4653 29.3702 33.6787 29.2223C33.6623 29.1729 33.6541 29.1236 33.6541 29.0661C33.6623 28.8524 33.8265 28.7044 34.007 28.5647C34.0727 28.5153 34.0809 28.4825 34.0809 28.4825C34.0809 28.466 34.0645 28.3838 33.7936 28.1619C33.6787 28.0715 33.5884 27.9646 33.5228 27.8331C33.3422 27.6769 33.1617 27.5043 32.9811 27.3152C32.8662 27.3317 32.7513 27.3399 32.6364 27.3399C32.3327 27.3317 32.0209 27.2988 31.7254 27.233C31.7172 27.233 31.709 27.2248 31.7008 27.2166C31.6926 27.2084 31.6926 27.2002 31.6926 27.1919C31.6926 27.1837 31.7008 27.1755 31.709 27.1673C31.7172 27.1591 31.7254 27.1591 31.7336 27.1591C32.1194 27.2495 32.5215 27.2824 32.9155 27.2495C32.3984 26.6905 31.9388 26.0905 31.5448 25.4411C31.5366 25.4329 31.5366 25.4246 31.5366 25.4164C31.5366 25.4082 31.5448 25.4 31.5531 25.3918C31.5613 25.3835 31.5695 25.3835 31.5777 25.3835C31.5859 25.3835 31.5941 25.3918 31.6023 25.4C31.9962 26.0329 32.4476 26.6248 32.9483 27.1755C32.9237 26.7645 32.9319 26.3453 32.9893 25.9343C32.9893 25.9261 32.9893 25.9261 32.9975 25.9178C32.9975 25.9096 33.0057 25.9096 33.0057 25.9096C33.0057 25.9096 33.0139 25.9014 33.0221 25.9014C33.0304 25.9014 33.0304 25.9014 33.0386 25.9014C33.0468 25.9014 33.0468 25.9014 33.055 25.9096C33.0632 25.9096 33.0632 25.9178 33.0632 25.9178C33.0632 25.9178 33.0714 25.9261 33.0714 25.9343C33.0714 25.9425 33.0714 25.9425 33.0714 25.9507C33.0139 26.3864 33.0057 26.8303 33.0386 27.2659C33.1781 27.4139 33.3258 27.5536 33.4653 27.6851C33.4161 27.5125 33.4161 27.3317 33.49 27.1673C33.5556 27.0029 33.6787 26.8631 33.8347 26.7809C33.9824 26.6905 34.1465 26.6412 34.3107 26.633C34.3517 26.633 34.3845 26.633 34.4256 26.6412C34.4256 26.4521 34.4092 26.2549 34.3599 26.074C34.1301 25.8685 33.9331 25.663 33.7444 25.4493Z" fill="#005844"/>
<path d="M34.9756 27.4056C34.8197 27.0274 34.4503 26.526 33.8758 26.9041C33.4655 27.1754 33.4491 27.7097 33.8758 28.0549C34.237 28.3426 34.3354 28.4741 34.0482 28.6961C33.7609 28.918 33.6625 29.1317 34.0154 29.4359C34.3683 29.74 34.5981 29.9537 34.4503 30.1675C34.1959 30.5209 33.4983 30.6853 33.9169 31.0881C34.081 31.2607 34.2698 31.4087 34.475 31.5237C34.475 31.4991 34.475 31.4826 34.475 31.4498C34.4668 31.3676 34.475 31.2771 34.4996 31.2032C34.5242 31.121 34.5652 31.047 34.6227 30.9812C34.6637 30.9401 34.713 30.9073 34.7622 30.8826C34.8197 30.8579 34.8771 30.8497 34.9346 30.8497C35.0249 30.8497 35.1151 30.8744 35.1972 30.9237C35.2957 30.9895 35.4106 31.0306 35.5337 31.0306C35.624 31.0306 35.706 31.0059 35.7799 30.9648C35.8456 30.9237 35.8866 30.8579 35.9112 30.784C35.5911 30.7182 35.2793 30.6113 34.992 30.4552C34.9838 30.4552 34.9838 30.4469 34.9756 30.4469C34.9756 30.4469 34.9674 30.4387 34.9674 30.4305C34.9674 30.4223 34.9674 30.4223 34.9674 30.4141C34.9674 30.4058 34.9674 30.4058 34.9674 30.3976C34.9674 30.3894 34.9756 30.3894 34.9756 30.3894C34.9756 30.3894 34.9838 30.3812 34.992 30.3812C35.0002 30.3812 35.0002 30.3812 35.0084 30.3812C35.0166 30.3812 35.0166 30.3812 35.0249 30.3894C35.3039 30.5374 35.6076 30.6442 35.9112 30.71C35.9194 30.71 35.9194 30.71 35.9276 30.7182V30.71C35.9441 30.6031 35.9687 30.488 36.0097 30.3894C36.0097 30.3894 36.0015 30.3894 36.0015 30.3812C35.8456 30.0031 35.6568 29.6332 35.4434 29.2797C35.2382 29.1975 35.0249 29.14 34.8115 29.1153C34.6227 29.0824 34.4093 29.0413 34.2041 28.992C34.1959 28.992 34.1959 28.992 34.1877 28.9838C34.1795 28.9838 34.1795 28.9756 34.1795 28.9756C34.1795 28.9673 34.1713 28.9673 34.1713 28.9591C34.1713 28.9509 34.1713 28.9509 34.1713 28.9427C34.1713 28.9345 34.1713 28.9345 34.1795 28.9262L34.1877 28.918C34.1959 28.918 34.1959 28.918 34.2041 28.9098C34.2123 28.9098 34.2123 28.9098 34.2205 28.9098C34.4257 28.9591 34.6391 29.0002 34.8279 29.0331C35.0166 29.0578 35.1972 29.0989 35.3778 29.1564C34.9838 28.5399 34.5488 27.9399 34.081 27.3809C34.081 27.3809 34.0728 27.3727 34.0728 27.3645C34.0728 27.3562 34.0728 27.3562 34.0728 27.348C34.0728 27.3398 34.0728 27.3398 34.081 27.3316C34.081 27.3234 34.0892 27.3234 34.0892 27.3234C34.0892 27.3234 34.0974 27.3151 34.1056 27.3151C34.1139 27.3151 34.1139 27.3151 34.1221 27.3151C34.1303 27.3151 34.1303 27.3151 34.1385 27.3234C34.1467 27.3234 34.1467 27.3316 34.1467 27.3316C34.6227 27.8988 35.0577 28.4906 35.4516 29.1153C35.4598 28.5646 35.5255 28.0631 35.6158 27.8905C35.624 27.8823 35.6322 27.8741 35.6404 27.8741C35.6486 27.8741 35.6568 27.8741 35.665 27.8741C35.6732 27.8823 35.6814 27.8905 35.6814 27.8988C35.6814 27.907 35.6814 27.9152 35.6814 27.9234C35.6076 28.0714 35.5255 28.5728 35.5255 29.2304C35.7307 29.5674 35.903 29.9209 36.059 30.2825C36.1246 30.1757 36.2067 30.0853 36.3134 30.0195C36.3708 29.9784 36.4365 29.9537 36.5021 29.9373V29.3455C36.5021 29.3372 36.5021 29.329 36.5104 29.3208C36.5186 29.3126 36.5268 29.3126 36.535 29.3126C36.5432 29.3126 36.5514 29.3126 36.5596 29.3208C36.5678 29.329 36.5678 29.3372 36.5678 29.3455V29.9291C36.5842 29.9291 36.5924 29.9291 36.6088 29.9291C37.0192 29.9291 37.528 30.3401 37.8317 30.7264C37.9138 30.71 37.9877 30.7018 38.0697 30.7018C38.2831 30.7018 38.3324 30.6771 38.3652 30.5867C38.4062 30.4634 38.3652 30.4141 37.9056 30.2003C37.8481 30.1757 37.7825 30.1428 37.7168 30.1099C37.6101 30.0688 37.5198 30.0031 37.446 29.9209C37.3721 29.8387 37.3147 29.74 37.29 29.6249C37.2736 29.5181 37.2736 29.403 37.2982 29.2961C37.3229 29.1893 37.3721 29.0906 37.4296 29.0002C37.2982 28.7043 37.0931 28.4824 36.6499 28.5646C36.4447 28.6057 36.1739 28.6796 36.0836 28.2358C35.9933 27.7837 35.8538 27.3727 35.5255 27.57C35.2957 27.7508 35.1233 27.7837 34.9756 27.4056Z" fill="#005844"/>
<path d="M41.7546 31.4579C41.8203 31.0962 41.7136 30.1673 40.9667 30.4468C40.3758 30.6687 40.2855 30.6276 40.2445 30.2413C40.2034 29.855 39.7521 29.6577 39.3745 29.6659C39.0052 29.6741 39.0134 29.7646 38.8739 29.5426C38.7344 29.3207 37.8726 28.8768 37.8726 28.8768C37.7741 28.8932 37.6838 28.9426 37.61 29.0165C37.4048 29.2796 37.2406 29.7563 37.7249 29.9865C38.2173 30.2167 38.5948 30.2249 38.4963 30.603C38.3732 31.0633 37.8562 30.6934 37.7331 31.0386C37.6592 31.2524 37.9711 31.836 38.5128 31.6387C38.9888 31.4661 39.6454 31.425 39.6782 31.8031C39.7274 32.4032 38.5456 32.3538 39.1447 33.0525C39.432 33.3813 40.0885 33.3156 40.5481 33.2498C40.7615 33.2005 40.9503 33.0772 41.0734 32.8964C41.0406 32.732 40.9995 32.5676 40.9421 32.4114C40.4907 32.2716 40.2117 32.2552 39.9736 32.3621C39.9654 32.3621 39.9572 32.3621 39.949 32.3621C39.9408 32.3621 39.9326 32.3538 39.9244 32.3456C39.9244 32.3374 39.9162 32.3292 39.9244 32.3127C39.9244 32.3045 39.9326 32.2963 39.9408 32.2881C40.2281 32.1648 40.5317 32.2059 40.9011 32.3127C40.6384 31.6716 40.1788 31.2935 39.7028 30.9564C39.4156 31.014 39.1283 31.0469 38.8328 31.0551C38.7836 31.0551 38.7344 31.0551 38.6851 31.0469C38.6769 31.0469 38.6769 31.0469 38.6687 31.0469C38.6605 31.0469 38.6605 31.0386 38.6605 31.0386C38.6605 31.0386 38.6523 31.0304 38.6523 31.0222C38.6523 31.014 38.6523 31.014 38.6523 31.0058C38.6523 30.9975 38.6605 30.9893 38.6687 30.9811C38.6769 30.9729 38.6851 30.9729 38.6933 30.9729C39.0052 30.9811 39.3089 30.9564 39.6125 30.8989L39.514 30.8249C38.9888 30.4633 38.4471 30.0851 38.1681 29.3864C38.1681 29.3782 38.1681 29.37 38.1681 29.3536C38.1681 29.3453 38.1763 29.3371 38.1927 29.3371C38.2009 29.3371 38.2091 29.3371 38.2255 29.3371C38.2337 29.3371 38.2419 29.3453 38.2419 29.3618C38.5128 30.0358 39.0216 30.3893 39.5633 30.7674C39.6125 30.8003 39.6618 30.8331 39.711 30.866C39.711 30.5619 39.6454 30.2578 39.5305 29.9783C39.5305 29.9701 39.5305 29.9701 39.5222 29.9618C39.5222 29.9536 39.5222 29.9536 39.5222 29.9454C39.5222 29.9372 39.5222 29.9372 39.5305 29.929L39.5387 29.9207C39.5469 29.9207 39.5469 29.9207 39.5551 29.9125C39.5633 29.9125 39.5633 29.9125 39.5715 29.9125C39.5797 29.9125 39.5797 29.9125 39.5879 29.9207L39.5961 29.929C39.7274 30.2331 39.7931 30.5701 39.7849 30.8989V30.9071C40.2281 31.2195 40.6548 31.5729 40.9257 32.1483C40.9175 32.0579 40.9011 31.9428 40.8846 31.8278C40.8354 31.5565 40.8108 31.2852 40.8026 31.0058C40.8026 30.9975 40.8026 30.9975 40.8026 30.9893C40.8026 30.9811 40.8108 30.9811 40.8108 30.9811L40.819 30.9729C40.8272 30.9729 40.8272 30.9729 40.8354 30.9729C40.8436 30.9729 40.8436 30.9729 40.8518 30.9729C40.86 30.9729 40.86 30.9811 40.86 30.9811L40.8682 30.9893C40.8682 30.9975 40.8682 30.9975 40.8682 31.0058C40.8764 31.277 40.9093 31.5483 40.9503 31.8195C40.9831 31.9922 40.9995 32.173 41.0078 32.3538C41.0652 32.5018 41.1062 32.6498 41.1391 32.7977C41.1637 32.7566 41.1883 32.7155 41.2047 32.6662C41.3114 32.4196 41.4345 32.1483 41.5412 31.9264C41.6561 31.7867 41.7136 31.6223 41.7546 31.4579Z" fill="#005844"/>
<path d="M40.8436 33.3238C40.5727 33.4224 40.2773 33.4635 39.99 33.4553C39.5961 33.4553 39.3088 33.3649 39.1036 33.1676C39.0954 33.1594 39.079 33.143 39.0708 33.1347C38.9805 33.2252 38.8903 33.3238 38.8164 33.4307C38.8082 33.8088 38.8985 34.1787 39.079 34.5075C39.0872 34.5157 39.0872 34.5239 39.0872 34.5321C39.0872 34.5404 39.079 34.5486 39.0708 34.5568C39.0626 34.565 39.0544 34.565 39.0462 34.565C39.038 34.565 39.0298 34.5568 39.0216 34.5486C38.841 34.2362 38.7507 33.8828 38.7507 33.5293C38.3568 34.1376 38.1188 34.8281 38.0613 35.5432C38.0613 35.5514 38.0531 35.5596 38.0531 35.5678C38.0449 35.5761 38.0367 35.5761 38.0285 35.5761C38.0203 35.5761 38.0121 35.5678 38.0039 35.5596C37.9957 35.5514 37.9957 35.5432 37.9957 35.535C38.0531 34.8363 38.2829 34.1622 38.6523 33.5622C38.4635 33.6937 38.1434 33.9239 37.9546 34.0883C37.9464 34.0965 37.9382 34.0965 37.93 34.0965C37.9218 34.0965 37.9136 34.0883 37.9054 34.08C37.8972 34.0718 37.8972 34.0636 37.8972 34.0554C37.8972 34.0472 37.8972 34.0389 37.9054 34.0307C38.1926 33.7841 38.7425 33.406 38.7754 33.3813C38.8574 33.2745 38.9477 33.1676 39.0462 33.069C38.997 33.0197 38.9559 32.9539 38.9313 32.8881C38.9067 32.8224 38.8903 32.7484 38.8985 32.6744C38.9231 32.4443 39.1201 32.3045 39.3006 32.1895C39.3581 32.1484 39.4073 32.1155 39.4566 32.0826C39.3991 32.0168 39.3581 31.9675 39.3252 31.9346C39.2432 31.8607 39.1447 31.8031 39.0462 31.762C38.9395 31.7291 38.8328 31.7127 38.7179 31.7209C38.6933 31.7291 38.6769 31.7291 38.6523 31.7374C38.5784 31.762 38.4963 31.7867 38.4142 31.7867C38.1762 31.91 38.2665 32.1648 38.4389 32.2634C38.4881 32.2881 38.5374 32.3292 38.562 32.3785C38.5948 32.4278 38.6112 32.4854 38.6112 32.5429C38.6112 32.6004 38.5948 32.658 38.5702 32.7073C38.5456 32.7566 38.4963 32.7977 38.4471 32.8306C38.1598 33.0197 37.8315 33.1347 37.4868 33.1676C37.019 33.2498 36.822 33.4389 36.8056 33.669C36.7728 34.1787 37.3965 33.9896 37.5689 34.1787C37.6181 34.2362 37.651 34.2938 37.6756 34.3677C37.7002 34.4335 37.7084 34.5075 37.7002 34.5815C37.692 34.6554 37.6756 34.7212 37.6346 34.787C37.6017 34.8527 37.5525 34.902 37.495 34.9514C37.4294 35.0089 37.3719 35.0829 37.3391 35.1733C37.3063 35.2555 37.2816 35.3459 37.2899 35.4363C37.2899 35.5267 37.3145 35.6172 37.3555 35.6994C37.3965 35.7816 37.454 35.8555 37.5197 35.9131C37.8233 36.1597 38.3896 36.0199 38.4799 35.6007C38.562 35.1897 38.4471 34.9349 38.7507 34.8281C39.0544 34.7212 39.3827 35.239 39.8013 34.9678C40.2198 34.6965 39.6617 34.2855 39.6453 33.9239C39.6289 33.5622 39.9736 33.48 40.187 33.669C40.4004 33.8581 40.7205 34.1622 40.9667 33.9485C41.1308 33.8006 41.0898 33.5211 40.8436 33.3238Z" fill="#005844"/>
<path d="M45.8007 34.4337C46.0716 34.1049 46.047 33.5131 45.4068 33.2007C44.8323 32.9212 45.9238 32.5267 45.5381 32.1157C45.1524 31.6965 44.9226 31.902 44.2496 31.8609C43.5766 31.8198 44.0444 31.2937 43.6504 30.8169C43.4617 30.5868 43.1744 30.6032 42.8626 30.7594C42.5096 30.9813 41.8367 31.754 41.492 32.4609C41.6807 32.4198 41.8613 32.3869 42.0254 32.3541C42.5096 32.1239 42.9528 31.8115 43.3386 31.4416C43.3468 31.4334 43.355 31.4334 43.3632 31.4252C43.3714 31.4252 43.3796 31.4252 43.3878 31.4334C43.396 31.4416 43.396 31.4499 43.396 31.4581C43.396 31.4663 43.396 31.4745 43.3878 31.4827C43.0595 31.8115 42.682 32.0828 42.2716 32.3047C42.8297 32.2143 43.2401 32.2143 43.634 32.3705C43.9541 32.4609 44.8323 32.5842 45.177 32.4363C45.1852 32.4363 45.1934 32.428 45.2098 32.4363C45.218 32.4363 45.2262 32.4445 45.2344 32.4527C45.2344 32.4609 45.2344 32.4691 45.2344 32.4856C45.2344 32.4938 45.2262 32.502 45.218 32.5102C44.9226 32.6335 44.307 32.576 43.9131 32.5102C44.2988 32.7486 44.701 33.1678 45.2344 33.8337C45.2426 33.8419 45.2426 33.8501 45.2426 33.8583C45.2426 33.8665 45.2344 33.8748 45.2262 33.883C45.218 33.8912 45.2098 33.8912 45.2016 33.8912C45.1934 33.8912 45.1852 33.883 45.177 33.8748C44.6517 33.2089 44.2578 32.8062 43.872 32.5678C44.1675 32.8719 44.1593 33.1103 44.1429 33.4144C44.1429 33.4227 44.1347 33.4309 44.1347 33.4391C44.1265 33.4473 44.1183 33.4473 44.1101 33.4473C44.1018 33.4473 44.0936 33.4391 44.0854 33.4309C44.0772 33.4227 44.0772 33.4144 44.0772 33.4062C44.0936 33.0445 44.1018 32.8144 43.6176 32.4363C43.2073 32.2719 42.7805 32.2883 42.1732 32.3952C42.3701 32.4938 42.5261 32.6418 42.641 32.8226C42.641 32.8308 42.6492 32.8308 42.6492 32.839C42.6492 32.8473 42.6492 32.8473 42.6492 32.8555C42.6492 32.8637 42.6492 32.8637 42.641 32.8719L42.6328 32.8801C42.6245 32.8801 42.6245 32.8884 42.6163 32.8884C42.6081 32.8884 42.6081 32.8884 42.5999 32.8884C42.5917 32.8884 42.5917 32.8884 42.5835 32.8801L42.5753 32.8719C42.4522 32.6746 42.2634 32.5185 42.0418 32.428C41.8613 32.4609 41.6725 32.502 41.4673 32.5513C41.3771 32.7404 41.3196 32.9377 41.295 33.1432C41.3032 33.2336 41.336 33.324 41.3771 33.4062C41.4263 33.4884 41.4837 33.5624 41.5576 33.6117C42.3127 34.1871 42.3783 33.3816 43.0185 33.3076C43.5355 33.25 43.3222 33.7679 43.5684 34.2036C43.8146 34.631 44.1101 34.2857 44.2988 34.146C44.4876 34.0063 44.6025 33.9076 44.7995 34.3022C44.8487 34.3926 44.9144 34.4666 44.9964 34.5323C45.0785 34.5899 45.177 34.631 45.2755 34.6392C45.374 34.6556 45.4807 34.6392 45.5791 34.6063C45.6448 34.5652 45.7351 34.5077 45.8007 34.4337Z" fill="#005844"/>
<path d="M37.5278 33.0281C37.9628 32.9541 38.3403 32.8144 38.3403 32.5678C38.3403 32.4034 38.0613 32.313 38.1352 31.9924C38.1352 31.9266 38.1269 31.8691 38.1023 31.8033C38.0941 31.8033 38.0859 31.8116 38.0777 31.8033C37.8397 31.754 37.5935 31.7211 37.3473 31.7129C37.06 31.9184 36.8138 32.1732 36.6004 32.4527C36.6004 32.4609 36.5922 32.4609 36.584 32.4609C36.5758 32.4609 36.5758 32.4609 36.5676 32.4609C36.5594 32.4609 36.5512 32.4609 36.543 32.4527L36.5347 32.4445C36.5347 32.4445 36.5265 32.4363 36.5265 32.428C36.5265 32.4198 36.5265 32.4198 36.5265 32.4116C36.5265 32.4034 36.5265 32.4034 36.5347 32.3952C36.7317 32.1321 36.9615 31.902 37.2159 31.6965C36.7974 31.7129 36.387 31.7951 35.9931 31.9513C35.8371 32.2637 35.632 32.5513 35.3939 32.8062C35.3939 32.8062 35.3857 32.8144 35.3775 32.8144C35.3693 32.8144 35.3693 32.8144 35.3611 32.8144C35.3529 32.8144 35.3529 32.8144 35.3447 32.8062C35.3365 32.8062 35.3365 32.7979 35.3365 32.7979C35.3365 32.7979 35.3283 32.7897 35.3283 32.7815C35.3283 32.7733 35.3283 32.7733 35.3283 32.7651C35.3283 32.7568 35.3283 32.7568 35.3365 32.7486C35.3365 32.7404 35.3447 32.7404 35.3447 32.7404C35.5581 32.5102 35.7469 32.2554 35.8946 31.976C35.5088 32.1239 35.0985 32.2061 34.6881 32.2143C34.5732 32.2143 34.4665 32.2061 34.3516 32.1979C34.3434 32.1979 34.3352 32.1897 34.327 32.1814C34.3188 32.1732 34.3188 32.165 34.3188 32.1568C34.3188 32.1486 34.327 32.1403 34.3352 32.1321C34.3434 32.1239 34.3516 32.1239 34.3598 32.1239C34.8277 32.1732 35.3037 32.1157 35.7387 31.9513C35.6073 31.902 35.476 31.8362 35.3611 31.7622C35.2462 31.6965 35.1231 31.6307 35 31.5732C34.9918 31.5732 34.9918 31.565 34.9918 31.565L34.9836 31.5567C34.9836 31.5485 34.9836 31.5485 34.9836 31.5403C34.9836 31.5321 34.9836 31.5321 34.9836 31.5239C34.9836 31.5156 34.9918 31.5074 35 31.5074C35.0082 31.5074 35.0164 31.5074 35.0246 31.5074C35.1559 31.565 35.279 31.6307 35.3939 31.6965C35.5417 31.8033 35.7058 31.8691 35.8864 31.902L35.9356 31.8855C36.3378 31.7294 36.7645 31.6389 37.1995 31.6225C36.9205 31.4499 36.4116 31.1293 36.4116 31.1293C36.4034 31.1211 36.3952 31.1129 36.3952 31.1046C36.3952 31.0964 36.3952 31.0882 36.4034 31.08C36.4116 31.0718 36.4198 31.0635 36.4281 31.0635C36.4363 31.0635 36.4445 31.0635 36.4527 31.0718C36.4609 31.08 37.1257 31.5074 37.3473 31.6307C37.5606 31.6389 37.7658 31.6636 37.971 31.6965C37.8807 31.6472 37.7987 31.565 37.7412 31.4828C37.6838 31.4088 37.6427 31.3184 37.6181 31.2279C37.6017 31.1375 37.6017 31.0389 37.6181 30.9402C37.6509 30.8909 37.6838 30.8416 37.7248 30.8005C37.3883 30.3813 36.7235 29.9292 36.4198 30.1429C35.9356 30.4799 36.1818 30.8827 35.8618 31.0553C35.7469 31.1211 35.6237 31.154 35.4924 31.1457C35.3611 31.1375 35.238 31.0964 35.1313 31.0224C35.0739 30.9896 35.0082 30.9731 34.9426 30.9731C34.8769 30.9731 34.8112 30.9978 34.762 31.0307C34.7045 31.0635 34.6635 31.1211 34.6389 31.1786C34.6143 31.2362 34.5979 31.3019 34.6061 31.3677C34.6143 31.754 34.6799 31.754 34.3516 31.7869C34.048 31.8198 33.457 31.8609 33.3668 32.3376C33.2765 32.8144 33.7525 32.9623 33.9167 32.9706C34.3106 32.9952 34.6881 32.6829 34.8194 33.0281C34.9508 33.3651 34.959 33.6282 35.2052 33.6199C35.7222 33.6035 35.7797 33.0281 36.1654 33.0034C36.3378 32.9952 36.6086 33.1925 36.7481 33.3651C36.863 33.2172 37.101 33.1021 37.5278 33.0281Z" fill="#005844"/>
<path d="M48.4597 35.1157C47.6308 34.8363 46.5639 34.3759 46.5639 34.3759C46.4736 34.4746 46.3587 34.5486 46.2356 34.5814C46.7773 34.8445 47.8278 35.3212 47.8278 35.3212C47.9345 35.1486 48.312 35.0911 48.4597 35.1157Z" fill="#005844"/>
<path d="M47.5404 35.7732C46.5638 35.6746 46.0139 36.1842 46.4981 36.2418C47.4584 36.3651 48.0903 35.8226 47.5404 35.7732Z" fill="#005844"/>
<path d="M48.8043 35.2882C48.3611 35.1238 47.8276 35.428 48.1067 35.5759C48.4842 35.7732 49.2475 35.4608 48.8043 35.2882Z" fill="#005844"/>
<path d="M47.2039 35.6008C46.851 35.4447 46.1534 35.1405 45.505 34.8282C45.267 34.9515 45.0454 35.0912 44.832 35.2474C45.3901 35.5433 45.9318 35.8557 46.1288 35.9707C46.2683 35.831 46.4406 35.7241 46.6212 35.6584C46.81 35.5926 47.0151 35.5762 47.2039 35.6008Z" fill="#005844"/>
<path d="M45.1852 3.8147e-06C42.165 3.8147e-06 39.2104 0.895978 36.699 2.58107C34.1876 4.26616 32.2261 6.64994 31.0689 9.44472C29.9117 12.2395 29.608 15.3138 30.1989 18.2894C30.7898 21.2568 32.2425 23.9858 34.3764 26.123C36.5102 28.2602 39.235 29.7233 42.1978 30.3069C45.1606 30.8988 48.2301 30.5946 51.0206 29.4356C53.811 28.2766 56.1993 26.312 57.8736 23.7967C59.556 21.2814 60.4506 18.3223 60.4506 15.2973C60.4506 13.2917 60.0567 11.2942 59.2852 9.44472C58.5137 7.58701 57.3893 5.90192 55.9777 4.47987C54.5579 3.05782 52.8754 1.93169 51.0206 1.15902C49.1739 0.394561 47.1878 3.8147e-06 45.1852 3.8147e-06Z" fill="#AA8A00"/>
<path d="M59.3733 15.3294C59.391 7.48467 53.0596 1.11092 45.2316 1.0932C37.4036 1.07547 31.0434 7.42047 31.0257 15.2652C31.008 23.1099 37.3394 29.4836 45.1674 29.5013C52.9954 29.5191 59.3556 23.174 59.3733 15.3294Z" fill="#00B5E2"/>
<path d="M45.2015 27.3312C51.8329 27.3312 57.2087 21.9471 57.2087 15.3055C57.2087 8.66381 51.8329 3.27968 45.2015 3.27968C38.5702 3.27968 33.1944 8.66381 33.1944 15.3055C33.1944 21.9471 38.5702 27.3312 45.2015 27.3312Z" fill="#EF3340"/>
<path d="M55.0323 15.3607C55.0673 9.92208 50.6936 5.48484 45.2634 5.44983C39.8332 5.41483 35.4028 9.79532 35.3679 15.2339C35.3329 20.6726 39.7066 25.1098 45.1368 25.1448C50.567 25.1798 54.9974 20.7993 55.0323 15.3607Z" fill="#509E2F"/>
<path d="M44.9306 30.8827C45.1193 31.0718 45.2507 31.3101 45.2999 31.5814C45.5707 31.417 45.9647 30.9813 45.8334 30.7841C45.7431 30.6279 45.2671 30.6608 44.9306 30.8827Z" fill="#AA8A00"/>
<path d="M44.4793 31.1456C44.4628 31.1456 44.4464 31.1539 44.4299 31.1621C44.4135 31.1703 44.4053 31.1868 44.397 31.2033C44.3888 31.2197 44.3888 31.2362 44.3888 31.2609C44.3888 31.2774 44.4053 31.2938 44.4135 31.3103C44.4299 31.3268 44.4464 31.335 44.4628 31.335C44.4793 31.335 44.5039 31.335 44.5204 31.3268C44.5368 31.3185 44.5533 31.3103 44.5615 31.2938C44.5697 31.2774 44.5779 31.2609 44.5779 31.2444C44.5779 31.2197 44.5697 31.195 44.5533 31.1786C44.5286 31.1621 44.5039 31.1456 44.4793 31.1456Z" fill="#AA8A00"/>
<path d="M44.8322 30.9566C44.8322 30.9401 44.824 30.9237 44.8157 30.9072C44.8075 30.8907 44.7911 30.8825 44.7746 30.8743C44.7582 30.866 44.7418 30.866 44.7171 30.866C44.7006 30.866 44.6842 30.8825 44.6678 30.8907C44.6513 30.9072 44.6431 30.9237 44.6431 30.9401C44.6431 30.9566 44.6431 30.9813 44.6513 30.9978C44.6595 31.0143 44.6678 31.0307 44.6842 31.039C44.7006 31.0472 44.7171 31.0554 44.7335 31.0554C44.75 31.0554 44.7582 31.0554 44.7664 31.0472C44.7746 31.039 44.7911 31.039 44.7993 31.0307C44.8075 31.0225 44.8157 31.0143 44.8157 30.9978C44.8322 30.9813 44.8322 30.9649 44.8322 30.9566Z" fill="#AA8A00"/>
<path d="M44.7995 31.1863C44.783 31.1863 44.7666 31.1946 44.7502 31.2028C44.7337 31.2111 44.7255 31.2275 44.7173 31.244C44.709 31.2605 44.709 31.2769 44.709 31.3016C44.709 31.3181 44.7255 31.3346 44.7337 31.351C44.7502 31.3675 44.7666 31.3757 44.783 31.3757C44.7995 31.3757 44.8241 31.3757 44.8406 31.3675C44.857 31.3593 44.8735 31.351 44.8817 31.3346C44.8899 31.3181 44.8981 31.3016 44.8981 31.2852C44.8981 31.2687 44.8981 31.2605 44.8899 31.2522C44.8817 31.244 44.8817 31.2275 44.8735 31.2193C44.8653 31.2111 44.857 31.2028 44.8406 31.2028C44.8241 31.1863 44.8077 31.1863 44.7995 31.1863Z" fill="#AA8A00"/>
<path d="M45.0292 31.4166C45.0128 31.4166 44.9963 31.4248 44.9799 31.4331C44.9634 31.4413 44.9552 31.4578 44.947 31.4742C44.9388 31.4907 44.9388 31.5072 44.9388 31.5319C44.9388 31.5484 44.9552 31.5648 44.9634 31.5813C44.9799 31.5978 44.9963 31.606 45.0128 31.606C45.0292 31.606 45.0539 31.606 45.0703 31.5978C45.0868 31.5895 45.1032 31.5813 45.1114 31.5648C45.1197 31.5484 45.1279 31.5319 45.1279 31.5154C45.1279 31.4907 45.1197 31.466 45.1032 31.4495C45.0785 31.4331 45.0539 31.4166 45.0292 31.4166Z" fill="#AA8A00"/>
<path d="M44.709 31.4659C44.6926 31.4659 44.6761 31.4742 44.6597 31.4824C44.6433 31.4906 44.635 31.5071 44.6268 31.5236C44.6186 31.54 44.6186 31.5565 44.6186 31.5812C44.6186 31.5977 44.635 31.6141 44.6433 31.6306C44.6597 31.6471 44.6761 31.6553 44.6926 31.6553C44.709 31.6553 44.7337 31.6553 44.7501 31.6471C44.7666 31.6388 44.783 31.6306 44.7912 31.6141C44.7995 31.5977 44.8077 31.5812 44.8077 31.5647C44.8077 31.54 44.7995 31.5153 44.783 31.4989C44.7584 31.4824 44.7337 31.4659 44.709 31.4659Z" fill="#AA8A00"/>
<path d="M41.4507 34.45C41.2455 34.6473 41.1224 35.0501 41.3112 35.1734C41.541 35.3213 41.9349 34.8939 41.9349 34.8939C41.8118 34.713 41.6477 34.5651 41.4507 34.45Z" fill="#AA8A00"/>
<path d="M41.8617 34.2697C41.8617 34.2532 41.8534 34.2367 41.8452 34.2203C41.837 34.2038 41.8205 34.1956 41.8041 34.1873C41.7877 34.1791 41.7712 34.1791 41.7466 34.1791C41.7301 34.1791 41.7137 34.1956 41.6972 34.2038C41.6808 34.2203 41.6726 34.2367 41.6726 34.2532C41.6726 34.2697 41.6726 34.2944 41.6808 34.3108C41.689 34.3273 41.6972 34.3438 41.7137 34.352C41.7301 34.3602 41.7466 34.3685 41.763 34.3685C41.7877 34.3685 41.8123 34.3602 41.8288 34.3438C41.8534 34.3191 41.8617 34.2944 41.8617 34.2697Z" fill="#AA8A00"/>
<path d="M42.0745 34.1705C42.0581 34.1705 42.0416 34.1787 42.0252 34.1869C42.0087 34.1952 42.0005 34.2116 41.9923 34.2281C41.9841 34.2446 41.9841 34.261 41.9841 34.2857C41.9841 34.3022 42.0005 34.3187 42.0087 34.3352C42.0252 34.3516 42.0416 34.3599 42.0581 34.3599C42.0745 34.3599 42.0992 34.3599 42.1156 34.3516C42.1321 34.3434 42.1485 34.3352 42.1567 34.3187C42.1649 34.3022 42.1732 34.2857 42.1732 34.2693C42.1732 34.2446 42.1649 34.2199 42.1485 34.2034C42.1238 34.1869 42.0992 34.1705 42.0745 34.1705Z" fill="#AA8A00"/>
<path d="M42.0336 34.491C42.0172 34.491 42.0007 34.4992 41.9843 34.5075C41.9678 34.5157 41.9596 34.5322 41.9514 34.5487C41.9432 34.5651 41.9432 34.5816 41.9432 34.6063C41.9432 34.6228 41.9596 34.6392 41.9678 34.6557C41.9843 34.6722 42.0007 34.6804 42.0172 34.6804C42.0336 34.6804 42.0583 34.6804 42.0747 34.6722C42.0912 34.6639 42.1076 34.6557 42.1158 34.6392C42.124 34.6228 42.1323 34.6063 42.1323 34.5898C42.1323 34.5734 42.1323 34.5651 42.124 34.5569C42.1158 34.5487 42.1158 34.5322 42.1076 34.5239C42.0994 34.5157 42.0912 34.5075 42.0747 34.5075C42.0583 34.491 42.0501 34.491 42.0336 34.491Z" fill="#AA8A00"/>
<path d="M35.5088 33.8337C35.2872 34.2694 35.3365 34.7872 35.4842 34.9105C35.673 35.0667 36.2557 34.4009 36.3213 34.2118C36.1079 33.9981 35.8125 33.8584 35.5088 33.8337Z" fill="#AA8A00"/>
<path d="M35.8451 33.6282C35.8451 33.6447 35.8533 33.6612 35.8616 33.6776C35.8698 33.6941 35.8862 33.7023 35.9027 33.7106C35.9191 33.7188 35.9355 33.7188 35.9602 33.7188C35.9767 33.7188 35.9931 33.7023 36.0095 33.6941C36.026 33.6776 36.0342 33.6612 36.0342 33.6447C36.0342 33.6282 36.0342 33.6035 36.026 33.5871C36.0178 33.5706 36.0095 33.5541 35.9931 33.5459C35.9767 33.5377 35.9602 33.5294 35.9438 33.5294C35.9191 33.5294 35.8944 33.5377 35.878 33.5541C35.8533 33.5871 35.8451 33.6035 35.8451 33.6282Z" fill="#AA8A00"/>
<path d="M36.124 33.5544C36.124 33.5709 36.1323 33.5873 36.1405 33.6038C36.1487 33.6203 36.1651 33.6285 36.1816 33.6368C36.198 33.645 36.2145 33.645 36.2391 33.645C36.2556 33.645 36.272 33.6285 36.2885 33.6203C36.3049 33.6038 36.3131 33.5873 36.3131 33.5709C36.3131 33.5544 36.3131 33.5297 36.3049 33.5132C36.2967 33.4968 36.2885 33.4803 36.272 33.4721C36.2556 33.4638 36.2391 33.4556 36.2227 33.4556C36.198 33.4556 36.1734 33.4638 36.1569 33.4803C36.1323 33.505 36.124 33.5297 36.124 33.5544Z" fill="#AA8A00"/>
<path d="M36.3048 33.7595C36.2883 33.7595 36.2719 33.7677 36.2554 33.7759C36.239 33.7842 36.2308 33.8006 36.2225 33.8171C36.2143 33.8336 36.2143 33.85 36.2143 33.8747C36.2143 33.8912 36.2308 33.9077 36.239 33.9241C36.2554 33.9406 36.2719 33.9489 36.2883 33.9489C36.3048 33.9489 36.3294 33.9489 36.3459 33.9406C36.3623 33.9324 36.3788 33.9241 36.387 33.9077C36.3952 33.8912 36.4034 33.8747 36.4034 33.8583C36.4034 33.8336 36.3952 33.8089 36.3788 33.7924C36.3541 33.7677 36.3294 33.7595 36.3048 33.7595Z" fill="#AA8A00"/>
<path d="M36.5926 33.7764C36.5761 33.7764 36.5597 33.7846 36.5432 33.7928C36.5268 33.8011 36.5186 33.8175 36.5104 33.834C36.5021 33.8505 36.5021 33.8669 36.5021 33.8916C36.5021 33.9081 36.5186 33.9246 36.5268 33.941C36.5432 33.9575 36.5597 33.9657 36.5761 33.9657C36.5926 33.9657 36.6172 33.9657 36.6337 33.9575C36.6501 33.9493 36.6666 33.941 36.6748 33.9246C36.683 33.9081 36.6912 33.8916 36.6912 33.8752C36.6912 33.8505 36.683 33.8258 36.6666 33.8093C36.6419 33.7928 36.6172 33.7764 36.5926 33.7764Z" fill="#AA8A00"/>
<path d="M36.5925 33.4804C36.5925 33.464 36.5842 33.4475 36.576 33.431C36.5678 33.4146 36.5514 33.4063 36.5349 33.3981C36.5185 33.3899 36.502 33.3899 36.4774 33.3899C36.4609 33.3899 36.4445 33.4063 36.428 33.4146C36.4116 33.431 36.4034 33.4475 36.4034 33.464C36.4034 33.4804 36.4034 33.5051 36.4116 33.5216C36.4198 33.5381 36.428 33.5546 36.4445 33.5628C36.4609 33.571 36.4774 33.5793 36.4938 33.5793C36.5185 33.5793 36.5431 33.571 36.5596 33.5546C36.5842 33.5299 36.5925 33.5051 36.5925 33.4804Z" fill="#AA8A00"/>
<path d="M36.0918 33.1596C36.0753 33.1596 36.0589 33.1678 36.0425 33.1761C36.026 33.1843 36.0178 33.2008 36.0096 33.2172C36.0013 33.2337 36.0013 33.2502 36.0013 33.2749C36.0013 33.2913 36.0178 33.3078 36.026 33.3243C36.0424 33.3407 36.0589 33.349 36.0753 33.349C36.0918 33.349 36.1164 33.349 36.1329 33.3407C36.1493 33.3325 36.1658 33.3243 36.174 33.3078C36.1822 33.2913 36.1904 33.2749 36.1904 33.2584C36.1904 33.2337 36.1822 33.209 36.1658 33.1925C36.1411 33.1678 36.1164 33.1596 36.0918 33.1596Z" fill="#AA8A00"/>
<path d="M32.3655 29.954C32.3573 30.1841 32.9154 30.3978 33.3832 30.4061C33.4406 30.143 33.4406 29.8635 33.3832 29.6005C32.9728 29.5676 32.3655 29.7238 32.3655 29.954Z" fill="#AA8A00"/>
<path d="M33.605 30.3894C33.5885 30.3894 33.5721 30.3977 33.5556 30.4059C33.5392 30.4141 33.531 30.4306 33.5227 30.4471C33.5145 30.4635 33.5145 30.48 33.5145 30.5047C33.5145 30.5212 33.531 30.5376 33.5392 30.5541C33.5556 30.5706 33.5721 30.5788 33.5885 30.5788C33.605 30.5788 33.6296 30.5788 33.6461 30.5706C33.6625 30.5623 33.679 30.5541 33.6872 30.5376C33.6954 30.5212 33.7036 30.5047 33.7036 30.4882C33.7036 30.4635 33.6954 30.4388 33.679 30.4224C33.6543 30.4059 33.6296 30.3894 33.605 30.3894Z" fill="#AA8A00"/>
<path d="M33.8758 30.2332C33.8593 30.2332 33.8429 30.2414 33.8264 30.2497C33.81 30.2579 33.8018 30.2744 33.7935 30.2909C33.7853 30.3073 33.7853 30.3238 33.7853 30.3485C33.7853 30.365 33.8018 30.3814 33.81 30.3979C33.8264 30.4144 33.8429 30.4226 33.8593 30.4226C33.8758 30.4226 33.9004 30.4226 33.9169 30.4144C33.9333 30.4061 33.9498 30.3979 33.958 30.3814C33.9662 30.365 33.9744 30.3485 33.9744 30.332C33.9744 30.3073 33.9662 30.2826 33.9498 30.2662C33.9251 30.2414 33.9004 30.2332 33.8758 30.2332Z" fill="#AA8A00"/>
<path d="M34.1383 30.0606C34.1219 30.0606 34.1054 30.0688 34.089 30.077C34.0726 30.0853 34.0643 30.1017 34.0561 30.1182C34.0479 30.1347 34.0479 30.1511 34.0479 30.1758C34.0479 30.1923 34.0643 30.2088 34.0726 30.2252C34.089 30.2417 34.1054 30.2499 34.1219 30.2499C34.1383 30.2499 34.163 30.2499 34.1794 30.2417C34.1959 30.2335 34.2123 30.2252 34.2205 30.2088C34.2288 30.1923 34.237 30.1758 34.237 30.1594C34.237 30.1347 34.2288 30.11 34.2123 30.0935C34.1877 30.0688 34.163 30.0606 34.1383 30.0606Z" fill="#AA8A00"/>
<path d="M33.6458 30.0194C33.6294 30.0194 33.6129 30.0276 33.5965 30.0358C33.58 30.0441 33.5718 30.0605 33.5636 30.077C33.5554 30.0935 33.5554 30.1099 33.5554 30.1346C33.5554 30.1511 33.5718 30.1676 33.58 30.1841C33.5965 30.2005 33.6129 30.2088 33.6294 30.2088C33.6458 30.2088 33.6705 30.2088 33.6869 30.2005C33.7034 30.1923 33.7198 30.1841 33.728 30.1676C33.7362 30.1511 33.7445 30.1346 33.7445 30.1182C33.7445 30.0935 33.7362 30.0688 33.7198 30.0523C33.6951 30.0276 33.6705 30.0194 33.6458 30.0194Z" fill="#AA8A00"/>
<path d="M33.9169 29.8222C33.9004 29.8222 33.884 29.8304 33.8675 29.8386C33.8511 29.8469 33.8429 29.8633 33.8347 29.8798C33.8264 29.8963 33.8264 29.9127 33.8264 29.9375C33.8264 29.9539 33.8429 29.9704 33.8511 29.9869C33.8675 30.0033 33.884 30.0116 33.9004 30.0116C33.9169 30.0116 33.9415 30.0116 33.958 30.0033C33.9744 29.9951 33.9909 29.9869 33.9991 29.9704C34.0073 29.9539 34.0155 29.9375 34.0155 29.921C34.0155 29.8963 34.0073 29.8716 33.9909 29.8551C33.9662 29.8386 33.9415 29.8222 33.9169 29.8222Z" fill="#AA8A00"/>
<path d="M33.6705 29.5921C33.6541 29.5921 33.6376 29.6004 33.6212 29.6086C33.6048 29.6168 33.5965 29.6333 33.5883 29.6498C33.5801 29.6662 33.5801 29.6827 33.5801 29.7074C33.5801 29.7239 33.5965 29.7404 33.6048 29.7568C33.6212 29.7733 33.6376 29.7815 33.6541 29.7815C33.6705 29.7815 33.6952 29.7815 33.7116 29.7733C33.7281 29.7651 33.7445 29.7568 33.7527 29.7404C33.761 29.7239 33.7692 29.7074 33.7692 29.6909C33.7692 29.6662 33.761 29.6415 33.7445 29.6251C33.7199 29.6086 33.6952 29.5921 33.6705 29.5921Z" fill="#AA8A00"/>
<path d="M29.6572 22.3342C29.3372 22.0629 28.738 22.0711 28.656 22.1944C28.5657 22.3424 28.894 22.7287 29.2058 22.9589C29.3946 22.7698 29.5423 22.5643 29.6572 22.3342Z" fill="#AA8A00"/>
<path d="M29.3617 23.0494C29.3371 23.0494 29.3124 23.0577 29.296 23.0741C29.2795 23.0906 29.2713 23.1153 29.2713 23.14C29.2713 23.1647 29.2795 23.1894 29.296 23.2059C29.3124 23.2223 29.3371 23.2306 29.3617 23.2306C29.3864 23.2306 29.4111 23.2223 29.4275 23.2059C29.444 23.1894 29.4522 23.1647 29.4522 23.14C29.4522 23.1153 29.444 23.0906 29.4275 23.0741C29.4111 23.0659 29.3864 23.0494 29.3617 23.0494Z" fill="#AA8A00"/>
<path d="M29.6571 23.0494C29.6324 23.0494 29.6077 23.0577 29.5913 23.0741C29.5749 23.0906 29.5666 23.1153 29.5666 23.14C29.5666 23.1647 29.5749 23.1894 29.5913 23.2059C29.6077 23.2223 29.6324 23.2306 29.6571 23.2306C29.6817 23.2306 29.7064 23.2223 29.7228 23.2059C29.7393 23.1894 29.7475 23.1647 29.7475 23.14C29.7475 23.1153 29.7393 23.0906 29.7228 23.0741C29.7064 23.0659 29.6817 23.0494 29.6571 23.0494Z" fill="#AA8A00"/>
<path d="M29.6328 22.9184C29.6575 22.9184 29.6821 22.9101 29.6986 22.8937C29.715 22.8772 29.7232 22.8525 29.7232 22.8278C29.7232 22.8031 29.715 22.7784 29.6986 22.7619C29.6821 22.7454 29.6575 22.7372 29.6328 22.7372C29.6081 22.7372 29.5835 22.7454 29.567 22.7619C29.5506 22.7784 29.5424 22.8031 29.5424 22.8278C29.5424 22.8443 29.5424 22.8525 29.5506 22.8607C29.5588 22.869 29.5588 22.8854 29.567 22.8937C29.5752 22.9019 29.5835 22.9101 29.5999 22.9101C29.6081 22.9184 29.6246 22.9184 29.6328 22.9184Z" fill="#AA8A00"/>
<path d="M29.969 22.7372C29.9443 22.7372 29.9197 22.7454 29.9032 22.7619C29.8868 22.7784 29.8786 22.8031 29.8786 22.8278C29.8786 22.8525 29.8868 22.8772 29.9032 22.8937C29.9197 22.9101 29.9443 22.9184 29.969 22.9184C29.9937 22.9184 30.0183 22.9101 30.0348 22.8937C30.0512 22.8772 30.0594 22.8525 30.0594 22.8278C30.0594 22.8031 30.0512 22.7784 30.0348 22.7619C30.0183 22.7537 29.9937 22.7372 29.969 22.7372Z" fill="#AA8A00"/>
<path d="M29.9694 22.4825C29.9694 22.466 29.9694 22.4578 29.9611 22.4496C29.9529 22.4413 29.9529 22.4249 29.9447 22.4166C29.9365 22.4084 29.9283 22.4001 29.9118 22.4001C29.9036 22.3919 29.8872 22.3919 29.8789 22.3919C29.8543 22.3919 29.8296 22.4002 29.8132 22.4166C29.7967 22.4331 29.7885 22.4578 29.7885 22.4825C29.7885 22.5072 29.7967 22.5319 29.8132 22.5484C29.8296 22.5648 29.8543 22.5731 29.8789 22.5731C29.9036 22.5731 29.9283 22.5648 29.9447 22.5484C29.9611 22.5319 29.9694 22.5072 29.9694 22.4825Z" fill="#AA8A00"/>
<path d="M57.2741 10.8503C57.586 10.8503 57.8322 10.5954 57.8322 10.2913C57.8322 9.97894 57.5778 9.73234 57.2741 9.73234C56.9622 9.73234 56.716 9.98716 56.716 10.2913C56.716 10.6037 56.9704 10.8503 57.2741 10.8503Z" fill="#AA8A00"/>
<path d="M50.4131 3.72362C50.5115 3.68252 50.6018 3.60854 50.6675 3.51812C50.7331 3.42771 50.766 3.32085 50.766 3.20577C50.766 3.09069 50.7331 2.98383 50.6675 2.89341C50.6018 2.80299 50.5197 2.72901 50.4131 2.68791C50.3146 2.64681 50.1997 2.63037 50.093 2.65503C49.9863 2.67969 49.8878 2.72901 49.8057 2.81121C49.7236 2.89341 49.6744 2.99205 49.6498 3.09891C49.6252 3.20577 49.6416 3.32085 49.6826 3.41949C49.7401 3.55922 49.8468 3.66608 49.9863 3.72362C50.1258 3.78116 50.2817 3.78116 50.4131 3.72362Z" fill="#AA8A00"/>
<path d="M40.4084 3.72362C40.5068 3.68252 40.5971 3.60854 40.6628 3.51812C40.7284 3.42771 40.7613 3.32085 40.7613 3.20577C40.7613 3.09069 40.7284 2.98383 40.6628 2.89341C40.5971 2.80299 40.515 2.72901 40.4084 2.68791C40.3099 2.64681 40.195 2.63037 40.0883 2.65503C39.9816 2.67969 39.8831 2.72901 39.801 2.81121C39.7189 2.89341 39.6697 2.99205 39.6451 3.09891C39.6205 3.20577 39.6369 3.32085 39.6779 3.41949C39.7354 3.55922 39.8421 3.66608 39.9816 3.72362C40.1129 3.78116 40.2688 3.78116 40.4084 3.72362Z" fill="#AA8A00"/>
<path d="M33.1205 10.8503C33.4324 10.8503 33.6786 10.5954 33.6786 10.2913C33.6786 9.97894 33.4242 9.73234 33.1205 9.73234C32.8169 9.73234 32.5624 9.98716 32.5624 10.2913C32.5542 10.6037 32.8087 10.8503 33.1205 10.8503Z" fill="#AA8A00"/>
<path d="M33.1205 20.8786C33.4324 20.8786 33.6786 20.6238 33.6786 20.3197C33.6786 20.0073 33.4242 19.7607 33.1205 19.7607C32.8169 19.7607 32.5624 20.0155 32.5624 20.3197C32.5542 20.6238 32.8087 20.8786 33.1205 20.8786Z" fill="#AA8A00"/>
<path d="M39.9814 26.8872C39.8829 26.9283 39.7926 27.0023 39.727 27.0927C39.6695 27.1831 39.6285 27.29 39.6285 27.4051C39.6285 27.5119 39.6613 27.627 39.727 27.7174C39.7926 27.8078 39.8747 27.8818 39.9814 27.9229C40.0799 27.964 40.1948 27.9805 40.3015 27.9558C40.4082 27.9311 40.5067 27.8818 40.5887 27.7996C40.6708 27.7174 40.7201 27.6188 40.7447 27.5119C40.7693 27.4051 40.7529 27.29 40.7118 27.1913C40.6544 27.0516 40.5477 26.9447 40.4082 26.8872C40.2687 26.8297 40.1127 26.8297 39.9814 26.8872Z" fill="#AA8A00"/>
<path d="M49.9863 26.8874C49.8878 26.9285 49.7975 27.0025 49.7319 27.0929C49.6744 27.1834 49.6334 27.2902 49.6334 27.4053C49.6334 27.5122 49.6662 27.6272 49.7319 27.7177C49.7975 27.8081 49.8796 27.8821 49.9863 27.9232C50.0848 27.9643 50.1997 27.9807 50.3064 27.956C50.4131 27.9314 50.5115 27.8821 50.5936 27.7999C50.6757 27.7177 50.7249 27.619 50.7496 27.5122C50.7742 27.4053 50.7578 27.2902 50.7167 27.1916C50.6921 27.1258 50.6511 27.0601 50.5936 27.0107C50.5444 26.9614 50.4787 26.9203 50.4131 26.8874C50.3474 26.8628 50.2735 26.8463 50.1997 26.8463C50.1258 26.8463 50.0519 26.8546 49.9863 26.8874Z" fill="#AA8A00"/>
<path d="M57.2741 20.8786C57.586 20.8786 57.8322 20.6238 57.8322 20.3197C57.8322 20.0073 57.5778 19.7607 57.2741 19.7607C56.9622 19.7607 56.716 20.0155 56.716 20.3197C56.716 20.6238 56.9704 20.8786 57.2741 20.8786Z" fill="#AA8A00"/>
<path d="M59.3589 15.2235L52.2515 12.3219L55.1486 5.2034L48.0822 8.18724L45.103 1.10164L42.2059 8.22012L35.0984 5.31848L38.0777 12.4041L31.0031 15.3797L38.1105 18.2813L35.2133 25.3998L42.2879 22.416L45.259 29.5016L48.1561 22.3831L55.2635 25.2847L52.2843 18.2074L59.3589 15.2235Z" fill="#AA8A00"/>
<path d="M47.8689 21.709L54.2952 24.3311L51.6032 17.9278L57.9966 15.2317L51.5786 12.6095L54.1967 6.17327L47.8033 8.86941L45.1113 2.45786L42.4932 8.89407L36.067 6.27191L38.7589 12.6752L32.3655 15.3714L38.7918 17.9936L36.1655 24.4298L42.5671 21.7336L45.2508 28.1452L47.8689 21.709Z" fill="white"/>
<path d="M45.899 17.9196C45.899 15.3057 44.8238 14.6316 44.8238 12.0506C44.8485 11.0395 45.0454 10.0367 45.4065 9.09961C45.185 11.7218 47.3927 13.3822 47.3927 16.8757C47.3927 19.0868 46.5309 20.3609 45.8826 20.3609C45.4722 20.3609 45.4968 20.0897 45.2834 20.0897C45.0701 20.0897 44.8813 20.4103 44.4545 20.4103C44.0195 20.4103 42.6161 19.7116 42.3863 16.6126C42.1401 17.2456 42.3453 18.1416 42.4766 18.6183C41.6066 17.0483 41.6477 15.1577 42.928 13.226C42.6818 15.2399 42.8377 16.8592 43.4532 18.3306C43.5845 18.643 43.8144 18.8074 44.0195 18.643C44.2247 18.4786 44.0195 18.158 43.8636 17.8045C43.7077 17.4511 41.9924 13.6699 44.5694 10.5628C44.274 13.2836 45.3655 14.9851 45.3655 16.2592C45.3655 17.5333 44.6022 19.243 45.3409 19.243C45.7923 19.2348 45.899 18.347 45.899 17.9196Z" fill="#EF3340"/>
<path d="M46.8181 19.81C47.4501 19.3414 47.9672 18.7331 48.3283 18.0344C48.6894 17.3358 48.8782 16.5631 48.8946 15.774C48.8946 13.5875 46.695 11.812 46.3257 10.5461C46.3257 12.5682 47.7045 13.8423 47.7045 16.5549C47.6963 19.0702 46.8181 19.81 46.8181 19.81Z" fill="#EF3340"/>
<path d="M44.4876 34.1783C44.4465 34.1865 44.4055 34.203 44.3809 34.2359C44.348 34.2605 44.3152 34.2934 44.2824 34.3263C44.1757 34.466 44.0115 34.5482 43.8392 34.5729C43.7817 34.5729 43.7325 34.5564 43.6833 34.54C43.634 34.5153 43.5848 34.4824 43.5519 34.4413C42.8379 34.7866 42.1813 35.1647 41.6807 35.4606C41.8941 35.4688 42.0993 35.5346 42.2798 35.6497C42.7969 35.3044 43.6997 34.8112 44.6271 34.3181C44.5532 34.2112 44.504 34.1783 44.4876 34.1783Z" fill="#FFC600"/>
<path d="M46.9659 33.0524C46.6376 33.151 46.2683 33.2743 45.8908 33.4223C45.9565 33.4962 46.0057 33.5784 46.0385 33.6689C46.4817 33.4798 46.8839 33.3236 47.2368 33.2085C47.1301 33.1839 47.0398 33.1263 46.9659 33.0524Z" fill="#FFC600"/>
<path d="M42.6412 35.8223C43.0023 35.7401 43.3716 35.773 43.7163 35.8963C44.2087 35.4853 44.7258 35.1072 45.2675 34.7702C45.0951 34.7537 44.9392 34.6798 44.8079 34.5729C44.0528 34.9346 43.3306 35.3538 42.6412 35.8223Z" fill="#FFC600"/>
<path d="M45.7761 32.1236C46.1454 31.6304 46.5475 31.1783 46.9989 30.7591C46.4244 30.9317 45.8499 31.3591 45.3985 31.7455C45.5052 31.803 45.6037 31.8852 45.6776 31.9756C45.7186 32.0249 45.7514 32.0743 45.7761 32.1236Z" fill="#FFC600"/>
<path d="M60.2043 22.9828C60.5408 22.58 60.59 22.2265 60.59 20.9031C60.3766 21.2566 59.7693 22.0786 59.6708 22.4649C59.4738 23.2047 59.876 23.3938 60.2043 22.9828Z" fill="#FFC600"/>
<path d="M59.9252 24.339C60.2617 24.0349 60.5325 23.4924 60.6556 22.9087C60.2617 23.3937 59.8267 23.4019 59.5394 23.7143C58.9895 24.3144 59.5887 24.6432 59.9252 24.339Z" fill="#FFC600"/>
<path d="M59.4161 23.4511C59.4982 23.1881 59.3176 22.6374 59.3915 22.2181C59.0304 22.6209 58.776 23.3689 58.9319 23.7142C59.0796 24.0676 59.3341 23.706 59.4161 23.4511Z" fill="#FFC600"/>
<path d="M58.6201 24.6431C58.9238 24.3226 58.456 23.6239 58.6612 22.7197C58.6612 22.7197 58.0456 23.7143 57.98 24.0842C57.7584 25.3007 58.3083 24.9637 58.6201 24.6431Z" fill="#FFC600"/>
<path d="M59.1535 25.5637C59.4654 25.5391 59.8511 25.1774 60.2533 24.4212C59.9332 24.7911 59.0961 24.6431 58.8499 24.9226C58.7924 24.9801 58.7514 25.0459 58.735 25.1281C58.7185 25.2103 58.7267 25.2843 58.7596 25.3583C58.7924 25.4322 58.8499 25.4898 58.9155 25.5309C58.9976 25.5637 59.0797 25.5802 59.1535 25.5637Z" fill="#FFC600"/>
<path d="M58.0868 26.5337C57.8734 26.7885 57.619 27.0433 57.422 27.2324C56.9624 27.5529 56.3633 27.5447 56.035 27.7831C55.5015 28.1777 55.838 28.3914 56.2238 28.301C56.4946 28.2352 56.7901 28.0215 57.3564 27.3639C57.619 27.1173 57.8734 26.8625 58.1032 26.5912C58.1442 26.6816 58.2181 26.7638 58.3084 26.8049C58.3987 26.846 58.5054 26.8542 58.6038 26.8214C58.9978 26.7227 59.1866 26.5912 59.917 25.4897C59.638 25.6459 58.6777 25.6706 58.292 26.0651C58.2263 26.1227 58.1689 26.1967 58.136 26.2706C58.095 26.361 58.0786 26.4432 58.0868 26.5337Z" fill="#FFC600"/>
<path d="M55.0662 28.2188C55.1073 27.7667 54.9759 27.8325 55.3945 27.0598C55.214 27.1913 54.4671 27.7749 54.4671 28.3585C54.4753 29.1477 55.0252 28.6709 55.0662 28.2188Z" fill="#FFC600"/>
<path d="M53.9585 29.2463C54.336 28.8764 54.0734 28.4818 54.4509 27.7585C54.4509 27.7585 53.8026 28.227 53.5728 28.7778C53.3266 29.3367 53.5728 29.6162 53.9585 29.2463Z" fill="#FFC600"/>
<path d="M53.031 29.9203C53.5071 29.4354 53.1788 29.0655 53.4742 28.4736C53.2198 28.7367 52.8505 28.9997 52.6207 29.4107C52.358 29.8957 52.555 30.4053 53.031 29.9203Z" fill="#FFC600"/>
<path d="M51.8899 30.6767C52.4398 30.1835 52.0869 29.6739 52.7517 28.893C52.3331 29.0985 51.5863 29.7561 51.3483 30.2329C51.1103 30.7096 51.3401 31.1782 51.8899 30.6767Z" fill="#FFC600"/>
<path d="M50.6674 31.2764C51.0531 30.8901 51.0942 30.2243 51.5702 29.4105C51.2993 29.5831 50.413 30.0927 50.06 30.6846C49.6415 31.3833 50.2816 31.6628 50.6674 31.2764Z" fill="#FFC600"/>
<path d="M49.149 32.0164C49.9205 31.2684 49.5758 31.03 50.1667 30.0354C49.5184 30.4217 48.9603 30.9478 48.5253 31.5725C48.3201 31.9095 48.4596 32.6904 49.149 32.0164Z" fill="#FFC600"/>
<path d="M47.1052 32.37C46.8426 32.9372 47.3186 33.2167 47.7125 32.8468C48.1065 32.4769 48.2624 31.5316 49.0831 30.3726C48.525 30.7014 47.4991 31.5234 47.1052 32.37Z" fill="#FFC600"/>
<path d="M46.5229 33.0113C47.1877 32.329 47.0153 31.7701 48.0576 30.6521C47.2615 30.9398 46.0551 31.8851 45.7268 32.5756C45.4231 33.2332 46.0797 33.4634 46.5229 33.0113Z" fill="#FFC600"/>
<path d="M42.5753 35.9787C42.0992 36.2006 42.8379 36.4143 43.437 36.2006C44.0443 35.9869 42.9774 35.7978 42.5753 35.9787Z" fill="#FFC600"/>
<path d="M41.4836 35.6003C40.9338 35.7318 41.5001 35.9619 41.9104 35.8715C42.3126 35.7893 41.8283 35.5263 41.4836 35.6003Z" fill="#FFC600"/>
<path d="M49.7728 36.0606C50.3719 36.077 50.971 35.962 51.5291 35.7154C51.2829 35.6743 51.0449 35.6085 50.8151 35.5345C50.5114 35.7893 50.1503 35.9702 49.7728 36.0606Z" fill="#FFC600"/>
<path d="M51.0122 33.8247C50.7577 33.9974 50.5033 34.1535 50.2325 34.2933C51.3486 34.4248 52.4812 34.4659 53.6056 34.4248C53.7862 34.1946 53.9257 33.948 54.0324 33.6768C53.0311 33.8001 52.0216 33.8494 51.0122 33.8247Z" fill="#FFC600"/>
<path d="M52.6125 34.9758C52.6372 34.984 53.3348 34.5812 53.3348 34.5812H52.9244C52.8095 34.7045 52.7028 34.836 52.6125 34.9758Z" fill="#FFC600"/>
<path d="M52.7685 33.0524L52.588 33.1099C52.2515 33.2168 51.9478 33.3072 51.6606 33.3894C52.2433 33.4387 52.9573 33.3154 53.8355 33.0688C53.4579 33.0441 53.0886 32.9455 52.7521 32.7975C52.5634 32.7153 52.35 32.7071 52.153 32.7729L52.1038 32.7893C51.677 32.9373 51.242 33.0524 50.7988 33.1428C51.0122 33.2579 51.242 33.3401 51.48 33.3729C51.8083 33.2825 52.1694 33.1674 52.5798 33.0441L52.7603 32.9866C52.7685 32.9866 52.7767 32.9866 52.7932 32.9866C52.8014 32.9948 52.8096 33.003 52.8096 33.0113C52.8096 33.0195 52.8096 33.0277 52.8096 33.0441C52.785 33.0441 52.7767 33.0441 52.7685 33.0524Z" fill="#FFC600"/>
<path d="M54.5167 30.7916C54.7301 30.7012 54.9435 30.6026 55.1487 30.4957C54.9681 30.4628 54.7794 30.4464 54.5906 30.4464C54.4018 30.5532 54.1966 30.6437 53.9833 30.7176C53.9504 30.7587 53.934 30.7998 53.9094 30.8492C54.0571 30.882 54.2131 30.8738 54.3608 30.8409C54.3772 30.8327 54.4347 30.8163 54.5167 30.7916Z" fill="#FFC600"/>
<path d="M55.2636 30.5121C55.1405 30.5861 55.0174 30.6436 54.9025 30.7012C54.5824 30.8985 54.2623 31.0875 53.9258 31.2437C53.9997 31.3917 54.172 31.4903 54.4511 31.4903C55.042 31.4903 55.6247 31.219 56.6506 30.5943C56.191 30.6601 55.7232 30.6272 55.2636 30.5121Z" fill="#FFC600"/>
<path d="M56.3304 29.4766C56.1827 29.4601 56.0513 29.4519 55.92 29.4519C55.682 29.5917 55.4358 29.715 55.1814 29.8218C55.1568 29.8876 55.1568 29.9698 55.1732 30.0355C55.5753 29.8876 55.9611 29.6985 56.3304 29.4766Z" fill="#FFC600"/>
<path d="M56.4534 29.4846C56.0594 29.7394 55.6409 29.9449 55.2059 30.1093C55.2551 30.208 55.3454 30.2902 55.4603 30.3231C55.5834 30.2491 55.7147 30.1751 55.8625 30.0847C55.8707 30.0765 55.8789 30.0765 55.8871 30.0847C55.8953 30.0847 55.9035 30.0929 55.9117 30.1011C55.9199 30.1093 55.9199 30.1176 55.9199 30.1258C55.9199 30.134 55.9117 30.1422 55.9035 30.1504C55.7804 30.2244 55.6655 30.2902 55.5588 30.3559C55.6409 30.3724 55.7147 30.3724 55.7968 30.3642C56.7735 30.2409 57.2331 29.871 57.9307 29.3367C57.4465 29.4846 56.9458 29.5339 56.4534 29.4846Z" fill="#FFC600"/>
<path d="M57.3647 28.2927C57.3155 28.3256 57.2662 28.3502 57.217 28.3749C56.9708 28.5804 56.7081 28.7695 56.4291 28.9174C56.4291 28.975 56.4455 29.0243 56.4701 29.0736C56.741 28.9256 56.9954 28.753 57.2252 28.5557C57.2334 28.5475 57.2416 28.5475 57.2498 28.5475C57.258 28.5475 57.2662 28.5557 57.2744 28.564C57.2826 28.5722 57.2826 28.5804 57.2826 28.5886C57.2826 28.5968 57.2744 28.6051 57.2662 28.6133C57.0364 28.8106 56.782 28.9914 56.5112 29.1311C56.5768 29.1805 56.6589 29.2051 56.741 29.2133C56.823 29.2216 56.9051 29.2133 56.9872 29.1887C57.9064 28.9832 58.5794 28.1776 58.5794 28.1776C58.1854 28.2763 57.7751 28.3174 57.3647 28.2927Z" fill="#FFC600"/>
<path d="M57.3398 27.7915C57.3562 27.8572 57.389 27.9148 57.4301 27.9559C57.4711 28.0052 57.5285 28.0381 57.5942 28.0545C57.8076 27.9065 58.0374 27.7257 58.3575 27.4544C58.3657 27.4462 58.3739 27.4462 58.3821 27.4462C58.3903 27.4462 58.3985 27.4544 58.4067 27.4627C58.4149 27.4709 58.4149 27.4791 58.4149 27.4873C58.4149 27.4955 58.4067 27.5038 58.3985 27.512C58.1113 27.7586 57.8897 27.9394 57.6845 28.0792C57.7666 28.0874 57.8404 28.0874 57.9225 28.0709C58.3164 27.9887 58.6447 27.7339 59.4162 26.879C58.9812 26.9119 58.5462 26.9777 58.1195 27.0681C57.8815 27.3311 57.6188 27.5695 57.3398 27.7915Z" fill="#FFC600"/>
<path d="M57.9969 27.101C57.882 27.1256 57.7671 27.175 57.6604 27.2325C57.5783 27.2818 57.5044 27.3476 57.447 27.4298C57.3895 27.512 57.3567 27.6024 57.3321 27.6928C57.5701 27.512 57.7835 27.3147 57.9969 27.101Z" fill="#FFC600"/>
<path d="M57.2661 25.2596L57.2743 25.2678C57.2743 25.276 57.2743 25.276 57.2825 25.2842C57.2825 25.2925 57.2825 25.2925 57.2825 25.3007C57.2825 25.3089 57.2825 25.3089 57.2743 25.3171C57.1594 25.4651 57.0445 25.5966 56.9378 25.7117C56.9378 25.7692 56.946 25.8185 56.9706 25.8679C56.9952 25.9172 57.0199 25.9665 57.0609 25.9994C57.2743 25.7446 57.5123 25.4651 57.6846 25.276C57.7175 24.9637 57.6929 24.5855 57.7011 24.2485C57.4877 24.454 56.9624 25.1281 56.9378 25.6048C57.0281 25.5062 57.1183 25.3911 57.2086 25.276L57.2168 25.2678C57.225 25.2678 57.225 25.2596 57.2332 25.2596C57.2415 25.2596 57.2415 25.2596 57.2497 25.2596C57.2579 25.2596 57.2661 25.2596 57.2661 25.2596Z" fill="#FFC600"/>
<path d="M57.504 25.8515C57.6025 25.7199 57.6599 25.5638 57.6763 25.4076C57.5122 25.5884 57.3152 25.8186 57.1429 26.0323C57.2167 26.0405 57.2906 26.0241 57.348 25.9912C57.4055 25.9665 57.4629 25.9172 57.504 25.8515Z" fill="#FFC600"/>
<path d="M55.2632 28.531C54.7215 28.8434 54.9595 29.0982 55.4109 29.0818C55.8623 29.0653 56.3219 28.9174 57.1098 28.2927C56.5599 28.5064 55.731 28.268 55.2632 28.531Z" fill="#FFC600"/>
<path d="M54.0409 29.3613C53.7372 29.6244 53.8521 29.9121 54.2461 29.9121C54.6482 29.9121 55.034 29.8381 55.9696 29.2956C55.0832 29.386 54.5087 28.9668 54.0409 29.3613Z" fill="#FFC600"/>
<path d="M54.919 30.1343C54.2624 30.2083 53.4007 29.8548 53.0724 30.0768C52.8672 30.2165 52.8344 30.5206 53.2037 30.6193C53.7618 30.7755 54.1803 30.5782 54.919 30.1343Z" fill="#FFC600"/>
<path d="M47.959 32.9616C47.3353 33.0192 47.2122 33.8412 48.1396 33.948C49.067 34.0549 50.1421 33.8987 51.324 33.4466C49.8877 33.5781 48.7387 32.8877 47.959 32.9616Z" fill="#FFC600"/>
<path d="M55.3127 28.0544C55.4359 28.1613 55.6657 28.0215 55.9201 27.6763C56.1745 27.3311 55.8216 26.9858 56.7982 25.8186C56.3961 26.2049 56.0186 26.6241 55.6739 27.068C55.3374 27.5201 55.1896 27.9476 55.3127 28.0544Z" fill="#FFC600"/>
<path d="M56.3388 26.8874C55.9941 27.356 56.4783 27.6683 56.8312 27.3231C56.9625 27.1916 57.0692 27.0436 57.1677 26.8874C57.4714 26.6244 58.0131 26.0819 58.3988 25.6627L58.407 25.6544V25.6462V25.638C58.407 25.638 58.407 25.6298 58.3988 25.6298C58.3988 25.6298 58.3906 25.6298 58.3906 25.6216H58.3824H58.3742C58.3742 25.6216 58.366 25.6216 58.366 25.6298C58.0213 25.9997 57.5699 26.4518 57.2662 26.7395C57.3811 26.5504 57.496 26.3285 57.6273 26.0737C57.9146 25.7777 58.1772 25.4572 58.407 25.1201V25.1119V25.1037V25.0955L58.3988 25.0873H58.3906H58.3824H58.3742L58.366 25.0955C58.1362 25.4325 57.8817 25.7449 57.6027 26.0408C57.3729 26.1312 56.6425 26.4847 56.3388 26.8874Z" fill="#FFC600"/>
<path d="M46.3831 33.8004C47.7537 34.4251 50.6755 35.4526 51.6932 35.5924C51.7999 35.0827 51.8983 34.6142 51.8983 34.6142C49.8465 34.4416 48.4841 34.269 46.7196 33.6853C46.5719 33.7347 46.3831 33.8004 46.3831 33.8004Z" fill="#FFC600"/>
<path d="M51.2254 32.3783C51.1351 32.3783 51.0366 32.3783 50.9381 32.3701C51.3403 32.5016 51.7589 32.5592 52.1856 32.5592C52.0707 32.5016 51.9722 32.4359 51.8738 32.3537C51.6604 32.3701 51.4388 32.3865 51.2254 32.3783Z" fill="#FFC600"/>
<path d="M51.9559 30.8326C51.4717 31.1778 51.7261 31.4902 52.1364 31.523C52.5386 31.5559 53.3593 31.4244 54.1636 30.9559C53.7779 31.0134 52.5796 30.3969 51.9559 30.8326Z" fill="#FFC600"/>
<path d="M50.7493 31.4163C50.3554 31.5067 49.904 32.1397 50.6016 32.2301C51.3485 32.337 52.1199 32.2383 52.8175 31.9424C52.1117 31.8684 51.3402 31.2766 50.7493 31.4163Z" fill="#FFC600"/>
<path d="M53.0312 31.8275C53.3513 31.7535 53.6632 31.6549 53.9586 31.5316C53.8437 31.474 53.7452 31.4165 53.6468 31.3589C53.2036 31.548 52.7275 31.6466 52.2515 31.6384C52.2105 31.6384 52.1777 31.6384 52.1448 31.6384L52.1366 31.6466C52.3993 31.7371 52.7193 31.8686 53.0312 31.8275Z" fill="#FFC600"/>
<path d="M54.0569 31.5809C53.8025 31.6795 53.5809 31.7617 53.3593 31.8193C52.9325 32.0166 52.4975 32.181 52.0461 32.296C52.0954 32.3618 52.1528 32.4111 52.2267 32.4522C52.2923 32.4933 52.3744 32.518 52.4483 32.5262C52.4647 32.5262 52.4893 32.5344 52.5057 32.5344C53.0064 32.444 53.4906 32.2796 53.9338 32.0494C53.942 32.0412 53.9502 32.0412 53.9584 32.0494C53.9666 32.0494 53.9748 32.0577 53.983 32.0659C53.9912 32.0741 53.9912 32.0823 53.983 32.0988C53.983 32.107 53.9748 32.1152 53.9666 32.1234C53.5727 32.3289 53.1623 32.4769 52.7273 32.5755C53.5234 32.6495 54.3113 32.4111 55.7476 31.7042C54.853 31.8275 54.3852 31.7206 54.0569 31.5809Z" fill="#FFC600"/>
<path d="M49.2804 32.1891C48.6566 32.3206 48.6238 32.8796 49.1491 33.0276C49.6743 33.1673 50.495 33.1673 52.0872 32.6659C51.0942 32.6577 49.9534 32.0494 49.2804 32.1891Z" fill="#FFC600"/>
<path d="M50.5854 33.1755C50.4049 33.2084 50.2243 33.2248 50.0355 33.233C50.3474 33.2988 50.6593 33.3399 50.9794 33.3481C50.8398 33.307 50.7085 33.2495 50.5854 33.1755Z" fill="#FFC600"/>
</g>
<path d="M83.1278 48.3301V52.7852H82.2071V48.3301H83.1278ZM82.6728 47.8993C82.5381 47.8993 82.4226 47.8536 82.3262 47.7623C82.2298 47.6695 82.1816 47.5585 82.1816 47.4295C82.1816 47.3018 82.2298 47.1923 82.3262 47.101C82.4226 47.0081 82.5374 46.9617 82.6707 46.9617C82.8067 46.9617 82.9223 47.0081 83.0172 47.101C83.1136 47.1923 83.1618 47.3018 83.1618 47.4295C83.1618 47.5585 83.1136 47.6695 83.0172 47.7623C82.9223 47.8536 82.8075 47.8993 82.6728 47.8993Z" fill="#292929"/>
<path d="M77.4337 48.33H78.4649L79.4579 50.2487H79.5004L80.4934 48.33H81.5246L79.9363 51.2102V52.7852H79.022V51.2102L77.4337 48.33Z" fill="#292929"/>
<path d="M76.7517 48.3301V52.7852H75.8311V48.3301H76.7517ZM76.2967 47.8993C76.162 47.8993 76.0465 47.8536 75.9501 47.7623C75.8537 47.6695 75.8055 47.5585 75.8055 47.4295C75.8055 47.3018 75.8537 47.1923 75.9501 47.101C76.0465 47.0081 76.1613 46.9617 76.2946 46.9617C76.4307 46.9617 76.5462 47.0081 76.6412 47.101C76.7375 47.1923 76.7857 47.3018 76.7857 47.4295C76.7857 47.5585 76.7375 47.6695 76.6412 47.7623C76.5462 47.8536 76.4314 47.8993 76.2967 47.8993Z" fill="#292929"/>
<path d="M72.2543 52.7852V48.33H73.175V52.0085H75.0419V52.7852H72.2543Z" fill="#292929"/>
<path d="M68.145 52.7852V48.33H69.863C70.1919 48.33 70.4726 48.3902 70.705 48.5106C70.9389 48.6295 71.1168 48.7984 71.2387 49.0174C71.3621 49.235 71.4237 49.4909 71.4237 49.7853C71.4237 50.0812 71.3613 50.3357 71.2366 50.5489C71.1119 50.7606 70.9311 50.923 70.6944 51.0362C70.4591 51.1493 70.1742 51.2058 69.8396 51.2058H68.6893V50.4488H69.6908C69.8666 50.4488 70.0126 50.4242 70.1288 50.3749C70.245 50.3256 70.3315 50.2516 70.3882 50.153C70.4463 50.0544 70.4754 49.9318 70.4754 49.7853C70.4754 49.6374 70.4463 49.5127 70.3882 49.4112C70.3315 49.3097 70.2443 49.2328 70.1267 49.1806C70.0104 49.1269 69.8637 49.1001 69.6865 49.1001H69.0657V52.7852H68.145ZM70.4967 50.7577L71.5789 52.7852H70.5626L69.5037 50.7577H70.4967Z" fill="#292929"/>
<path d="M67.2077 48.3301V52.7852H66.2871V48.3301H67.2077ZM66.7527 47.8993C66.618 47.8993 66.5025 47.8536 66.4061 47.7623C66.3097 47.6695 66.2615 47.5585 66.2615 47.4295C66.2615 47.3018 66.3097 47.1923 66.4061 47.101C66.5025 47.0081 66.6173 46.9617 66.7506 46.9617C66.8867 46.9617 67.0022 47.0081 67.0972 47.101C67.1936 47.1923 67.2417 47.3018 67.2417 47.4295C67.2417 47.5585 67.1936 47.6695 67.0972 47.7623C67.0022 47.8536 66.8874 47.8993 66.7527 47.8993Z" fill="#292929"/>
<path d="M62.0675 52.7852V52.2261L64.2405 49.1066H62.0632V48.33H65.3972V48.8891L63.222 52.0085H65.4015V52.7852H62.0675Z" fill="#292929"/>
<path d="M58.2057 52.7852H57.2191L58.7224 48.33H59.9088L61.41 52.7852H60.4234L59.3326 49.3481H59.2986L58.2057 52.7852ZM58.144 51.034H60.4744V51.7693H58.144V51.034Z" fill="#292929"/>
<path d="M56.515 48.33V52.7852H55.7197L53.8252 49.9811H53.7933V52.7852H52.8727V48.33H53.6806L55.5603 51.1319H55.5985V48.33H56.515Z" fill="#292929"/>
<path d="M46.9624 49.1066V48.33H50.5388V49.1066H49.2056V52.7852H48.2956V49.1066H46.9624Z" fill="#292929"/>
<path d="M44.2332 52.8462C43.8575 52.8462 43.5315 52.7642 43.2551 52.6003C42.9801 52.435 42.7675 52.1993 42.6172 51.8933C42.4684 51.5859 42.3932 51.219 42.3918 50.7926V50.2879H45.4919V51.0558H43.3167V51.145C43.3182 51.3249 43.3543 51.48 43.4252 51.6105C43.4975 51.7411 43.601 51.8419 43.7356 51.9129C43.8717 51.9825 44.0361 52.0173 44.2289 52.0173C44.4614 52.0173 44.652 51.9673 44.8009 51.8672C44.9511 51.7657 45.0624 51.6272 45.1347 51.4518C45.207 51.2748 45.2431 51.074 45.2431 50.8492V50.2836C45.2431 50.1081 45.2219 49.9486 45.1794 49.805C45.1383 49.6614 45.0695 49.5374 44.9731 49.433C44.8767 49.3286 44.7477 49.2481 44.5861 49.1916C44.4245 49.135 44.224 49.1067 43.9844 49.1067C43.8554 49.1067 43.7222 49.1147 43.5847 49.1306C43.4486 49.1451 43.3182 49.1655 43.1934 49.1916C43.0687 49.2177 42.9588 49.2474 42.8639 49.2807L42.7129 48.4998C42.7582 48.4751 42.8284 48.4497 42.9234 48.4236C43.0198 48.3961 43.1311 48.3707 43.2572 48.3475C43.3848 48.3243 43.5195 48.3055 43.6612 48.291C43.8044 48.2764 43.9454 48.2692 44.0843 48.2692C44.5308 48.2692 44.9093 48.354 45.2198 48.5237C45.5302 48.6919 45.7662 48.9269 45.9278 49.2285C46.0908 49.5302 46.1723 49.8819 46.1723 50.2836V50.8492C46.1723 51.2364 46.0915 51.5808 45.9299 51.8825C45.7698 52.1827 45.5444 52.4183 45.2538 52.5895C44.9646 52.7606 44.6244 52.8462 44.2332 52.8462Z" fill="#292929"/>
<path d="M37.5971 48.33H38.6283L39.6213 50.2487H39.6638L40.6568 48.33H41.688L40.0997 51.2102V52.7852H39.1854V51.2102L37.5971 48.33Z" fill="#292929"/>
<path d="M33.0785 48.33H34.1097L35.1027 50.2487H35.1452L36.1382 48.33H37.1694L35.5811 51.2102V52.7852H34.6668V51.2102L33.0785 48.33Z" fill="#292929"/>
<path d="M32.3965 48.3301V52.7852H31.4759V48.3301H32.3965ZM31.9415 47.8993C31.8068 47.8993 31.6913 47.8536 31.5949 47.7623C31.4985 47.6695 31.4503 47.5585 31.4503 47.4295C31.4503 47.3018 31.4985 47.1923 31.5949 47.101C31.6913 47.0081 31.8061 46.9617 31.9394 46.9617C32.0755 46.9617 32.191 47.0081 32.286 47.101C32.3824 47.1923 32.4305 47.3018 32.4305 47.4295C32.4305 47.5585 32.3824 47.6695 32.286 47.7623C32.191 47.8536 32.0762 47.8993 31.9415 47.8993Z" fill="#292929"/>
<path d="M30.5357 48.33V52.7852H29.7405L27.846 49.9811H27.8141V52.7852H26.8934V48.33H27.7014L29.581 51.1319H29.6193V48.33H30.5357Z" fill="#292929"/>
<path d="M23.9978 52.8462C23.6222 52.8462 23.2962 52.7642 23.0197 52.6003C22.7447 52.435 22.5321 52.1993 22.3819 51.8933C22.233 51.5859 22.1579 51.219 22.1565 50.7926V50.2879H25.2566V51.0558H23.0814V51.145C23.0828 51.3249 23.119 51.48 23.1898 51.6105C23.2621 51.7411 23.3656 51.8419 23.5003 51.9129C23.6364 51.9825 23.8008 52.0173 23.9936 52.0173C24.226 52.0173 24.4167 51.9673 24.5655 51.8672C24.7158 51.7657 24.8271 51.6272 24.8994 51.4518C24.9717 51.2748 25.0078 51.074 25.0078 50.8492V50.2836C25.0078 50.1081 24.9865 49.9486 24.944 49.805C24.9029 49.6614 24.8342 49.5374 24.7378 49.433C24.6414 49.3286 24.5124 49.2481 24.3508 49.1916C24.1892 49.135 23.9886 49.1067 23.7491 49.1067C23.6201 49.1067 23.4868 49.1147 23.3493 49.1306C23.2132 49.1451 23.0828 49.1655 22.9581 49.1916C22.8333 49.2177 22.7235 49.2474 22.6285 49.2807L22.4775 48.4998C22.5229 48.4751 22.5931 48.4497 22.688 48.4236C22.7844 48.3961 22.8957 48.3707 23.0219 48.3475C23.1494 48.3243 23.2841 48.3055 23.4259 48.291C23.569 48.2764 23.7101 48.2692 23.849 48.2692C24.2955 48.2692 24.674 48.354 24.9844 48.5237C25.2949 48.6919 25.5309 48.9269 25.6925 49.2285C25.8555 49.5302 25.937 49.8819 25.937 50.2836V50.8492C25.937 51.2364 25.8562 51.5808 25.6946 51.8825C25.5344 52.1827 25.309 52.4183 25.0184 52.5895C24.7293 52.7606 24.3891 52.8462 23.9978 52.8462Z" fill="#292929"/>
<path d="M19.1432 52.7852H17.5995V48.33H19.156C19.594 48.33 19.971 48.4192 20.2871 48.5976C20.6032 48.7745 20.8463 49.029 21.0164 49.3611C21.188 49.6932 21.2737 50.0906 21.2737 50.5532C21.2737 51.0173 21.188 51.4161 21.0164 51.7497C20.8463 52.0832 20.6018 52.3392 20.2829 52.5176C19.9654 52.696 19.5855 52.7852 19.1432 52.7852ZM18.5202 51.9781H19.1049C19.3771 51.9781 19.606 51.9288 19.7917 51.8302C19.9788 51.7301 20.1192 51.5757 20.2127 51.3668C20.3077 51.1565 20.3552 50.8853 20.3552 50.5532C20.3552 50.224 20.3077 49.955 20.2127 49.7462C20.1192 49.5373 19.9795 49.3836 19.7938 49.285C19.6082 49.1864 19.3792 49.1371 19.1071 49.1371H18.5202V51.9781Z" fill="#292929"/>
<path d="M14.704 52.8462C14.3283 52.8462 14.0023 52.7642 13.7259 52.6003C13.4509 52.435 13.2383 52.1993 13.088 51.8933C12.9392 51.5859 12.864 51.219 12.8626 50.7926V50.2879H15.9627V51.0558H13.7875V51.145C13.789 51.3249 13.8251 51.48 13.896 51.6105C13.9683 51.7411 14.0718 51.8419 14.2064 51.9129C14.3425 51.9825 14.5069 52.0173 14.6997 52.0173C14.9322 52.0173 15.1228 51.9673 15.2717 51.8672C15.4219 51.7657 15.5332 51.6272 15.6055 51.4518C15.6778 51.2748 15.7139 51.074 15.7139 50.8492V50.2836C15.7139 50.1081 15.6927 49.9486 15.6502 49.805C15.6091 49.6614 15.5403 49.5374 15.4439 49.433C15.3475 49.3286 15.2185 49.2481 15.0569 49.1916C14.8953 49.135 14.6948 49.1067 14.4552 49.1067C14.3262 49.1067 14.193 49.1147 14.0555 49.1306C13.9194 49.1451 13.789 49.1655 13.6642 49.1916C13.5395 49.2177 13.4296 49.2474 13.3347 49.2807L13.1837 48.4998C13.229 48.4751 13.2992 48.4497 13.3942 48.4236C13.4906 48.3961 13.6019 48.3707 13.728 48.3475C13.8556 48.3243 13.9903 48.3055 14.132 48.291C14.2752 48.2764 14.4162 48.2692 14.5551 48.2692C15.0016 48.2692 15.3801 48.354 15.6906 48.5237C16.001 48.6919 16.237 48.9269 16.3986 49.2285C16.5616 49.5302 16.6431 49.8819 16.6431 50.2836V50.8492C16.6431 51.2364 16.5623 51.5808 16.4007 51.8825C16.2406 52.1827 16.0152 52.4183 15.7246 52.5895C15.4354 52.7606 15.0952 52.8462 14.704 52.8462Z" fill="#292929"/>
<path d="M7.18301 48.33H8.31843L9.51765 51.3233H9.56868L10.7679 48.33H11.9033V52.7852H11.0103V49.8854H10.9741L9.84722 52.7634H9.23911L8.11219 49.8745H8.07604V52.7852H7.18301V48.33Z" fill="#292929"/>
<path d="M90.0748 39.9921V44.4472H89.1541V39.9921H90.0748Z" fill="#292929"/>
<path d="M87.4129 41.2735C87.3959 41.098 87.3229 40.9617 87.1939 40.8645C87.065 40.7673 86.8899 40.7188 86.6688 40.7188C86.5185 40.7188 86.3916 40.7405 86.2882 40.784C86.1847 40.8261 86.1053 40.8848 86.05 40.9602C85.9962 41.0356 85.9692 41.1212 85.9692 41.2169C85.9664 41.2967 85.9827 41.3663 86.0181 41.4258C86.055 41.4852 86.1053 41.5367 86.1691 41.5802C86.2329 41.6223 86.3066 41.6592 86.3902 41.6911C86.4738 41.7216 86.5632 41.7477 86.6581 41.7695L87.0494 41.8652C87.2393 41.9087 87.4137 41.9667 87.5724 42.0392C87.7312 42.1117 87.8687 42.2009 87.9849 42.3068C88.1012 42.4126 88.1912 42.5374 88.255 42.6809C88.3202 42.8245 88.3535 42.9891 88.3549 43.1747C88.3535 43.4474 88.2854 43.6838 88.1508 43.8839C88.0175 44.0826 87.8247 44.237 87.5724 44.3473C87.3215 44.456 87.0189 44.5104 86.6645 44.5104C86.313 44.5104 86.0068 44.4553 85.746 44.3451C85.4866 44.2349 85.2839 44.0717 85.1378 43.8556C84.9933 43.6381 84.9174 43.3691 84.9103 43.0486H85.8012C85.8112 43.1979 85.853 43.3227 85.9267 43.4227C86.0018 43.5213 86.1017 43.596 86.2265 43.6468C86.3526 43.6961 86.4951 43.7208 86.6539 43.7208C86.8098 43.7208 86.9452 43.6976 87.06 43.6511C87.1762 43.6047 87.2662 43.5402 87.33 43.4575C87.3938 43.3749 87.4257 43.2799 87.4257 43.1726C87.4257 43.0725 87.3967 42.9884 87.3385 42.9202C87.2818 42.8521 87.1982 42.794 87.0876 42.7462C86.9785 42.6983 86.8445 42.6548 86.6858 42.6157L86.2116 42.4939C85.8445 42.4025 85.5546 42.2596 85.342 42.0653C85.1293 41.871 85.0237 41.6092 85.0251 41.28C85.0237 41.0103 85.0939 40.7746 85.2356 40.573C85.3788 40.3714 85.5751 40.2141 85.8246 40.101C86.0741 39.9878 86.3576 39.9313 86.6751 39.9313C86.9983 39.9313 87.2804 39.9878 87.5214 40.101C87.7638 40.2141 87.9523 40.3714 88.087 40.573C88.2216 40.7746 88.2911 41.0081 88.2953 41.2735H87.4129Z" fill="#292929"/>
<path d="M81.2425 44.4472H80.2559L81.7592 39.9921H82.9457L84.4468 44.4472H83.4602L82.3694 41.0102H82.3354L81.2425 44.4472ZM81.1809 42.6961H83.5112V43.4313H81.1809V42.6961Z" fill="#292929"/>
<path d="M76.1837 44.4472V39.9921H77.1043V41.9565H77.1617L78.7288 39.9921H79.8323L78.2164 41.9869L79.8515 44.4472H78.7501L77.5572 42.6156L77.1043 43.1812V44.4472H76.1837Z" fill="#292929"/>
<path d="M75.247 39.9921V44.4473H74.3264V39.9921H75.247ZM74.792 39.5614C74.6573 39.5614 74.5418 39.5157 74.4454 39.4244C74.349 39.3315 74.3008 39.2206 74.3008 39.0915C74.3008 38.9639 74.349 38.8544 74.4454 38.763C74.5418 38.6702 74.6566 38.6238 74.7899 38.6238C74.926 38.6238 75.0415 38.6702 75.1365 38.763C75.2329 38.8544 75.2811 38.9639 75.2811 39.0915C75.2811 39.2206 75.2329 39.3315 75.1365 39.4244C75.0415 39.5157 74.9267 39.5614 74.792 39.5614Z" fill="#292929"/>
<path d="M70.749 44.4472V39.9921H71.6696V43.6706H73.5365V44.4472H70.749Z" fill="#292929"/>
<path d="M66.6111 44.4472V39.9921H68.3546C68.675 39.9921 68.9422 40.0407 69.1562 40.1378C69.3703 40.235 69.5312 40.3699 69.6389 40.5425C69.7466 40.7136 69.8005 40.9108 69.8005 41.1342C69.8005 41.3082 69.7665 41.4612 69.6984 41.5932C69.6304 41.7237 69.5368 41.831 69.4178 41.9151C69.3001 41.9978 69.1654 42.0565 69.0138 42.0913V42.1348C69.1796 42.1421 69.3348 42.1899 69.4794 42.2784C69.6254 42.3669 69.7438 42.4909 69.8345 42.6504C69.9252 42.8085 69.9706 42.997 69.9706 43.216C69.9706 43.4524 69.9132 43.6634 69.7984 43.849C69.685 44.0332 69.517 44.1789 69.2944 44.2863C69.0719 44.3936 68.7976 44.4472 68.4716 44.4472H66.6111ZM67.5318 43.6772H68.2823C68.5389 43.6772 68.726 43.6271 68.8437 43.5271C68.9613 43.4255 69.0201 43.2907 69.0201 43.1224C69.0201 42.9992 68.9911 42.8904 68.933 42.7961C68.8748 42.7019 68.7919 42.6279 68.6842 42.5742C68.5779 42.5206 68.451 42.4938 68.3036 42.4938H67.5318V43.6772ZM67.5318 41.8564H68.2143C68.3404 41.8564 68.4524 41.8339 68.5502 41.7889C68.6495 41.7425 68.7274 41.6773 68.7841 41.5932C68.8422 41.509 68.8713 41.4083 68.8713 41.2908C68.8713 41.1298 68.8153 41 68.7033 40.9014C68.5928 40.8028 68.4354 40.7535 68.2313 40.7535H67.5318V41.8564Z" fill="#292929"/>
<path d="M64.753 39.9921H65.6736V42.8853C65.6736 43.2102 65.5978 43.4944 65.4461 43.7381C65.2959 43.9817 65.0854 44.1717 64.8146 44.308C64.5439 44.4429 64.2285 44.5103 63.8684 44.5103C63.507 44.5103 63.1909 44.4429 62.9201 44.308C62.6494 44.1717 62.4389 43.9817 62.2886 43.7381C62.1384 43.4944 62.0632 43.2102 62.0632 42.8853V39.9921H62.9839V42.8048C62.9839 42.9745 63.02 43.1253 63.0923 43.2573C63.166 43.3893 63.2695 43.493 63.4028 43.5684C63.536 43.6438 63.6912 43.6815 63.8684 43.6815C64.047 43.6815 64.2022 43.6438 64.3341 43.5684C64.4673 43.493 64.5701 43.3893 64.6424 43.2573C64.7161 43.1253 64.753 42.9745 64.753 42.8048V39.9921Z" fill="#292929"/>
<path d="M58.0072 44.4472V39.9921H59.7252C60.0555 39.9921 60.3369 40.0566 60.5693 40.1857C60.8018 40.3133 60.979 40.491 61.1009 40.7187C61.2242 40.9449 61.2859 41.2059 61.2859 41.5018C61.2859 41.7976 61.2235 42.0587 61.0988 42.2849C60.974 42.5112 60.7933 42.6874 60.5566 42.8135C60.3213 42.9397 60.0364 43.0028 59.7018 43.0028H58.6068V42.2479H59.553C59.7302 42.2479 59.8762 42.2168 59.991 42.1544C60.1072 42.0906 60.1937 42.0029 60.2504 41.8912C60.3085 41.7781 60.3376 41.6483 60.3376 41.5018C60.3376 41.3539 60.3085 41.2248 60.2504 41.1146C60.1937 41.0029 60.1072 40.9166 59.991 40.8557C59.8748 40.7934 59.7273 40.7622 59.5487 40.7622H58.9279V44.4472H58.0072Z" fill="#292929"/>
<path d="M56.2667 41.2735C56.2497 41.098 56.1767 40.9617 56.0477 40.8645C55.9187 40.7673 55.7436 40.7188 55.5225 40.7188C55.3722 40.7188 55.2453 40.7405 55.1419 40.784C55.0384 40.8261 54.959 40.8848 54.9037 40.9602C54.8499 41.0356 54.8229 41.1212 54.8229 41.2169C54.8201 41.2967 54.8364 41.3663 54.8718 41.4258C54.9087 41.4852 54.959 41.5367 55.0228 41.5802C55.0866 41.6223 55.1603 41.6592 55.2439 41.6911C55.3276 41.7216 55.4169 41.7477 55.5118 41.7695L55.9031 41.8652C56.093 41.9087 56.2674 41.9667 56.4261 42.0392C56.5849 42.1117 56.7224 42.2009 56.8386 42.3068C56.9549 42.4126 57.0449 42.5374 57.1087 42.6809C57.1739 42.8245 57.2072 42.9891 57.2086 43.1747C57.2072 43.4474 57.1391 43.6838 57.0045 43.8839C56.8712 44.0826 56.6785 44.237 56.4261 44.3473C56.1752 44.456 55.8726 44.5104 55.5182 44.5104C55.1667 44.5104 54.8605 44.4553 54.5997 44.3451C54.3403 44.2349 54.1376 44.0717 53.9916 43.8556C53.847 43.6381 53.7711 43.3691 53.764 43.0486H54.655C54.6649 43.1979 54.7067 43.3227 54.7804 43.4227C54.8555 43.5213 54.9555 43.596 55.0802 43.6468C55.2064 43.6961 55.3488 43.7208 55.5076 43.7208C55.6635 43.7208 55.7989 43.6976 55.9137 43.6511C56.0299 43.6047 56.12 43.5402 56.1837 43.4575C56.2475 43.3749 56.2794 43.2799 56.2794 43.1726C56.2794 43.0725 56.2504 42.9884 56.1922 42.9202C56.1355 42.8521 56.0519 42.794 55.9413 42.7462C55.8322 42.6983 55.6982 42.6548 55.5395 42.6157L55.0653 42.4939C54.6982 42.4025 54.4083 42.2596 54.1957 42.0653C53.9831 41.871 53.8774 41.6092 53.8789 41.28C53.8774 41.0103 53.9476 40.7746 54.0894 40.573C54.2325 40.3714 54.4289 40.2141 54.6783 40.101C54.9278 39.9878 55.2113 39.9313 55.5289 39.9313C55.852 39.9313 56.1341 39.9878 56.3751 40.101C56.6175 40.2141 56.806 40.3714 56.9407 40.573C57.0754 40.7746 57.1448 41.0081 57.1491 41.2735H56.2667Z" fill="#292929"/>
<path d="M50.0582 44.4472V39.9921H52.9924V40.7687H50.9789V41.8303H52.8415V42.6069H50.9789V43.6706H53.001V44.4472H50.0582Z" fill="#292929"/>
<path d="M45.9495 44.4472V39.9921H47.6676C47.9964 39.9921 48.2771 40.0523 48.5096 40.1727C48.7435 40.2916 48.9214 40.4605 49.0433 40.6795C49.1666 40.897 49.2282 41.153 49.2282 41.4474C49.2282 41.7433 49.1659 41.9978 49.0411 42.211C48.9164 42.4227 48.7357 42.5851 48.4989 42.6982C48.2636 42.8114 47.9787 42.8679 47.6442 42.8679H46.4939V42.1109H47.4953C47.6711 42.1109 47.8171 42.0862 47.9333 42.0369C48.0496 41.9876 48.1361 41.9137 48.1928 41.8151C48.2509 41.7164 48.2799 41.5939 48.2799 41.4474C48.2799 41.2995 48.2509 41.1748 48.1928 41.0733C48.1361 40.9717 48.0489 40.8949 47.9312 40.8427C47.815 40.789 47.6683 40.7622 47.4911 40.7622H46.8702V44.4472H45.9495ZM48.3012 42.4198L49.3835 44.4472H48.3671L47.3082 42.4198H48.3012Z" fill="#292929"/>
<path d="M43.4438 39.9921V44.4472H42.6486L40.7541 41.6432H40.7222V44.4472H39.8015V39.9921H40.6095L42.4891 42.794H42.5274V39.9921H43.4438Z" fill="#292929"/>
<path d="M35.8933 44.4472H34.9067L36.41 39.9921H37.5964L39.0976 44.4472H38.111L37.0202 41.0102H36.9862L35.8933 44.4472ZM35.8316 42.6961H38.162V43.4313H35.8316V42.6961Z" fill="#292929"/>
<path d="M34.3848 41.5519H33.4535C33.4365 41.4287 33.4017 41.3192 33.3493 41.2234C33.2968 41.1263 33.2295 41.0436 33.1473 40.9755C33.0651 40.9073 32.9701 40.8551 32.8624 40.8188C32.756 40.7826 32.6405 40.7644 32.5158 40.7644C32.2904 40.7644 32.0941 40.8217 31.9268 40.9363C31.7595 41.0494 31.6298 41.2147 31.5377 41.4323C31.4456 41.6484 31.3995 41.9109 31.3995 42.2198C31.3995 42.5374 31.4456 42.8042 31.5377 43.0203C31.6313 43.2364 31.7617 43.3995 31.9289 43.5097C32.0962 43.62 32.2897 43.6751 32.5094 43.6751C32.6327 43.6751 32.7468 43.6584 32.8517 43.625C32.958 43.5917 33.0523 43.5431 33.1345 43.4793C33.2167 43.414 33.2848 43.335 33.3386 43.2422C33.3939 43.1494 33.4322 43.0435 33.4535 42.9246L34.3848 42.9289C34.3607 43.1334 34.3004 43.3306 34.204 43.5206C34.1091 43.7092 33.9808 43.8781 33.8192 44.0275C33.659 44.1754 33.4676 44.2929 33.2451 44.3799C33.024 44.4655 32.7738 44.5082 32.4945 44.5082C32.1061 44.5082 31.7588 44.4183 31.4526 44.2385C31.1479 44.0587 30.9069 43.7983 30.7297 43.4575C30.5539 43.1167 30.4661 42.7041 30.4661 42.2198C30.4661 41.7339 30.5554 41.3206 30.734 40.9798C30.9126 40.639 31.155 40.3794 31.4612 40.201C31.7673 40.0212 32.1118 39.9313 32.4945 39.9313C32.7468 39.9313 32.9807 39.9675 33.1962 40.04C33.4131 40.1126 33.6051 40.2184 33.7724 40.3576C33.9397 40.4954 34.0758 40.6644 34.1806 40.8645C34.287 41.0646 34.355 41.2938 34.3848 41.5519Z" fill="#292929"/>
<path d="M26.0319 39.9921H27.0631L28.0561 41.9108H28.0986L29.0916 39.9921H30.1228L28.5345 42.8723V44.4472H27.6202V42.8723L26.0319 39.9921Z" fill="#292929"/>
<path d="M22.8234 44.4472H21.8368L23.3401 39.9921H24.5266L26.0277 44.4472H25.0411L23.9503 41.0102H23.9163L22.8234 44.4472ZM22.7618 42.6961H25.0921V43.4313H22.7618V42.6961Z" fill="#292929"/>
<path d="M17.9348 44.4472V39.9921H19.6783C19.9987 39.9921 20.2659 40.0407 20.4799 40.1378C20.694 40.235 20.8549 40.3699 20.9626 40.5425C21.0703 40.7136 21.1242 40.9108 21.1242 41.1342C21.1242 41.3082 21.0902 41.4612 21.0221 41.5932C20.9541 41.7237 20.8605 41.831 20.7415 41.9151C20.6238 41.9978 20.4891 42.0565 20.3375 42.0913V42.1348C20.5033 42.1421 20.6585 42.1899 20.8031 42.2784C20.9491 42.3669 21.0675 42.4909 21.1582 42.6504C21.2489 42.8085 21.2943 42.997 21.2943 43.216C21.2943 43.4524 21.2369 43.6634 21.1221 43.849C21.0087 44.0332 20.8407 44.1789 20.6181 44.2863C20.3956 44.3936 20.1213 44.4472 19.7953 44.4472H17.9348ZM18.8554 43.6772H19.606C19.8626 43.6772 20.0497 43.6271 20.1674 43.5271C20.285 43.4255 20.3438 43.2907 20.3438 43.1224C20.3438 42.9992 20.3148 42.8904 20.2567 42.7961C20.1985 42.7019 20.1156 42.6279 20.0079 42.5742C19.9016 42.5206 19.7747 42.4938 19.6273 42.4938H18.8554V43.6772ZM18.8554 41.8564H19.538C19.6641 41.8564 19.7761 41.8339 19.8739 41.7889C19.9732 41.7425 20.0511 41.6773 20.1078 41.5932C20.1659 41.509 20.195 41.4083 20.195 41.2908C20.195 41.1298 20.139 41 20.027 40.9014C19.9165 40.8028 19.7591 40.7535 19.555 40.7535H18.8554V41.8564Z" fill="#292929"/>
<path d="M13.8261 44.4472V39.9921H15.5441C15.873 39.9921 16.1537 40.0523 16.3861 40.1727C16.62 40.2916 16.7979 40.4605 16.9198 40.6795C17.0432 40.897 17.1048 41.153 17.1048 41.4474C17.1048 41.7433 17.0425 41.9978 16.9177 42.211C16.793 42.4227 16.6122 42.5851 16.3755 42.6982C16.1402 42.8114 15.8553 42.8679 15.5208 42.8679H14.3704V42.1109H15.3719C15.5477 42.1109 15.6937 42.0862 15.8099 42.0369C15.9262 41.9876 16.0126 41.9137 16.0693 41.8151C16.1274 41.7164 16.1565 41.5939 16.1565 41.4474C16.1565 41.2995 16.1274 41.1748 16.0693 41.0733C16.0126 40.9717 15.9255 40.8949 15.8078 40.8427C15.6916 40.789 15.5449 40.7622 15.3677 40.7622H14.7468V44.4472H13.8261ZM16.1778 42.4198L17.26 44.4472H16.2437L15.1848 42.4198H16.1778Z" fill="#292929"/>
<path d="M10.9306 44.5082C10.5549 44.5082 10.2289 44.4263 9.95247 44.2624C9.67747 44.0971 9.46485 43.8614 9.31459 43.5554C9.16575 43.248 9.09062 42.8811 9.08921 42.4547V41.95H12.1893V42.7179H10.0141V42.8071C10.0156 42.9869 10.0517 43.1421 10.1226 43.2726C10.1949 43.4032 10.2983 43.5039 10.433 43.575C10.5691 43.6446 10.7335 43.6794 10.9263 43.6794C11.1588 43.6794 11.3494 43.6294 11.4983 43.5293C11.6485 43.4278 11.7598 43.2893 11.8321 43.1138C11.9044 42.9369 11.9405 42.736 11.9405 42.5113V41.9457C11.9405 41.7702 11.9193 41.6107 11.8767 41.4671C11.8356 41.3235 11.7669 41.1995 11.6705 41.0951C11.5741 40.9907 11.4451 40.9102 11.2835 40.8536C11.1219 40.7971 10.9213 40.7688 10.6818 40.7688C10.5528 40.7688 10.4195 40.7768 10.282 40.7927C10.146 40.8072 10.0156 40.8275 9.89081 40.8536C9.76607 40.8797 9.65621 40.9095 9.56124 40.9428L9.41027 40.1619C9.45563 40.1372 9.5258 40.1118 9.62077 40.0857C9.71716 40.0582 9.82844 40.0328 9.9546 40.0096C10.0822 39.9864 10.2168 39.9675 10.3586 39.953C10.5018 39.9385 10.6428 39.9313 10.7817 39.9313C11.2282 39.9313 11.6067 40.0161 11.9171 40.1858C12.2276 40.354 12.4636 40.589 12.6252 40.8906C12.7882 41.1923 12.8697 41.5439 12.8697 41.9457V42.5113C12.8697 42.8985 12.7889 43.2429 12.6273 43.5446C12.4671 43.8448 12.2418 44.0804 11.9512 44.2515C11.662 44.4227 11.3218 44.5082 10.9306 44.5082Z" fill="#292929"/>
<path d="M4.84771 44.4472V43.8882L7.02076 40.7687H4.84346V39.9921H8.17745V40.5512L6.00228 43.6706H8.1817V44.4472H4.84771Z" fill="#292929"/>
<path d="M0.986588 44.4472H0L1.50327 39.9921H2.68973L4.19087 44.4472H3.20429L2.11351 41.0102H2.07949L0.986588 44.4472ZM0.924927 42.6961H3.25532V43.4313H0.924927V42.6961Z" fill="#292929"/>
<defs>
<clipPath id="clip0_2_17110">
<rect width="33.075" height="36.4966" fill="white" transform="translate(28.4999)"/>
</clipPath>
</defs>
</svg>
