<svg width="42" height="42" viewBox="0 0 42 42" fill="none" xmlns="http://www.w3.org/2000/svg">
<path d="M20.5347 41C31.5804 41 40.5347 32.0457 40.5347 21C40.5347 9.9543 31.5804 1 20.5347 1C9.48897 1 0.534668 9.9543 0.534668 21C0.534668 32.0457 9.48897 41 20.5347 41Z" stroke="#B48C1E" stroke-miterlimit="10"/>
<path d="M15.8917 13.3771C15.8917 14.415 15.2332 15.2632 14.0055 15.2632C12.8672 15.2632 12.1194 14.415 12.1194 13.4663C12.1194 12.4284 12.8783 11.4797 14.0055 11.4797C15.1328 11.4797 15.8917 12.328 15.8917 13.3659V13.3771Z" fill="#B48C1E"/>
<path d="M12.1194 28.4775H15.8917V16.2007H12.1194V28.4775Z" fill="#B48C1E"/>
<path d="M24.9542 16.3904C22.9675 16.3904 21.8403 17.5176 21.3716 18.2765H21.2711L21.0814 16.6694H17.6774C17.6774 17.7073 17.7667 18.935 17.7667 20.3524V28.4774H21.539V21.7698C21.539 21.3904 21.539 21.1114 21.6283 20.8212C21.9073 20.1627 22.3872 19.3145 23.4251 19.3145C24.7421 19.3145 25.3113 20.4417 25.3113 21.9596V28.4774H29.0836V21.4908C29.0836 17.9975 27.2867 16.3904 24.9318 16.3904H24.9542Z" fill="#B48C1E"/>
</svg>
