<svg width="42" height="42" viewBox="0 0 42 42" fill="none" xmlns="http://www.w3.org/2000/svg">
<path d="M20.5347 41C31.5804 41 40.5347 32.0457 40.5347 21C40.5347 9.9543 31.5804 1 20.5347 1C9.48897 1 0.534668 9.9543 0.534668 21C0.534668 32.0457 9.48897 41 20.5347 41Z" stroke="#B48C1E" stroke-miterlimit="10"/>
<path d="M25.4116 15.0847C24.8201 15.0847 24.329 15.5646 24.329 16.1673C24.329 16.77 24.8089 17.2499 25.4116 17.2499C26.0142 17.2499 26.4942 16.77 26.4942 16.1673C26.4942 15.5646 26.0142 15.0847 25.4116 15.0847Z" fill="white"/>
<path d="M20.6125 16.4685C18.1125 16.4685 16.0813 18.4998 16.0813 20.9998C16.0813 23.4998 18.1125 25.531 20.6125 25.531C23.1125 25.531 25.1438 23.4998 25.1438 20.9998C25.1438 18.4998 23.1125 16.4685 20.6125 16.4685ZM20.6125 23.9015C19.0054 23.9015 17.7108 22.5957 17.7108 20.9998C17.7108 19.4038 19.0166 18.098 20.6125 18.098C22.2085 18.098 23.5143 19.4038 23.5143 20.9998C23.5143 22.5957 22.2085 23.9015 20.6125 23.9015Z" fill="#B48C1E"/>
<path d="M24.2064 30.2076H16.8515C13.8046 30.2076 11.3158 27.7299 11.3158 24.6719V17.317C11.3158 14.2701 13.7935 11.7812 16.8515 11.7812H24.2064C27.2533 11.7812 29.7421 14.2589 29.7421 17.317V24.6719C29.7421 27.7188 27.2645 30.2076 24.2064 30.2076ZM16.8627 13.5223C14.7645 13.5223 13.068 15.2299 13.068 17.317V24.6719C13.068 26.7701 14.7756 28.4665 16.8627 28.4665H24.2176C26.3158 28.4665 28.0122 26.7589 28.0122 24.6719V17.317C28.0122 15.2188 26.3046 13.5223 24.2176 13.5223H16.8627Z" fill="#B48C1E"/>
</svg>
