<svg width="121" height="66" viewBox="0 0 121 66" fill="none" xmlns="http://www.w3.org/2000/svg">
<g clip-path="url(#clip0_2_17381)">
<path d="M11.1909 60.6122H10.9302L6.46588 44.7783H0.437378V65.4412H4.28258V49.3117H4.57586L9.20314 65.4412H12.8854L17.5453 49.3117H17.806V65.4412H21.6512V44.7783H15.6227L11.1909 60.6122Z" fill="#2463EB"/>
<path d="M48.6981 3.19018L48.5678 3.81432L47.6228 8.08487L46.8407 11.5999L42.8977 29.2734C42.7675 30.3245 42.5393 31.3101 42.246 32.2299C41.0078 36.1391 38.4985 38.7999 35.631 38.7999H35.1748V11.8298H17.2196C15.851 11.8298 14.743 13.1439 14.743 14.7863V35.8434C14.743 37.4859 15.851 38.7999 17.2196 38.7999H27.3214V62.8135C27.3214 64.456 28.4293 65.77 29.798 65.77H46.3846V44.91C46.3846 40.8694 49.6432 37.5845 53.6513 37.5845H62.026L67.8591 11.5999L70.2705 0.824951H50.9141C49.9365 0.824951 49.0892 1.77761 48.6981 3.19018Z" fill="#2463EB"/>
<path d="M67.4027 54.4365C66.6205 53.9438 65.643 53.5168 64.4373 53.2211L60.592 52.367C59.8751 52.2356 59.2886 52.0386 58.8649 51.8085C58.4413 51.5786 58.1154 51.3158 57.92 50.9873C57.7244 50.6588 57.6267 50.2974 57.6267 49.8376C57.6267 49.3119 57.7571 48.852 58.0503 48.4578C58.311 48.0964 58.7346 47.8008 59.256 47.6038C59.8099 47.4067 60.4617 47.3409 61.2763 47.3409C62.1236 47.3409 62.808 47.4723 63.3618 47.7022C63.9158 47.9322 64.3395 48.2935 64.6002 48.8191C64.8609 49.3119 65.0238 49.9689 65.0238 50.7574H68.9993C69.0319 49.3776 68.7386 48.195 68.1196 47.2094C67.5329 46.224 66.6205 45.4684 65.48 44.9756C64.3069 44.4501 62.9057 44.1873 61.2763 44.1873C59.647 44.1873 58.2784 44.4172 57.1379 44.8771C55.9974 45.337 55.1175 46.0269 54.4983 46.9139C53.8792 47.8008 53.586 48.8849 53.586 50.1332C53.586 51.1187 53.7814 51.9728 54.1725 52.6955C54.5635 53.4182 55.1501 54.0423 55.8996 54.5351C56.6816 55.0279 57.6592 55.4221 58.8649 55.7177L62.254 56.5062C63.1338 56.7361 63.8181 56.966 64.3069 57.1959C64.7957 57.426 65.1542 57.7216 65.3497 58.0501C65.5452 58.3786 65.6755 58.8056 65.6755 59.3313C65.6755 59.9883 65.5126 60.5468 65.2193 60.9738C64.8934 61.4008 64.4373 61.7294 63.7856 61.9264C63.1338 62.1235 62.3517 62.255 61.3742 62.255C60.3639 62.255 59.5167 62.1235 58.8976 61.8608C58.2784 61.5979 57.8221 61.2037 57.5289 60.6124C57.2356 60.054 57.0401 59.2656 57.0075 58.3129H52.8691C52.8364 59.8897 53.1624 61.2037 53.7814 62.255C54.4006 63.3061 55.3456 64.0946 56.5839 64.6202C57.8548 65.1457 59.4189 65.4086 61.2763 65.4086C63.1338 65.4086 64.6654 65.1787 65.9036 64.6859C67.1419 64.1931 68.0869 63.4704 68.7386 62.5506C69.3903 61.5979 69.6837 60.4482 69.6837 59.0685C69.6837 58.0173 69.4882 57.0975 69.0971 56.3091C68.7713 55.5864 68.1846 54.9293 67.4027 54.4365Z" fill="#2463EB"/>
<path d="M77.3743 45.8625H73.5942V50.2645H70.8895V52.9911H73.5942V60.8423C73.5942 61.8607 73.7246 62.7148 73.9853 63.339C74.246 63.9631 74.6696 64.4229 75.2562 64.7186C75.8427 65.0143 76.6574 65.1457 77.6676 65.1457H80.8284V62.0578H79.134C78.6452 62.0578 78.2867 61.992 78.026 61.8936C77.7653 61.7621 77.5699 61.5978 77.472 61.3679C77.3743 61.138 77.3091 60.8095 77.3091 60.4153V53.024H80.7959V50.2973H77.3091V45.8625H77.3743Z" fill="#2463EB"/>
<path d="M105.692 50.5604C105.105 50.9218 104.649 51.3816 104.323 51.9401C104.128 52.2686 103.965 52.5971 103.834 52.9255V50.2319H100.152V65.113H103.932V57.1304C103.932 56.4077 104.063 55.7507 104.356 55.1593C104.649 54.5681 105.073 54.141 105.627 53.7797C106.181 53.4511 106.832 53.2869 107.582 53.2869H109.211V49.969H107.777C106.963 50.0348 106.278 50.2319 105.692 50.5604Z" fill="#2463EB"/>
<path d="M120.062 53.0243V50.2977H116.576V45.8958H112.796V50.2977H110.091V53.0243H112.796V60.8755C112.796 61.8939 112.926 62.748 113.187 63.3722C113.447 63.9963 113.871 64.4563 114.457 64.7518C115.044 65.0475 115.859 65.179 116.869 65.179H120.03V62.091H118.335C117.846 62.091 117.488 62.0254 117.227 61.9268C116.967 61.7953 116.771 61.631 116.673 61.4011C116.576 61.1712 116.51 60.8427 116.51 60.4485V53.0572H120.062V53.0243Z" fill="#2463EB"/>
<path d="M94.1566 51.3815C94.0262 51.3159 93.8958 51.2173 93.7655 51.1516C93.6677 51.0858 93.57 51.0202 93.4397 50.9874C93.4397 50.9874 93.4397 50.9874 93.407 50.9874C93.3093 50.9217 93.1789 50.8887 93.0812 50.8231C92.8205 50.7245 92.5924 50.626 92.3317 50.5603C92.2665 50.5274 92.1688 50.4946 92.0711 50.4946C91.9732 50.4617 91.9081 50.4289 91.8103 50.4289C91.7452 50.3961 91.68 50.3961 91.5823 50.3632C91.4519 50.3303 91.3215 50.2975 91.1912 50.2975C91.0608 50.2646 90.9304 50.2646 90.8002 50.2318C90.5395 50.199 90.2787 50.199 89.9855 50.199C89.3011 50.199 88.6494 50.2975 88.0303 50.4617C87.7696 50.5274 87.5415 50.5932 87.3133 50.6917C87.0853 50.7903 86.8572 50.8887 86.6291 50.9874C85.9447 51.3159 85.293 51.7429 84.739 52.2685C84.6413 52.367 84.5435 52.4328 84.4458 52.5313C83.0445 53.9439 82.1647 55.9149 82.1647 58.083C82.1647 58.2801 82.1647 58.5101 82.1973 58.7072C86.7268 55.0936 93.2768 52.7941 97.8062 52.8926V50.5932H94.1239V51.3815H94.1566Z" fill="#2463EB"/>
<path d="M85.2273 64.3246C88.323 59.4627 93.6345 55.1922 97.8708 53.8124V53.5168C90.7996 54.7322 84.5756 59.7583 82.8811 61.2366C83.3699 62.4521 84.1845 63.5362 85.2273 64.3246Z" fill="#2463EB"/>
<path d="M87.2153 65.4744C88.0952 65.8358 89.0728 66 90.0503 66C91.5493 66 92.9505 65.573 94.1562 64.8175V65.5072H97.8385V54.4368C92.6573 57.459 88.9098 62.715 87.2153 65.4744Z" fill="#2463EB"/>
</g>
<defs>
<clipPath id="clip0_2_17381">
<rect width="119.625" height="65.175" fill="white" transform="translate(0.437256 0.824951)"/>
</clipPath>
</defs>
</svg>
