<svg width="244" height="58" viewBox="0 0 244 58" fill="none" xmlns="http://www.w3.org/2000/svg">
<g clip-path="url(#clip0_2_17272)">
<mask id="mask0_2_17272" style="mask-type:luminance" maskUnits="userSpaceOnUse" x="0" y="0" width="244" height="58">
<path d="M243.999 0.25H0.623901V58H243.999V0.25Z" fill="white"/>
</mask>
<g mask="url(#mask0_2_17272)">
<path d="M107.535 15.9833H107.607L110.603 8.32031H114.286L109.208 19.663V25.9489H105.854V19.4483L100.871 8.32031H104.554L107.542 15.9833H107.535Z" fill="black"/>
<path d="M122.475 22.1283H118.128L117.149 25.9413H113.635L118.566 8.31274H122.059L126.991 25.9413H123.469L122.475 22.1283ZM118.822 19.4407H121.789L120.342 13.8434H120.269L118.822 19.4407Z" fill="black"/>
<path d="M131.754 18.8781V25.9488H128.387V8.32764H133.596C135.327 8.32764 136.686 8.78671 137.673 9.69734C138.659 10.608 139.163 11.8814 139.163 13.5103C139.163 14.421 138.951 15.2132 138.535 15.887C138.118 16.5607 137.512 17.0864 136.722 17.4862C137.628 17.7898 138.287 18.3006 138.681 19.0113C139.075 19.7222 139.28 20.6106 139.28 21.6768V22.9577C139.28 23.4537 139.338 23.9646 139.448 24.505C139.557 25.0455 139.755 25.4379 140.047 25.6896V25.9413H136.555C136.277 25.6822 136.102 25.2602 136.021 24.6753C135.948 24.0905 135.904 23.5055 135.904 22.928V21.6916C135.904 20.7957 135.722 20.0998 135.356 19.6111C134.991 19.1225 134.465 18.8707 133.778 18.8707H131.747L131.754 18.8781ZM131.754 16.2127H133.573C134.297 16.2127 134.852 15.9906 135.225 15.5538C135.598 15.1169 135.795 14.4876 135.795 13.6806C135.795 12.8736 135.604 12.2072 135.232 11.7186C134.859 11.2374 134.312 10.993 133.596 10.993H131.754V16.2127Z" fill="black"/>
<path d="M149.603 22.1283H145.256L144.277 25.9413H140.763L145.694 8.31274H149.187L154.118 25.9413H150.597L149.603 22.1283ZM145.95 19.4407H148.917L147.47 13.8434H147.397L145.95 19.4407Z" fill="black"/>
<path d="M155.522 25.9489V8.32031H160.884C162.703 8.32031 164.201 9.00891 165.392 10.386C166.576 11.7631 167.175 13.5252 167.175 15.6798V18.5969C167.175 20.7588 166.583 22.5283 165.392 23.8906C164.208 25.2603 162.703 25.9415 160.884 25.9415H155.522V25.9489ZM158.889 10.9931V23.2835H160.884C161.754 23.2835 162.455 22.8466 162.988 21.973C163.522 21.0994 163.792 19.974 163.792 18.5969V15.6575C163.792 14.2953 163.522 13.1772 162.988 12.3035C162.455 11.43 161.754 10.9931 160.884 10.9931H158.889Z" fill="black"/>
<path d="M173.085 25.9489H169.725V8.32031H173.085V25.9489Z" fill="black"/>
<path d="M187.362 20.4699L187.383 20.5439C187.413 22.4319 186.938 23.846 185.959 24.7863C184.98 25.7266 183.57 26.1931 181.75 26.1931C179.931 26.1931 178.397 25.6378 177.294 24.5198C176.198 23.4018 175.643 21.8174 175.643 19.7517V14.5246C175.643 12.4737 176.176 10.8819 177.236 9.75653C178.302 8.62372 179.734 8.06104 181.546 8.06104C183.453 8.06104 184.914 8.52744 185.93 9.46778C186.945 10.408 187.442 11.8222 187.413 13.7176L187.391 13.7916H184.118C184.118 12.6588 183.921 11.8741 183.526 11.4149C183.131 10.9633 182.474 10.7338 181.546 10.7338C180.698 10.7338 180.071 11.0448 179.646 11.6593C179.222 12.2738 179.011 13.2215 179.011 14.495V19.7517C179.011 21.0325 179.237 21.9876 179.69 22.6022C180.143 23.2167 180.83 23.5277 181.744 23.5277C182.583 23.5277 183.182 23.3056 183.548 22.8539C183.913 22.4023 184.096 21.61 184.096 20.4625H187.354L187.362 20.4699Z" fill="black"/>
<path d="M193.046 25.9489H189.685V8.32031H193.046V25.9489Z" fill="black"/>
<path d="M109.653 47.9088H109.727L112.985 34.8336H117.391V52.4621H114.045V41.3564L113.971 41.3415L110.83 52.4547H108.572L105.452 41.423L105.379 41.4378V52.4547H102.019V34.8262H106.402L109.639 47.9013L109.653 47.9088Z" fill="black"/>
<path d="M132.15 34.8261V46.339C132.15 48.3381 131.579 49.9003 130.447 51.0257C129.314 52.1511 127.832 52.7064 126.005 52.7064C124.178 52.7064 122.717 52.1436 121.585 51.0183C120.452 49.8929 119.889 48.3306 119.889 46.339V34.8261H123.25V46.339C123.25 47.5385 123.499 48.4565 123.988 49.0933C124.485 49.73 125.157 50.041 126.005 50.041C126.852 50.041 127.553 49.7226 128.043 49.0933C128.533 48.4639 128.781 47.5458 128.781 46.3316V34.8186H132.15V34.8261ZM124.792 32.9973H121.797V30.6133H124.792V32.9973ZM130.227 32.9973H127.239V30.6133H130.227V32.9973Z" fill="black"/>
<path d="M137.826 49.7966H144.146V52.462H134.144V50.7443L140.31 37.5137H134.1V34.8408H144.015V36.4993L137.826 49.804V49.7966Z" fill="black"/>
<path d="M154.111 48.6417H149.764L148.785 52.4547H145.271L150.203 34.8262H153.695L158.626 52.4547H155.105L154.111 48.6417ZM150.458 45.9541H153.425L151.978 40.3568H151.905L150.458 45.9541Z" fill="black"/>
<path d="M164.31 45.0582H163.39V52.4547H160.022V34.8262H163.39V42.0449H164.084L167.774 34.8262H171.953L166.934 42.8741L172.325 52.4547H168.022L164.303 45.0582H164.31Z" fill="black"/>
<path d="M177.433 32.9973H173.685V30.1172H177.433V32.9973ZM177.221 52.4546H173.86V34.826H177.221V52.4546Z" fill="black"/>
<path d="M183.468 45.3839V52.4546H180.099V34.8408H185.308C187.04 34.8408 188.399 35.2999 189.385 36.2106C190.371 37.1212 190.876 38.3947 190.876 40.0236C190.876 40.9342 190.664 41.7264 190.248 42.4001C189.831 43.0739 189.225 43.5996 188.436 43.9994C189.342 44.303 189.999 44.8138 190.394 45.5246C190.788 46.2354 190.993 47.1238 190.993 48.19V49.4709C190.993 49.9669 191.051 50.4778 191.161 51.0182C191.271 51.5587 191.468 51.9512 191.76 52.2029V52.4546H188.268C187.99 52.1954 187.815 51.7735 187.734 51.1885C187.661 50.6036 187.617 50.0188 187.617 49.4413V48.2047C187.617 47.3089 187.434 46.613 187.07 46.1243C186.704 45.6356 186.178 45.3839 185.491 45.3839H183.46H183.468ZM183.468 42.7185H185.287C186.01 42.7185 186.566 42.4964 186.938 42.0596C187.311 41.6227 187.508 40.9934 187.508 40.1864C187.508 39.3794 187.318 38.713 186.945 38.2244C186.572 37.7432 186.024 37.4988 185.308 37.4988H183.468V42.7185Z" fill="black"/>
<path d="M198.89 52.7287C197.671 52.7287 196.677 52.5139 195.917 52.0845C195.157 51.6551 194.573 51.0627 194.156 50.315C193.74 49.5598 193.462 48.6713 193.323 47.6496C193.184 46.6279 193.111 45.5173 193.111 44.3253V43.1999C193.111 42.8297 193.126 42.4521 193.162 42.0745H201.287C201.258 41.2009 201.199 40.4457 201.119 39.8089C201.038 39.1722 200.907 38.6465 200.724 38.2245C200.542 37.8025 200.308 37.4915 200.015 37.2916C199.723 37.0917 199.344 36.9955 198.89 36.9955C198.16 36.9955 197.641 37.2546 197.349 37.7729C197.057 38.2912 196.852 39.0982 196.735 40.1939H193.236C193.33 39.3203 193.491 38.5281 193.711 37.8099C193.929 37.0991 194.251 36.492 194.675 35.9886C195.098 35.4851 195.646 35.0927 196.326 34.8262C197.006 34.5522 197.853 34.4189 198.884 34.4189C200.206 34.4189 201.258 34.6485 202.039 35.1001C202.821 35.5518 203.42 36.1885 203.837 36.9955C204.253 37.8025 204.523 38.7798 204.64 39.9126C204.765 41.0453 204.823 42.2819 204.823 43.6219C204.823 44.962 204.765 46.2355 204.64 47.3535C204.517 48.4714 204.246 49.4265 203.837 50.2335C203.428 51.0406 202.821 51.6551 202.039 52.0919C201.258 52.5288 200.206 52.7509 198.884 52.7509L198.89 52.7287ZM198.89 50.2261C199.365 50.2261 199.752 50.1299 200.053 49.93C200.352 49.7301 200.593 49.4118 200.775 48.9749C200.958 48.5381 201.082 47.9828 201.156 47.3017C201.228 46.6204 201.273 45.7987 201.287 44.8214H196.64C196.655 45.7987 196.692 46.6204 196.75 47.3017C196.809 47.9828 196.918 48.5381 197.078 48.9749C197.239 49.4118 197.466 49.7301 197.751 49.93C198.035 50.1299 198.416 50.2261 198.89 50.2261Z" fill="black"/>
<path d="M210.398 49.7964H216.886V52.4618H207.03V34.8333H210.398V49.7964Z" fill="black"/>
<path d="M224.199 52.7287C222.979 52.7287 221.985 52.5139 221.226 52.0845C220.466 51.6551 219.882 51.0627 219.465 50.315C219.048 49.5598 218.77 48.6713 218.632 47.6496C218.493 46.6279 218.42 45.5173 218.42 44.3253V43.1999C218.42 42.8297 218.435 42.4521 218.471 42.0745H226.595C226.567 41.2009 226.508 40.4457 226.427 39.8089C226.347 39.1722 226.216 38.6465 226.033 38.2245C225.851 37.8025 225.616 37.4915 225.324 37.2916C225.032 37.0917 224.652 36.9955 224.199 36.9955C223.469 36.9955 222.95 37.2546 222.658 37.7729C222.366 38.2912 222.161 39.0982 222.044 40.1939H218.544C218.639 39.3203 218.8 38.5281 219.02 37.8099C219.238 37.0991 219.56 36.492 219.984 35.9886C220.407 35.4851 220.955 35.0927 221.635 34.8262C222.315 34.5522 223.162 34.4189 224.192 34.4189C225.514 34.4189 226.567 34.6485 227.348 35.1001C228.13 35.5518 228.729 36.1885 229.146 36.9955C229.562 37.8025 229.832 38.7798 229.949 39.9126C230.074 41.0453 230.131 42.2819 230.131 43.6219C230.131 44.962 230.074 46.2355 229.949 47.3535C229.825 48.4714 229.555 49.4265 229.146 50.2335C228.736 51.0406 228.13 51.6551 227.348 52.0919C226.567 52.5288 225.514 52.7509 224.192 52.7509L224.199 52.7287ZM224.199 50.2261C224.674 50.2261 225.061 50.1299 225.36 49.93C225.661 49.7301 225.902 49.4118 226.084 48.9749C226.267 48.5381 226.391 47.9828 226.464 47.3017C226.537 46.6204 226.581 45.7987 226.595 44.8214H221.949C221.963 45.7987 222 46.6204 222.059 47.3017C222.117 47.9828 222.226 48.5381 222.387 48.9749C222.548 49.4118 222.775 49.7301 223.06 49.93C223.344 50.1299 223.724 50.2261 224.199 50.2261Z" fill="black"/>
<path d="M235.707 45.3839V52.4546H232.338V34.8408H237.547C239.279 34.8408 240.638 35.2999 241.624 36.2106C242.61 37.1212 243.114 38.3947 243.114 40.0236C243.114 40.9342 242.903 41.7264 242.487 42.4001C242.07 43.0739 241.464 43.5996 240.675 43.9994C241.581 44.303 242.238 44.8138 242.633 45.5246C243.027 46.2354 243.232 47.1238 243.232 48.19V49.4709C243.232 49.9669 243.29 50.4778 243.4 51.0182C243.51 51.5587 243.707 51.9512 243.999 52.2029V52.4546H240.507C240.229 52.1954 240.054 51.7735 239.973 51.1885C239.9 50.6036 239.856 50.0188 239.856 49.4413V48.2047C239.856 47.3089 239.673 46.613 239.309 46.1243C238.943 45.6356 238.417 45.3839 237.73 45.3839H235.699H235.707ZM235.707 42.7185H237.526C238.249 42.7185 238.804 42.4964 239.177 42.0596C239.55 41.6227 239.747 40.9934 239.747 40.1864C239.747 39.3794 239.557 38.713 239.184 38.2244C238.811 37.7432 238.263 37.4988 237.547 37.4988H235.707V42.7185Z" fill="black"/>
<path d="M26.8821 19.0113L31.105 9.55666H43.7521C46.0169 9.55666 48.0699 10.8967 49.0052 12.992L55.9387 28.5105L58.7589 22.2024L64.3992 9.57885V9.55666H64.4065H77.0315C77.258 9.55666 77.4845 9.57885 77.711 9.60847C75.7968 4.15923 70.6824 0.25 64.6476 0.25H14.4982C13.0516 0.25 11.6561 0.472116 10.3483 0.894134L22.6592 28.4735L26.8821 19.0187V19.0113Z" fill="#FFE000"/>
<path d="M85.9455 58L78.5222 41.6005V41.2081L72.575 27.8886L64.1291 46.7906H52.4684C49.5971 46.7906 46.9889 45.0877 45.798 42.4297L39.2881 27.8516L36.2926 34.5446L30.8276 46.7832L25.8156 58H85.9381H85.9455Z" fill="#FFE000"/>
<path d="M14.4762 46.783L0.62384 15.761V43.94C0.62384 50.0408 4.46687 55.2235 9.83686 57.1707L12.9274 50.2481L14.4762 46.7905V46.783Z" fill="#FFE000"/>
<path d="M58.7588 22.1948L55.9386 28.5029L49.0051 12.9845C48.0699 10.8965 46.0168 9.54907 43.752 9.54907H31.1123L39.2879 27.8514L45.7976 42.4295C46.9813 45.0801 49.5896 46.7904 52.4682 46.7904H64.1069L55.9386 28.5103L58.7588 22.2023V22.1948Z" fill="#FFE000"/>
<path d="M55.9386 28.5029L49.0051 12.9845C48.0699 10.8965 46.0168 9.54907 43.752 9.54907H31.1123L45.7976 42.4221C46.9813 45.0728 49.5896 46.783 52.4682 46.783H64.1069L55.9386 28.5029Z" fill="url(#paint0_linear_2_17272)"/>
<path d="M58.759 22.1951L55.9388 28.5031L64.107 46.7832H64.129L72.5748 27.8887L64.3993 9.57153L58.759 22.1951Z" fill="#FFE000"/>
<path d="M58.759 22.1951L55.9388 28.5031L64.107 46.7832H64.129L72.5748 27.8887L64.3993 9.57153L58.759 22.1951Z" fill="url(#paint1_linear_2_17272)"/>
<path d="M58.759 22.1951L55.9388 28.5031L64.107 46.7832H64.129L72.5748 27.8887L64.3993 9.57153L58.759 22.1951Z" fill="url(#paint2_linear_2_17272)"/>
<path d="M14.4764 46.7831L22.6592 28.466L10.3484 0.894043C9.83697 5.35856 6.90718 13.3621 1.2303 15.5684L0.631195 15.7683L14.4836 46.7905L14.4764 46.7831Z" fill="#FFE000"/>
<path d="M30.8346 46.7831L22.6591 28.4734L14.4761 46.7831H30.8346Z" fill="#FFE000"/>
<path d="M30.8346 46.7831L22.6591 28.4734L14.4761 46.7831H30.8346Z" fill="url(#paint3_linear_2_17272)"/>
<path d="M22.6592 28.4734L10.3483 0.894043C4.71528 2.67837 0.62384 8.00914 0.62384 14.3098V15.761L14.4763 46.7831H30.8348L22.6592 28.466V28.4734Z" fill="url(#paint4_linear_2_17272)"/>
<path d="M64.406 9.55664H64.392L64.399 9.57052L64.406 9.55664Z" fill="#FFE000"/>
<path d="M64.406 9.55664H64.392L64.399 9.57052L64.406 9.55664Z" fill="url(#paint5_linear_2_17272)"/>
<path d="M64.406 9.55664H64.392L64.399 9.57052L64.406 9.55664Z" fill="url(#paint6_linear_2_17272)"/>
<path d="M71.8221 9.55664H64.4063V9.57141H64.3991L72.5747 27.8886L78.5218 41.208V14.3099C78.5218 12.6588 78.2296 11.0818 77.7109 9.60845C77.4843 9.57883 77.2579 9.55664 77.0314 9.55664H71.8294H71.8221Z" fill="#FFE000"/>
<path d="M71.8221 9.55664H64.4063V9.57141H64.3991L72.5747 27.8886L78.5218 41.208V14.3099C78.5218 12.6588 78.2296 11.0818 77.7109 9.60845C77.4843 9.57883 77.2579 9.55664 77.0314 9.55664H71.8294H71.8221Z" fill="url(#paint7_linear_2_17272)"/>
<path d="M14.4763 46.7832L12.9274 50.2409L9.83691 57.1635C11.2981 57.6891 12.8616 57.9927 14.4982 57.9927H25.8227L30.8347 46.7759H14.4763V46.7832Z" fill="#FFE000"/>
<path d="M14.4763 46.7832L12.9274 50.2409L9.83691 57.1635C11.2981 57.6891 12.8616 57.9927 14.4982 57.9927H25.8227L30.8347 46.7759H14.4763V46.7832Z" fill="url(#paint8_linear_2_17272)"/>
<path d="M14.4763 46.7832L12.9274 50.2409L9.83691 57.1635C11.2981 57.6891 12.8616 57.9927 14.4982 57.9927H25.8227L30.8347 46.7759H14.4763V46.7832Z" fill="url(#paint9_linear_2_17272)"/>
<path d="M31.1123 9.55664H31.1049L26.882 19.0113L22.6591 28.4734L30.8347 46.7831L36.2996 34.552L39.2879 27.8515L31.1123 9.55664Z" fill="#FFE000"/>
<path d="M31.1123 9.55664H31.1049L26.882 19.0113L22.6591 28.4734L30.8347 46.7831L36.2996 34.552L39.2879 27.8515L31.1123 9.55664Z" fill="url(#paint10_linear_2_17272)"/>
<path d="M31.1123 9.55664H31.1049L26.882 19.0113L22.6591 28.4734L30.8347 46.7831L36.2996 34.552L39.2879 27.8515L31.1123 9.55664Z" fill="url(#paint11_linear_2_17272)"/>
</g>
</g>
<defs>
<linearGradient id="paint0_linear_2_17272" x1="47.6461" y1="41.2153" x2="47.5561" y2="9.09747" gradientUnits="userSpaceOnUse">
<stop stop-color="#280064"/>
<stop offset="0.2" stop-color="#360787"/>
<stop offset="0.58" stop-color="#5115C7"/>
<stop offset="0.86" stop-color="#611DEF"/>
<stop offset="1" stop-color="#6821FF"/>
</linearGradient>
<linearGradient id="paint1_linear_2_17272" x1="64.297" y1="41.1712" x2="64.1994" y2="9.05327" gradientUnits="userSpaceOnUse">
<stop stop-color="#280064"/>
<stop offset="0.2" stop-color="#360787"/>
<stop offset="0.58" stop-color="#5115C7"/>
<stop offset="0.86" stop-color="#611DEF"/>
<stop offset="1" stop-color="#6821FF"/>
</linearGradient>
<linearGradient id="paint2_linear_2_17272" x1="67.5409" y1="20.4256" x2="60.525" y2="36.617" gradientUnits="userSpaceOnUse">
<stop stop-color="#280064"/>
<stop offset="0.2" stop-color="#360787"/>
<stop offset="0.58" stop-color="#5115C7"/>
<stop offset="0.86" stop-color="#611DEF"/>
<stop offset="1" stop-color="#6821FF"/>
</linearGradient>
<linearGradient id="paint3_linear_2_17272" x1="22.6371" y1="41.2894" x2="22.5471" y2="9.17153" gradientUnits="userSpaceOnUse">
<stop stop-color="#280064"/>
<stop offset="0.2" stop-color="#360787"/>
<stop offset="0.58" stop-color="#5115C7"/>
<stop offset="0.86" stop-color="#611DEF"/>
<stop offset="1" stop-color="#6821FF"/>
</linearGradient>
<linearGradient id="paint4_linear_2_17272" x1="15.6818" y1="46.1241" x2="15.8319" y2="-0.764408" gradientUnits="userSpaceOnUse">
<stop stop-color="#280064"/>
<stop offset="0.2" stop-color="#360787"/>
<stop offset="0.58" stop-color="#5115C7"/>
<stop offset="0.86" stop-color="#611DEF"/>
<stop offset="1" stop-color="#6821FF"/>
</linearGradient>
<linearGradient id="paint5_linear_2_17272" x1="64.483" y1="39.2797" x2="64.3999" y2="9.08323" gradientUnits="userSpaceOnUse">
<stop stop-color="#280064"/>
<stop offset="0.2" stop-color="#360787"/>
<stop offset="0.58" stop-color="#5115C7"/>
<stop offset="0.86" stop-color="#611DEF"/>
<stop offset="1" stop-color="#6821FF"/>
</linearGradient>
<linearGradient id="paint6_linear_2_17272" x1="64.392" y1="9.56354" x2="107.795" y2="9.56354" gradientUnits="userSpaceOnUse">
<stop offset="0.24" stop-color="white"/>
<stop offset="0.42" stop-color="#FAFAFA"/>
<stop offset="0.62" stop-color="#ECECEC"/>
<stop offset="0.83" stop-color="#D6D6D6"/>
<stop offset="1" stop-color="#C0C0C0"/>
</linearGradient>
<linearGradient id="paint7_linear_2_17272" x1="71.5445" y1="41.1489" x2="71.4469" y2="9.03095" gradientUnits="userSpaceOnUse">
<stop stop-color="#280064"/>
<stop offset="0.2" stop-color="#360787"/>
<stop offset="0.58" stop-color="#5115C7"/>
<stop offset="0.86" stop-color="#611DEF"/>
<stop offset="1" stop-color="#6821FF"/>
</linearGradient>
<linearGradient id="paint8_linear_2_17272" x1="20.2993" y1="41.297" x2="20.2092" y2="9.17916" gradientUnits="userSpaceOnUse">
<stop stop-color="#280064"/>
<stop offset="0.2" stop-color="#360787"/>
<stop offset="0.58" stop-color="#5115C7"/>
<stop offset="0.86" stop-color="#611DEF"/>
<stop offset="1" stop-color="#6821FF"/>
</linearGradient>
<linearGradient id="paint9_linear_2_17272" x1="16.2517" y1="60.8727" x2="25.3165" y2="41.678" gradientUnits="userSpaceOnUse">
<stop stop-color="#280064"/>
<stop offset="0.2" stop-color="#360787"/>
<stop offset="0.58" stop-color="#5115C7"/>
<stop offset="0.86" stop-color="#611DEF"/>
<stop offset="1" stop-color="#6821FF"/>
</linearGradient>
<linearGradient id="paint10_linear_2_17272" x1="31.01" y1="41.2673" x2="30.92" y2="9.14942" gradientUnits="userSpaceOnUse">
<stop stop-color="#280064"/>
<stop offset="0.2" stop-color="#360787"/>
<stop offset="0.58" stop-color="#5115C7"/>
<stop offset="0.86" stop-color="#611DEF"/>
<stop offset="1" stop-color="#6821FF"/>
</linearGradient>
<linearGradient id="paint11_linear_2_17272" x1="35.6202" y1="16.8938" x2="25.1505" y2="41.6274" gradientUnits="userSpaceOnUse">
<stop stop-color="#280064"/>
<stop offset="0.2" stop-color="#360787"/>
<stop offset="0.58" stop-color="#5115C7"/>
<stop offset="0.86" stop-color="#611DEF"/>
<stop offset="1" stop-color="#6821FF"/>
</linearGradient>
<clipPath id="clip0_2_17272">
<rect width="243.375" height="57.75" fill="white" transform="translate(0.623901 0.25)"/>
</clipPath>
</defs>
</svg>
