<svg width="99" height="46" viewBox="0 0 99 46" fill="none" xmlns="http://www.w3.org/2000/svg">
<path d="M6.9957 37.988H6.8419L3.99664 27.9654H0.0747986V41.0483H2.53556V30.7962H2.68936L5.68842 41.0483H8.07228L11.0713 30.7962H11.2251V41.0483H13.6859V27.9654H9.84095L6.9957 37.988Z" fill="#1872BD"/>
<path d="M31.0649 1.64662V2.02916C30.988 2.02916 30.3728 4.70694 30.3728 4.70694L29.8345 6.92568L27.2968 18.0959C27.2199 18.7844 27.0662 19.3965 26.9124 19.9321C26.1434 22.3803 24.5285 24.0635 22.6829 24.0635H22.3753V7.0787H10.8405C9.99461 7.0787 9.22562 7.92028 9.22562 8.91489V22.2273C9.22562 23.2984 9.91771 24.0635 10.8405 24.0635H17.3V39.2886C17.3 40.3597 17.9921 41.1248 18.9149 41.1248H29.6038V27.8889C29.6038 25.3641 31.6801 23.2219 34.2946 23.2219H39.6776L43.4456 6.77266L44.9836 0.116455H32.526C31.9108 0.116455 31.3725 0.72852 31.0649 1.64662Z" fill="#1774BA"/>
<path d="M44.126 29.0365L46.183 31.0831V39.2683L44.126 41.3149H35.3853L33.3283 39.2683V31.0831L35.3853 29.0365H44.126ZM36.4448 32.0988V33.6481H40.221L36.4083 37.4416L36.9593 37.9893L37.5104 38.536L41.321 34.7445V39.0121H42.8798V32.0988H36.4448Z" fill="#E91E24"/>
<path d="M98.5694 30.1633V31.9238H92.3772V30.1633H98.5694ZM94.0378 27.4637H96.2446V38.1224C96.2446 38.5479 96.3085 38.8682 96.4365 39.0834C96.5644 39.2937 96.7292 39.438 96.931 39.5162C97.1376 39.5896 97.3615 39.6263 97.6026 39.6263C97.7797 39.6263 97.9347 39.614 98.0676 39.5896C98.2004 39.5651 98.3037 39.5456 98.3775 39.5309L98.7761 41.3428C98.6482 41.3917 98.4661 41.4406 98.2299 41.4895C97.9938 41.5433 97.6985 41.5727 97.3443 41.5775C96.7637 41.5873 96.2224 41.4846 95.7206 41.2694C95.2187 41.0543 94.8128 40.7217 94.5028 40.2718C94.1928 39.8219 94.0378 39.257 94.0378 38.5773V27.4637Z" fill="#0C1C3D"/>
<path d="M83.0631 34.7407V41.4308H80.8563V30.1633H82.9745V31.9972H83.1148C83.3755 31.4005 83.7839 30.9213 84.3399 30.5594C84.9008 30.1975 85.6069 30.0165 86.4581 30.0165C87.2306 30.0165 87.9072 30.1779 88.4878 30.5007C89.0684 30.8186 89.5186 31.2929 89.8384 31.9238C90.1582 32.5547 90.3181 33.3347 90.3181 34.2639V41.4308H88.1114V34.528C88.1114 33.7113 87.8973 33.0731 87.4693 32.6134C87.0412 32.1488 86.4532 31.9165 85.7053 31.9165C85.1936 31.9165 84.7385 32.0265 84.3399 32.2466C83.9463 32.4667 83.6339 32.7894 83.4026 33.2149C83.1763 33.6355 83.0631 34.1441 83.0631 34.7407Z" fill="#0C1C3D"/>
<path d="M72.3226 41.6802C71.6042 41.6802 70.9548 41.5482 70.3742 41.2841C69.7936 41.0151 69.3335 40.6263 68.994 40.1177C68.6594 39.6091 68.4921 38.9856 68.4921 38.2471C68.4921 37.6114 68.6151 37.0881 68.8612 36.6773C69.1072 36.2665 69.4393 35.9413 69.8575 35.7017C70.2757 35.462 70.7432 35.2811 71.2598 35.1588C71.7764 35.0366 72.3029 34.9437 72.8392 34.8801C73.5182 34.8018 74.0693 34.7383 74.4925 34.6894C74.9156 34.6356 75.2231 34.55 75.415 34.4326C75.6069 34.3152 75.7029 34.1245 75.7029 33.8604V33.8091C75.7029 33.1684 75.5208 32.672 75.1567 32.3199C74.7975 31.9678 74.2612 31.7918 73.5478 31.7918C72.8048 31.7918 72.2193 31.9556 71.7912 32.2833C71.3681 32.606 71.0753 32.9655 70.9129 33.3616L68.839 32.8921C69.085 32.2075 69.4442 31.6548 69.9166 31.2343C70.3938 30.8088 70.9425 30.5007 71.5624 30.31C72.1824 30.1144 72.8343 30.0165 73.5182 30.0165C73.9709 30.0165 74.4506 30.0703 74.9574 30.1779C75.4692 30.2806 75.9464 30.4714 76.3893 30.7501C76.837 31.0289 77.2036 31.4274 77.489 31.9458C77.7743 32.4593 77.917 33.1269 77.917 33.9485V41.4308H75.7619V39.8903H75.6733C75.5307 40.174 75.3166 40.4527 75.0312 40.7266C74.7459 41.0005 74.3793 41.2279 73.9316 41.4088C73.4838 41.5898 72.9475 41.6802 72.3226 41.6802ZM72.8023 39.9197C73.4125 39.9197 73.934 39.7999 74.367 39.5602C74.8049 39.3206 75.137 39.0076 75.3634 38.6213C75.5946 38.23 75.7103 37.8119 75.7103 37.3669V35.9144C75.6315 35.9927 75.479 36.066 75.2527 36.1345C75.0312 36.1981 74.7778 36.2543 74.4925 36.3032C74.2071 36.3472 73.9291 36.3888 73.6585 36.4279C73.3879 36.4621 73.1615 36.4915 72.9795 36.5159C72.5514 36.5697 72.1602 36.6602 71.806 36.7873C71.4566 36.9145 71.1762 37.0979 70.9646 37.3375C70.7579 37.5723 70.6546 37.8853 70.6546 38.2765C70.6546 38.8193 70.8563 39.2301 71.2598 39.5089C71.6633 39.7827 72.1775 39.9197 72.8023 39.9197Z" fill="#0C1C3D"/>
<path d="M61.1485 41.4308V30.1633H63.2815V31.9532H63.3995C63.6062 31.3468 63.9703 30.8699 64.4919 30.5227C65.0183 30.1706 65.6137 29.9945 66.2779 29.9945C66.4157 29.9945 66.5781 29.9994 66.7651 30.0092C66.9569 30.019 67.107 30.0312 67.2153 30.0459V32.1439C67.1267 32.1194 66.9693 32.0925 66.7429 32.0632C66.5166 32.029 66.2902 32.0118 66.0639 32.0118C65.5424 32.0118 65.0774 32.1219 64.669 32.342C64.2655 32.5571 63.9457 32.8579 63.7095 33.2442C63.4734 33.6257 63.3553 34.0609 63.3553 34.55V41.4308H61.1485Z" fill="#0C1C3D"/>
<path d="M53.0743 45.8909C52.1739 45.8909 51.3989 45.7735 50.7494 45.5388C50.1049 45.304 49.5784 44.9935 49.17 44.6072C48.7616 44.2208 48.4566 43.7978 48.2548 43.3381L50.1516 42.5605C50.2845 42.7757 50.4616 43.0031 50.683 43.2427C50.9093 43.4872 51.2144 43.6951 51.5982 43.8663C51.9869 44.0374 52.4863 44.123 53.0964 44.123C53.9329 44.123 54.6242 43.92 55.1703 43.5141C55.7165 43.1131 55.9896 42.4725 55.9896 41.5922V39.3768H55.8493C55.7165 39.6165 55.5246 39.883 55.2737 40.1764C55.0277 40.4698 54.6882 40.7241 54.2552 40.9393C53.8222 41.1545 53.2588 41.2621 52.565 41.2621C51.6695 41.2621 50.8626 41.0543 50.1442 40.6386C49.4308 40.218 48.8649 39.5993 48.4467 38.7826C48.0334 37.9611 47.8268 36.9512 47.8268 35.753C47.8268 34.5549 48.0309 33.5279 48.4393 32.672C48.8526 31.8162 49.4185 31.1609 50.1368 30.7061C50.8552 30.2464 51.6695 30.0165 52.5798 30.0165C53.2834 30.0165 53.8517 30.1339 54.2847 30.3687C54.7177 30.5985 55.0547 30.8675 55.2958 31.1756C55.5418 31.4837 55.7313 31.7551 55.8641 31.9898H56.0265V30.1633H58.189V41.6802C58.189 42.6485 57.9626 43.4432 57.51 44.0643C57.0573 44.6854 56.4447 45.1451 55.6722 45.4434C54.9046 45.7417 54.0387 45.8909 53.0743 45.8909ZM53.0521 39.4429C53.6869 39.4429 54.2232 39.2961 54.6611 39.0027C55.1039 38.7044 55.4385 38.2789 55.6648 37.7263C55.8961 37.1688 56.0117 36.5013 56.0117 35.7237C56.0117 34.9657 55.8986 34.2981 55.6722 33.721C55.4459 33.144 55.1138 32.6941 54.6759 32.3713C54.2379 32.0436 53.6967 31.8798 53.0521 31.8798C52.3879 31.8798 51.8344 32.051 51.3915 32.3933C50.9487 32.7307 50.6141 33.1904 50.3878 33.7724C50.1664 34.3544 50.0557 35.0048 50.0557 35.7237C50.0557 36.4621 50.1688 37.1101 50.3952 37.6676C50.6215 38.2251 50.9561 38.6604 51.3989 38.9734C51.8467 39.2864 52.3977 39.4429 53.0521 39.4429Z" fill="#0C1C3D"/>
</svg>
