<svg width="42" height="42" viewBox="0 0 42 42" fill="none" xmlns="http://www.w3.org/2000/svg">
<path d="M20.5347 41C31.5804 41 40.5347 32.0457 40.5347 21C40.5347 9.9543 31.5804 1 20.5347 1C9.48897 1 0.534668 9.9543 0.534668 21C0.534668 32.0457 9.48897 41 20.5347 41Z" stroke="#B48C1E" stroke-miterlimit="10"/>
<path d="M22.0078 19.7723L27.8114 13.0312H26.4386L21.4051 18.8906L17.3872 13.0312H12.7444L18.827 21.8817L12.7444 28.9576H14.1172L19.4408 22.7746L23.693 28.9576H28.3359L22.0301 19.7723H22.0078ZM20.1328 21.9598L19.5189 21.0781L14.6194 14.058H16.7288L20.6908 19.7165L21.3047 20.5982L26.4497 27.9531H24.3404L20.1439 21.9487L20.1328 21.9598Z" fill="#B48C1E"/>
</svg>
