<svg width="42" height="42" viewBox="0 0 42 42" fill="none" xmlns="http://www.w3.org/2000/svg">
<path d="M20.5347 41C31.5804 41 40.5347 32.0457 40.5347 21C40.5347 9.9543 31.5804 1 20.5347 1C9.48897 1 0.534668 9.9543 0.534668 21C0.534668 32.0457 9.48897 41 20.5347 41Z" stroke="#B48C1E" stroke-miterlimit="10"/>
<path d="M30.2444 18.4665C30.2444 16.1116 28.3359 14.2031 25.981 14.2031H15.077C12.7221 14.2031 10.8136 16.1116 10.8136 18.4665V23.5446C10.8136 25.8996 12.7221 27.808 15.077 27.808H25.981C28.3359 27.808 30.2444 25.8996 30.2444 23.5446V18.4665ZM23.8382 21.3906L18.9498 23.8125C18.76 23.9129 18.1015 23.779 18.1015 23.5558V18.5893C18.1015 18.3661 18.76 18.2321 18.9498 18.3437L23.6261 20.8884C23.827 21 24.0279 21.279 23.827 21.3906H23.8382Z" fill="#B48C1E"/>
</svg>
